<svg xmlns="http://www.w3.org/2000/svg" xmlns:xlink="http://www.w3.org/1999/xlink" width="2000" zoomAndPan="magnify" viewBox="0 0 1500 519.750007" height="693" preserveAspectRatio="xMidYMid meet" version="1.0"><defs><g/><clipPath id="c67e20798e"><path d="M 1062 105 L 1153 105 L 1153 200 L 1062 200 Z M 1062 105 " clip-rule="nonzero"/></clipPath><clipPath id="4bf32d969a"><path d="M 996.441406 77.546875 L 1112.886719 32.140625 L 1167.925781 173.285156 L 1051.480469 218.695312 Z M 996.441406 77.546875 " clip-rule="nonzero"/></clipPath><clipPath id="1dbbe0ed93"><path d="M 996.441406 77.546875 L 1112.886719 32.140625 L 1167.925781 173.285156 L 1051.480469 218.695312 Z M 996.441406 77.546875 " clip-rule="nonzero"/></clipPath><clipPath id="4898d0cbcc"><path d="M 996.441406 77.546875 L 1112.886719 32.140625 L 1167.925781 173.285156 L 1051.480469 218.695312 Z M 996.441406 77.546875 " clip-rule="nonzero"/></clipPath><clipPath id="44300841dd"><path d="M 1043 58 L 1060 58 L 1060 88 L 1043 88 Z M 1043 58 " clip-rule="nonzero"/></clipPath><clipPath id="26feacd536"><path d="M 996.441406 77.546875 L 1112.886719 32.140625 L 1167.925781 173.285156 L 1051.480469 218.695312 Z M 996.441406 77.546875 " clip-rule="nonzero"/></clipPath><clipPath id="2e513c8a65"><path d="M 996.441406 77.546875 L 1112.886719 32.140625 L 1167.925781 173.285156 L 1051.480469 218.695312 Z M 996.441406 77.546875 " clip-rule="nonzero"/></clipPath><clipPath id="a3c71df23d"><path d="M 996.441406 77.546875 L 1112.886719 32.140625 L 1167.925781 173.285156 L 1051.480469 218.695312 Z M 996.441406 77.546875 " clip-rule="nonzero"/></clipPath><clipPath id="fc311e63fa"><path d="M 1015 114 L 1046 114 L 1046 130 L 1015 130 Z M 1015 114 " clip-rule="nonzero"/></clipPath><clipPath id="8b53dcf52c"><path d="M 996.441406 77.546875 L 1112.886719 32.140625 L 1167.925781 173.285156 L 1051.480469 218.695312 Z M 996.441406 77.546875 " clip-rule="nonzero"/></clipPath><clipPath id="58e00a22f1"><path d="M 996.441406 77.546875 L 1112.886719 32.140625 L 1167.925781 173.285156 L 1051.480469 218.695312 Z M 996.441406 77.546875 " clip-rule="nonzero"/></clipPath><clipPath id="7ac6cb0b51"><path d="M 996.441406 77.546875 L 1112.886719 32.140625 L 1167.925781 173.285156 L 1051.480469 218.695312 Z M 996.441406 77.546875 " clip-rule="nonzero"/></clipPath><clipPath id="8f9aff48e4"><path d="M 1085 87 L 1115 87 L 1115 103 L 1085 103 Z M 1085 87 " clip-rule="nonzero"/></clipPath><clipPath id="e49fd63c26"><path d="M 996.441406 77.546875 L 1112.886719 32.140625 L 1167.925781 173.285156 L 1051.480469 218.695312 Z M 996.441406 77.546875 " clip-rule="nonzero"/></clipPath><clipPath id="c00daa983f"><path d="M 996.441406 77.546875 L 1112.886719 32.140625 L 1167.925781 173.285156 L 1051.480469 218.695312 Z M 996.441406 77.546875 " clip-rule="nonzero"/></clipPath><clipPath id="31c2236312"><path d="M 996.441406 77.546875 L 1112.886719 32.140625 L 1167.925781 173.285156 L 1051.480469 218.695312 Z M 996.441406 77.546875 " clip-rule="nonzero"/></clipPath><clipPath id="4bcfe27056"><path d="M 1016 84 L 1046 84 L 1046 102 L 1016 102 Z M 1016 84 " clip-rule="nonzero"/></clipPath><clipPath id="582a6d5415"><path d="M 996.441406 77.546875 L 1112.886719 32.140625 L 1167.925781 173.285156 L 1051.480469 218.695312 Z M 996.441406 77.546875 " clip-rule="nonzero"/></clipPath><clipPath id="bb07d81728"><path d="M 996.441406 77.546875 L 1112.886719 32.140625 L 1167.925781 173.285156 L 1051.480469 218.695312 Z M 996.441406 77.546875 " clip-rule="nonzero"/></clipPath><clipPath id="1d8a9ea357"><path d="M 996.441406 77.546875 L 1112.886719 32.140625 L 1167.925781 173.285156 L 1051.480469 218.695312 Z M 996.441406 77.546875 " clip-rule="nonzero"/></clipPath><clipPath id="a011185360"><path d="M 1042 128 L 1059 128 L 1059 158 L 1042 158 Z M 1042 128 " clip-rule="nonzero"/></clipPath><clipPath id="99d201a611"><path d="M 996.441406 77.546875 L 1112.886719 32.140625 L 1167.925781 173.285156 L 1051.480469 218.695312 Z M 996.441406 77.546875 " clip-rule="nonzero"/></clipPath><clipPath id="3206669f52"><path d="M 996.441406 77.546875 L 1112.886719 32.140625 L 1167.925781 173.285156 L 1051.480469 218.695312 Z M 996.441406 77.546875 " clip-rule="nonzero"/></clipPath><clipPath id="5259079c8e"><path d="M 996.441406 77.546875 L 1112.886719 32.140625 L 1167.925781 173.285156 L 1051.480469 218.695312 Z M 996.441406 77.546875 " clip-rule="nonzero"/></clipPath><clipPath id="7a783d900b"><path d="M 1072 59 L 1089 59 L 1089 89 L 1072 89 Z M 1072 59 " clip-rule="nonzero"/></clipPath><clipPath id="a301ee3bae"><path d="M 996.441406 77.546875 L 1112.886719 32.140625 L 1167.925781 173.285156 L 1051.480469 218.695312 Z M 996.441406 77.546875 " clip-rule="nonzero"/></clipPath><clipPath id="bff8714fec"><path d="M 996.441406 77.546875 L 1112.886719 32.140625 L 1167.925781 173.285156 L 1051.480469 218.695312 Z M 996.441406 77.546875 " clip-rule="nonzero"/></clipPath><clipPath id="b13a08d5ad"><path d="M 996.441406 77.546875 L 1112.886719 32.140625 L 1167.925781 173.285156 L 1051.480469 218.695312 Z M 996.441406 77.546875 " clip-rule="nonzero"/></clipPath></defs><g fill="#8b8b8b" fill-opacity="1"><g transform="translate(122.416033, 414.009814)"><g><path d="M 38.3125 -25.609375 C 18.957031 -46.710938 9.28125 -72.59375 9.28125 -103.25 C 9.28125 -133.90625 18.957031 -159.851562 38.3125 -181.09375 C 57.675781 -202.332031 82.28125 -212.953125 112.125 -212.953125 C 139.550781 -212.953125 162.140625 -204.347656 179.890625 -187.140625 L 179.890625 -346.859375 L 251.28125 -346.859375 L 251.28125 0 L 180.6875 0 L 180.6875 -23.390625 L 179.890625 -23.390625 C 162.140625 -3.765625 139.550781 6.046875 112.125 6.046875 C 82.28125 6.046875 57.675781 -4.503906 38.3125 -25.609375 Z M 99.015625 -138.34375 C 89.742188 -129.195312 85.109375 -117.5 85.109375 -103.25 C 85.109375 -89 89.539062 -77.367188 98.40625 -68.359375 C 107.28125 -59.359375 118.976562 -54.859375 133.5 -54.859375 C 147.476562 -54.859375 158.972656 -59.425781 167.984375 -68.5625 C 176.992188 -77.707031 181.5 -89.269531 181.5 -103.25 C 181.5 -117.5 176.859375 -129.195312 167.578125 -138.34375 C 158.304688 -147.488281 146.945312 -152.0625 133.5 -152.0625 C 119.789062 -152.0625 108.296875 -147.488281 99.015625 -138.34375 Z M 99.015625 -138.34375 "/></g></g></g><g fill="#8b8b8b" fill-opacity="1"><g transform="translate(359.975792, 414.009814)"><g><path d="M 134.3125 -154.46875 C 120.863281 -154.46875 109.300781 -149.492188 99.625 -139.546875 C 89.945312 -129.597656 85.109375 -117.632812 85.109375 -103.65625 C 85.109375 -89.40625 89.945312 -77.304688 99.625 -67.359375 C 109.300781 -57.410156 120.863281 -52.4375 134.3125 -52.4375 C 140.757812 -52.4375 146.875 -53.238281 152.65625 -54.84375 C 158.4375 -56.457031 162.671875 -58.070312 165.359375 -59.6875 L 169 -62.109375 L 193.1875 -12.5 C 191.3125 -11.15625 188.691406 -9.472656 185.328125 -7.453125 C 181.960938 -5.441406 174.296875 -2.691406 162.328125 0.796875 C 150.367188 4.296875 137.535156 6.046875 123.828125 6.046875 C 93.441406 6.046875 66.753906 -4.640625 43.765625 -26.015625 C 20.773438 -47.390625 9.28125 -73 9.28125 -102.84375 C 9.28125 -132.957031 20.773438 -158.835938 43.765625 -180.484375 C 66.753906 -202.128906 93.441406 -212.953125 123.828125 -212.953125 C 137.535156 -212.953125 150.171875 -211.335938 161.734375 -208.109375 C 173.296875 -204.890625 181.5 -201.664062 186.34375 -198.4375 L 193.1875 -193.59375 L 169 -144.796875 C 160.125 -151.242188 148.5625 -154.46875 134.3125 -154.46875 Z M 134.3125 -154.46875 "/></g></g></g><g fill="#000000" fill-opacity="1"><g transform="translate(520.099735, 414.009814)"><g><path d="M 38.3125 -25.609375 C 18.957031 -46.710938 9.28125 -72.59375 9.28125 -103.25 C 9.28125 -133.90625 18.957031 -159.851562 38.3125 -181.09375 C 57.675781 -202.332031 82.28125 -212.953125 112.125 -212.953125 C 139.550781 -212.953125 162.140625 -204.347656 179.890625 -187.140625 L 179.890625 -346.859375 L 251.28125 -346.859375 L 251.28125 0 L 180.6875 0 L 180.6875 -23.390625 L 179.890625 -23.390625 C 162.140625 -3.765625 139.550781 6.046875 112.125 6.046875 C 82.28125 6.046875 57.675781 -4.503906 38.3125 -25.609375 Z M 99.015625 -138.34375 C 89.742188 -129.195312 85.109375 -117.5 85.109375 -103.25 C 85.109375 -89 89.539062 -77.367188 98.40625 -68.359375 C 107.28125 -59.359375 118.976562 -54.859375 133.5 -54.859375 C 147.476562 -54.859375 158.972656 -59.425781 167.984375 -68.5625 C 176.992188 -77.707031 181.5 -89.269531 181.5 -103.25 C 181.5 -117.5 176.859375 -129.195312 167.578125 -138.34375 C 158.304688 -147.488281 146.945312 -152.0625 133.5 -152.0625 C 119.789062 -152.0625 108.296875 -147.488281 99.015625 -138.34375 Z M 99.015625 -138.34375 "/></g></g></g><g fill="#000000" fill-opacity="1"><g transform="translate(757.659495, 414.009814)"><g><path d="M 233.53125 -93.578125 L 83.484375 -93.578125 C 83.484375 -79.054688 88.1875 -68.296875 97.59375 -61.296875 C 107.007812 -54.304688 117.234375 -50.8125 128.265625 -50.8125 C 139.816406 -50.8125 148.953125 -52.359375 155.671875 -55.453125 C 162.398438 -58.546875 170.066406 -64.664062 178.671875 -73.8125 L 230.296875 -48 C 208.785156 -11.96875 173.023438 6.046875 123.015625 6.046875 C 91.828125 6.046875 65.070312 -4.640625 42.75 -26.015625 C 20.4375 -47.390625 9.28125 -73.132812 9.28125 -103.25 C 9.28125 -133.363281 20.4375 -159.175781 42.75 -180.6875 C 65.070312 -202.195312 91.828125 -212.953125 123.015625 -212.953125 C 155.816406 -212.953125 182.503906 -203.472656 203.078125 -184.515625 C 223.648438 -165.566406 233.9375 -138.476562 233.9375 -103.25 C 233.9375 -98.40625 233.800781 -95.179688 233.53125 -93.578125 Z M 85.5 -133.09375 L 164.15625 -133.09375 C 162.539062 -143.851562 158.304688 -152.125 151.453125 -157.90625 C 144.597656 -163.6875 135.789062 -166.578125 125.03125 -166.578125 C 113.195312 -166.578125 103.785156 -163.484375 96.796875 -157.296875 C 89.804688 -151.109375 86.039062 -143.039062 85.5 -133.09375 Z M 85.5 -133.09375 "/></g></g></g><g fill="#000000" fill-opacity="1"><g transform="translate(962.953005, 414.009814)"><g><path d="M 76.625 -206.90625 L 127.046875 -94.375 L 177.46875 -206.90625 L 262.15625 -206.90625 L 151.25 0 L 102.84375 0 L -8.0625 -206.90625 Z M 76.625 -206.90625 "/></g></g></g><g fill="#000000" fill-opacity="1"><g transform="translate(1179.136355, 414.009814)"><g><path d="M 114.140625 -212.953125 C 125.972656 -212.953125 137.671875 -211.609375 149.234375 -208.921875 C 160.796875 -206.234375 169.398438 -203.546875 175.046875 -200.859375 L 183.515625 -196.828125 L 160.125 -150.03125 C 143.988281 -158.632812 128.660156 -162.9375 114.140625 -162.9375 C 106.078125 -162.9375 100.363281 -162.0625 97 -160.3125 C 93.632812 -158.570312 91.953125 -155.28125 91.953125 -150.4375 C 91.953125 -149.363281 92.085938 -148.285156 92.359375 -147.203125 C 92.628906 -146.128906 93.164062 -145.125 93.96875 -144.1875 C 94.78125 -143.25 95.519531 -142.441406 96.1875 -141.765625 C 96.863281 -141.097656 98.007812 -140.359375 99.625 -139.546875 C 101.238281 -138.742188 102.515625 -138.140625 103.453125 -137.734375 C 104.390625 -137.328125 105.929688 -136.722656 108.078125 -135.921875 C 110.234375 -135.117188 111.847656 -134.515625 112.921875 -134.109375 C 114.003906 -133.703125 115.820312 -133.09375 118.375 -132.28125 C 120.925781 -131.476562 122.875 -130.941406 124.21875 -130.671875 C 132.5625 -128.253906 139.820312 -125.566406 146 -122.609375 C 152.1875 -119.648438 158.707031 -115.613281 165.5625 -110.5 C 172.414062 -105.394531 177.722656 -98.941406 181.484375 -91.140625 C 185.253906 -83.347656 187.140625 -74.476562 187.140625 -64.53125 C 187.140625 -17.476562 154.472656 6.046875 89.140625 6.046875 C 74.347656 6.046875 60.296875 3.765625 46.984375 -0.796875 C 33.671875 -5.367188 24.0625 -9.941406 18.15625 -14.515625 L 9.28125 -21.78125 L 38.3125 -70.578125 C 40.46875 -68.703125 43.289062 -66.484375 46.78125 -63.921875 C 50.28125 -61.367188 56.597656 -57.875 65.734375 -53.4375 C 74.878906 -49 82.8125 -46.78125 89.53125 -46.78125 C 104.320312 -46.78125 111.71875 -51.753906 111.71875 -61.703125 C 111.71875 -66.273438 109.832031 -69.835938 106.0625 -72.390625 C 102.300781 -74.953125 95.914062 -77.84375 86.90625 -81.0625 C 77.90625 -84.289062 70.851562 -87.25 65.75 -89.9375 C 52.832031 -96.664062 42.609375 -104.265625 35.078125 -112.734375 C 27.554688 -121.203125 23.796875 -132.425781 23.796875 -146.40625 C 23.796875 -167.382812 31.925781 -183.71875 48.1875 -195.40625 C 64.457031 -207.101562 86.441406 -212.953125 114.140625 -212.953125 Z M 114.140625 -212.953125 "/></g></g></g><g clip-path="url(#c67e20798e)"><g clip-path="url(#4bf32d969a)"><g clip-path="url(#1dbbe0ed93)"><g clip-path="url(#4898d0cbcc)"><path fill="#000000" d="M 1150.792969 133.242188 L 1066.289062 105.328125 C 1065.136719 104.949219 1063.878906 105.265625 1063.0625 106.152344 C 1062.234375 107.03125 1061.992188 108.316406 1062.433594 109.449219 L 1096.769531 197.503906 C 1097.273438 198.792969 1098.5625 199.609375 1099.929688 199.511719 C 1100.238281 199.484375 1100.539062 199.414062 1100.820312 199.304688 C 1101.773438 198.933594 1102.5 198.101562 1102.726562 197.054688 L 1111.878906 154.414062 L 1150.988281 139.164062 C 1152.214844 138.6875 1153 137.480469 1152.964844 136.148438 C 1152.921875 134.820312 1152.050781 133.65625 1150.792969 133.242188 Z M 1150.792969 133.242188 " fill-opacity="1" fill-rule="nonzero"/></g></g></g></g><g clip-path="url(#44300841dd)"><g clip-path="url(#26feacd536)"><g clip-path="url(#2e513c8a65)"><g clip-path="url(#a3c71df23d)"><path fill="#000000" d="M 1045.878906 58.417969 C 1044.277344 59.042969 1043.488281 60.867188 1044.121094 62.484375 L 1053.277344 85.96875 C 1053.90625 87.585938 1055.722656 88.394531 1057.324219 87.769531 C 1058.929688 87.144531 1059.71875 85.320312 1059.085938 83.703125 L 1049.929688 60.21875 C 1049.296875 58.601562 1047.484375 57.792969 1045.878906 58.417969 Z M 1045.878906 58.417969 " fill-opacity="1" fill-rule="nonzero"/></g></g></g></g><g clip-path="url(#fc311e63fa)"><g clip-path="url(#8b53dcf52c)"><g clip-path="url(#58e00a22f1)"><g clip-path="url(#7ac6cb0b51)"><path fill="#000000" d="M 1040.957031 114.441406 L 1017.71875 123.503906 C 1016.117188 124.128906 1015.328125 125.949219 1015.957031 127.570312 C 1016.589844 129.191406 1018.40625 130 1020.007812 129.375 L 1043.246094 120.3125 C 1044.851562 119.6875 1045.636719 117.863281 1045.003906 116.242188 C 1044.371094 114.625 1042.558594 113.816406 1040.957031 114.441406 Z M 1040.957031 114.441406 " fill-opacity="1" fill-rule="nonzero"/></g></g></g></g><g clip-path="url(#8f9aff48e4)"><g clip-path="url(#e49fd63c26)"><g clip-path="url(#c00daa983f)"><g clip-path="url(#31c2236312)"><path fill="#000000" d="M 1110.667969 87.257812 L 1087.429688 96.320312 C 1085.828125 96.945312 1085.039062 98.765625 1085.671875 100.386719 C 1086.300781 102.007812 1088.117188 102.816406 1089.71875 102.191406 L 1112.957031 93.128906 C 1114.5625 92.503906 1115.347656 90.679688 1114.71875 89.058594 C 1114.085938 87.4375 1112.269531 86.632812 1110.667969 87.257812 Z M 1110.667969 87.257812 " fill-opacity="1" fill-rule="nonzero"/></g></g></g></g><g clip-path="url(#4bcfe27056)"><g clip-path="url(#582a6d5415)"><g clip-path="url(#bb07d81728)"><g clip-path="url(#1d8a9ea357)"><path fill="#000000" d="M 1043.675781 95.242188 L 1020.769531 85.050781 C 1019.1875 84.347656 1017.347656 85.066406 1016.660156 86.652344 C 1015.972656 88.238281 1016.699219 90.097656 1018.28125 90.800781 L 1041.1875 100.996094 C 1041.976562 101.339844 1042.835938 101.339844 1043.578125 101.050781 C 1044.320312 100.761719 1044.957031 100.1875 1045.296875 99.394531 C 1045.980469 97.804688 1045.253906 95.945312 1043.675781 95.242188 Z M 1043.675781 95.242188 " fill-opacity="1" fill-rule="nonzero"/></g></g></g></g><g clip-path="url(#a011185360)"><g clip-path="url(#99d201a611)"><g clip-path="url(#3206669f52)"><g clip-path="url(#5259079c8e)"><path fill="#000000" d="M 1056.628906 128.457031 C 1055.050781 127.753906 1053.207031 128.472656 1052.519531 130.058594 L 1042.558594 153.070312 C 1041.871094 154.65625 1042.597656 156.515625 1044.175781 157.21875 C 1044.96875 157.566406 1045.824219 157.5625 1046.570312 157.273438 C 1047.3125 156.984375 1047.945312 156.40625 1048.28125 155.609375 L 1058.246094 132.605469 C 1058.933594 131.019531 1058.207031 129.160156 1056.628906 128.457031 Z M 1056.628906 128.457031 " fill-opacity="1" fill-rule="nonzero"/></g></g></g></g><g clip-path="url(#7a783d900b)"><g clip-path="url(#a301ee3bae)"><g clip-path="url(#bff8714fec)"><g clip-path="url(#b13a08d5ad)"><path fill="#000000" d="M 1086.496094 59.421875 C 1084.914062 58.71875 1083.074219 59.433594 1082.386719 61.023438 L 1072.425781 84.03125 C 1071.738281 85.617188 1072.464844 87.480469 1074.042969 88.183594 C 1074.835938 88.527344 1075.691406 88.527344 1076.4375 88.238281 C 1077.179688 87.949219 1077.8125 87.375 1078.152344 86.582031 L 1088.113281 63.570312 C 1088.800781 61.984375 1088.074219 60.121094 1086.496094 59.421875 Z M 1086.496094 59.421875 " fill-opacity="1" fill-rule="nonzero"/></g></g></g></g></svg>