<svg xmlns="http://www.w3.org/2000/svg" xmlns:xlink="http://www.w3.org/1999/xlink" width="500" zoomAndPan="magnify" viewBox="0 0 375 374.999991" height="500" preserveAspectRatio="xMidYMid meet" version="1.0"><defs><g/><clipPath id="f9b511d57d"><path d="M 249 148 L 268 148 L 268 167 L 249 167 Z M 249 148 " clip-rule="nonzero"/></clipPath><clipPath id="1ed1db9e1f"><path d="M 236.300781 142.953125 L 259.359375 133.960938 L 270.257812 161.910156 L 247.199219 170.902344 Z M 236.300781 142.953125 " clip-rule="nonzero"/></clipPath><clipPath id="ecd11929f7"><path d="M 236.300781 142.953125 L 259.359375 133.960938 L 270.257812 161.910156 L 247.199219 170.902344 Z M 236.300781 142.953125 " clip-rule="nonzero"/></clipPath><clipPath id="410109542e"><path d="M 245 139 L 249 139 L 249 145 L 245 145 Z M 245 139 " clip-rule="nonzero"/></clipPath><clipPath id="0a07b9a4d1"><path d="M 236.300781 142.953125 L 259.359375 133.960938 L 270.257812 161.910156 L 247.199219 170.902344 Z M 236.300781 142.953125 " clip-rule="nonzero"/></clipPath><clipPath id="da568791a6"><path d="M 236.300781 142.953125 L 259.359375 133.960938 L 270.257812 161.910156 L 247.199219 170.902344 Z M 236.300781 142.953125 " clip-rule="nonzero"/></clipPath><clipPath id="b0f5dc53f1"><path d="M 240 150 L 246 150 L 246 154 L 240 154 Z M 240 150 " clip-rule="nonzero"/></clipPath><clipPath id="3032c2eb04"><path d="M 236.300781 142.953125 L 259.359375 133.960938 L 270.257812 161.910156 L 247.199219 170.902344 Z M 236.300781 142.953125 " clip-rule="nonzero"/></clipPath><clipPath id="fdd17e0308"><path d="M 236.300781 142.953125 L 259.359375 133.960938 L 270.257812 161.910156 L 247.199219 170.902344 Z M 236.300781 142.953125 " clip-rule="nonzero"/></clipPath><clipPath id="6f68016b9f"><path d="M 253 144 L 260 144 L 260 148 L 253 148 Z M 253 144 " clip-rule="nonzero"/></clipPath><clipPath id="bbb0a125eb"><path d="M 236.300781 142.953125 L 259.359375 133.960938 L 270.257812 161.910156 L 247.199219 170.902344 Z M 236.300781 142.953125 " clip-rule="nonzero"/></clipPath><clipPath id="96b2b12b73"><path d="M 236.300781 142.953125 L 259.359375 133.960938 L 270.257812 161.910156 L 247.199219 170.902344 Z M 236.300781 142.953125 " clip-rule="nonzero"/></clipPath><clipPath id="d8399d8558"><path d="M 240 144 L 247 144 L 247 148 L 240 148 Z M 240 144 " clip-rule="nonzero"/></clipPath><clipPath id="37ada86396"><path d="M 236.300781 142.953125 L 259.359375 133.960938 L 270.257812 161.910156 L 247.199219 170.902344 Z M 236.300781 142.953125 " clip-rule="nonzero"/></clipPath><clipPath id="4c8ab6b5e2"><path d="M 236.300781 142.953125 L 259.359375 133.960938 L 270.257812 161.910156 L 247.199219 170.902344 Z M 236.300781 142.953125 " clip-rule="nonzero"/></clipPath><clipPath id="e17432f7d6"><path d="M 245 152 L 249 152 L 249 159 L 245 159 Z M 245 152 " clip-rule="nonzero"/></clipPath><clipPath id="98d7ebc1d3"><path d="M 236.300781 142.953125 L 259.359375 133.960938 L 270.257812 161.910156 L 247.199219 170.902344 Z M 236.300781 142.953125 " clip-rule="nonzero"/></clipPath><clipPath id="8babd74309"><path d="M 236.300781 142.953125 L 259.359375 133.960938 L 270.257812 161.910156 L 247.199219 170.902344 Z M 236.300781 142.953125 " clip-rule="nonzero"/></clipPath><clipPath id="0d27f66985"><path d="M 251 139 L 255 139 L 255 146 L 251 146 Z M 251 139 " clip-rule="nonzero"/></clipPath><clipPath id="68da8caf0a"><path d="M 236.300781 142.953125 L 259.359375 133.960938 L 270.257812 161.910156 L 247.199219 170.902344 Z M 236.300781 142.953125 " clip-rule="nonzero"/></clipPath><clipPath id="24ac9539b5"><path d="M 236.300781 142.953125 L 259.359375 133.960938 L 270.257812 161.910156 L 247.199219 170.902344 Z M 236.300781 142.953125 " clip-rule="nonzero"/></clipPath></defs><rect x="-37.5" width="450" fill="#ffffff" y="-37.499999" height="449.999989" fill-opacity="1"/><rect x="-37.5" width="450" fill="#000000" y="-37.499999" height="449.999989" fill-opacity="1"/><g fill="#f1efe7" fill-opacity="1"><g transform="translate(63.23806, 210.433508)"><g><path d="M 7.59375 -5.0625 C 3.757812 -9.25 1.84375 -14.375 1.84375 -20.4375 C 1.84375 -26.507812 3.757812 -31.648438 7.59375 -35.859375 C 11.425781 -40.066406 16.296875 -42.171875 22.203125 -42.171875 C 27.628906 -42.171875 32.101562 -40.46875 35.625 -37.0625 L 35.625 -68.671875 L 49.75 -68.671875 L 49.75 0 L 35.78125 0 L 35.78125 -4.625 L 35.625 -4.625 C 32.101562 -0.738281 27.628906 1.203125 22.203125 1.203125 C 16.296875 1.203125 11.425781 -0.882812 7.59375 -5.0625 Z M 19.59375 -27.390625 C 17.757812 -25.578125 16.84375 -23.257812 16.84375 -20.4375 C 16.84375 -17.625 17.722656 -15.320312 19.484375 -13.53125 C 21.242188 -11.75 23.5625 -10.859375 26.4375 -10.859375 C 29.207031 -10.859375 31.484375 -11.765625 33.265625 -13.578125 C 35.046875 -15.390625 35.9375 -17.675781 35.9375 -20.4375 C 35.9375 -23.257812 35.015625 -25.578125 33.171875 -27.390625 C 31.335938 -29.203125 29.09375 -30.109375 26.4375 -30.109375 C 23.71875 -30.109375 21.4375 -29.203125 19.59375 -27.390625 Z M 19.59375 -27.390625 "/></g></g></g><g fill="#f1efe7" fill-opacity="1"><g transform="translate(110.274468, 210.433508)"><g><path d="M 26.59375 -30.59375 C 23.925781 -30.59375 21.632812 -29.601562 19.71875 -27.625 C 17.800781 -25.65625 16.84375 -23.289062 16.84375 -20.53125 C 16.84375 -17.707031 17.800781 -15.304688 19.71875 -13.328125 C 21.632812 -11.359375 23.925781 -10.375 26.59375 -10.375 C 27.875 -10.375 29.082031 -10.535156 30.21875 -10.859375 C 31.363281 -11.179688 32.207031 -11.5 32.75 -11.8125 L 33.46875 -12.296875 L 38.25 -2.46875 C 37.875 -2.207031 37.351562 -1.875 36.6875 -1.46875 C 36.03125 -1.070312 34.515625 -0.53125 32.140625 0.15625 C 29.773438 0.851562 27.234375 1.203125 24.515625 1.203125 C 18.503906 1.203125 13.222656 -0.910156 8.671875 -5.140625 C 4.117188 -9.378906 1.84375 -14.453125 1.84375 -20.359375 C 1.84375 -26.328125 4.117188 -31.453125 8.671875 -35.734375 C 13.222656 -40.023438 18.503906 -42.171875 24.515625 -42.171875 C 27.234375 -42.171875 29.734375 -41.847656 32.015625 -41.203125 C 34.304688 -40.566406 35.929688 -39.929688 36.890625 -39.296875 L 38.25 -38.328125 L 33.46875 -28.671875 C 31.707031 -29.953125 29.414062 -30.59375 26.59375 -30.59375 Z M 26.59375 -30.59375 "/></g></g></g><g fill="#f1efe7" fill-opacity="1"><g transform="translate(141.977876, 210.433508)"><g><path d="M 7.59375 -5.0625 C 3.757812 -9.25 1.84375 -14.375 1.84375 -20.4375 C 1.84375 -26.507812 3.757812 -31.648438 7.59375 -35.859375 C 11.425781 -40.066406 16.296875 -42.171875 22.203125 -42.171875 C 27.628906 -42.171875 32.101562 -40.46875 35.625 -37.0625 L 35.625 -68.671875 L 49.75 -68.671875 L 49.75 0 L 35.78125 0 L 35.78125 -4.625 L 35.625 -4.625 C 32.101562 -0.738281 27.628906 1.203125 22.203125 1.203125 C 16.296875 1.203125 11.425781 -0.882812 7.59375 -5.0625 Z M 19.59375 -27.390625 C 17.757812 -25.578125 16.84375 -23.257812 16.84375 -20.4375 C 16.84375 -17.625 17.722656 -15.320312 19.484375 -13.53125 C 21.242188 -11.75 23.5625 -10.859375 26.4375 -10.859375 C 29.207031 -10.859375 31.484375 -11.765625 33.265625 -13.578125 C 35.046875 -15.390625 35.9375 -17.675781 35.9375 -20.4375 C 35.9375 -23.257812 35.015625 -25.578125 33.171875 -27.390625 C 31.335938 -29.203125 29.09375 -30.109375 26.4375 -30.109375 C 23.71875 -30.109375 21.4375 -29.203125 19.59375 -27.390625 Z M 19.59375 -27.390625 "/></g></g></g><g fill="#f1efe7" fill-opacity="1"><g transform="translate(189.014284, 210.433508)"><g><path d="M 46.234375 -18.53125 L 16.53125 -18.53125 C 16.53125 -15.65625 17.460938 -13.523438 19.328125 -12.140625 C 21.191406 -10.753906 23.210938 -10.0625 25.390625 -10.0625 C 27.679688 -10.0625 29.492188 -10.367188 30.828125 -10.984375 C 32.160156 -11.597656 33.675781 -12.804688 35.375 -14.609375 L 45.59375 -9.5 C 41.332031 -2.363281 34.253906 1.203125 24.359375 1.203125 C 18.179688 1.203125 12.882812 -0.910156 8.46875 -5.140625 C 4.050781 -9.378906 1.84375 -14.476562 1.84375 -20.4375 C 1.84375 -26.40625 4.050781 -31.519531 8.46875 -35.78125 C 12.882812 -40.039062 18.179688 -42.171875 24.359375 -42.171875 C 30.847656 -42.171875 36.128906 -40.289062 40.203125 -36.53125 C 44.273438 -32.78125 46.3125 -27.414062 46.3125 -20.4375 C 46.3125 -19.476562 46.285156 -18.84375 46.234375 -18.53125 Z M 16.9375 -26.359375 L 32.5 -26.359375 C 32.1875 -28.484375 31.347656 -30.117188 29.984375 -31.265625 C 28.628906 -32.410156 26.882812 -32.984375 24.75 -32.984375 C 22.414062 -32.984375 20.554688 -32.367188 19.171875 -31.140625 C 17.785156 -29.921875 17.039062 -28.328125 16.9375 -26.359375 Z M 16.9375 -26.359375 "/></g></g></g><g fill="#f1efe7" fill-opacity="1"><g transform="translate(229.661952, 210.433508)"><g><path d="M 15.171875 -40.96875 L 25.15625 -18.6875 L 35.140625 -40.96875 L 51.90625 -40.96875 L 29.953125 0 L 20.359375 0 L -1.59375 -40.96875 Z M 15.171875 -40.96875 "/></g></g></g><g fill="#f1efe7" fill-opacity="1"><g transform="translate(272.465816, 210.433508)"><g><path d="M 22.59375 -42.171875 C 24.9375 -42.171875 27.253906 -41.898438 29.546875 -41.359375 C 31.835938 -40.828125 33.539062 -40.296875 34.65625 -39.765625 L 36.34375 -38.96875 L 31.703125 -29.703125 C 28.503906 -31.410156 25.46875 -32.265625 22.59375 -32.265625 C 21 -32.265625 19.867188 -32.085938 19.203125 -31.734375 C 18.535156 -31.390625 18.203125 -30.738281 18.203125 -29.78125 C 18.203125 -29.570312 18.226562 -29.359375 18.28125 -29.140625 C 18.34375 -28.929688 18.453125 -28.734375 18.609375 -28.546875 C 18.765625 -28.359375 18.910156 -28.195312 19.046875 -28.0625 C 19.179688 -27.9375 19.40625 -27.789062 19.71875 -27.625 C 20.039062 -27.46875 20.296875 -27.347656 20.484375 -27.265625 C 20.671875 -27.191406 20.976562 -27.070312 21.40625 -26.90625 C 21.832031 -26.75 22.148438 -26.628906 22.359375 -26.546875 C 22.578125 -26.472656 22.9375 -26.351562 23.4375 -26.1875 C 23.945312 -26.03125 24.332031 -25.925781 24.59375 -25.875 C 26.25 -25.394531 27.6875 -24.863281 28.90625 -24.28125 C 30.132812 -23.695312 31.425781 -22.894531 32.78125 -21.875 C 34.132812 -20.863281 35.1875 -19.585938 35.9375 -18.046875 C 36.6875 -16.503906 37.0625 -14.75 37.0625 -12.78125 C 37.0625 -3.457031 30.59375 1.203125 17.65625 1.203125 C 14.71875 1.203125 11.929688 0.75 9.296875 -0.15625 C 6.660156 -1.0625 4.757812 -1.96875 3.59375 -2.875 L 1.84375 -4.3125 L 7.59375 -13.96875 C 8.007812 -13.601562 8.5625 -13.164062 9.25 -12.65625 C 9.945312 -12.15625 11.203125 -11.460938 13.015625 -10.578125 C 14.828125 -9.703125 16.398438 -9.265625 17.734375 -9.265625 C 20.660156 -9.265625 22.125 -10.25 22.125 -12.21875 C 22.125 -13.125 21.75 -13.828125 21 -14.328125 C 20.257812 -14.835938 18.992188 -15.410156 17.203125 -16.046875 C 15.421875 -16.691406 14.023438 -17.28125 13.015625 -17.8125 C 10.460938 -19.144531 8.441406 -20.648438 6.953125 -22.328125 C 5.460938 -24.003906 4.71875 -26.222656 4.71875 -28.984375 C 4.71875 -33.140625 6.328125 -36.375 9.546875 -38.6875 C 12.765625 -41.007812 17.113281 -42.171875 22.59375 -42.171875 Z M 22.59375 -42.171875 "/></g></g></g><g clip-path="url(#f9b511d57d)"><g clip-path="url(#1ed1db9e1f)"><g clip-path="url(#ecd11929f7)"><path fill="#ffffff" d="M 266.898438 153.816406 L 250.144531 148.375 C 249.917969 148.304688 249.667969 148.367188 249.503906 148.542969 C 249.339844 148.714844 249.289062 148.96875 249.378906 149.191406 L 256.132812 166.511719 C 256.230469 166.765625 256.484375 166.925781 256.757812 166.90625 C 256.820312 166.898438 256.878906 166.886719 256.933594 166.863281 C 257.125 166.789062 257.269531 166.625 257.3125 166.417969 L 259.160156 158.011719 L 266.933594 154.980469 C 267.179688 154.886719 267.335938 154.648438 267.328125 154.386719 C 267.320312 154.125 267.148438 153.898438 266.898438 153.816406 Z M 266.898438 153.816406 " fill-opacity="1" fill-rule="nonzero"/></g></g></g><g clip-path="url(#410109542e)"><g clip-path="url(#0a07b9a4d1)"><g clip-path="url(#da568791a6)"><path fill="#ffffff" d="M 246.128906 139.152344 C 245.808594 139.273438 245.652344 139.632812 245.773438 139.953125 L 247.574219 144.570312 C 247.699219 144.890625 248.058594 145.046875 248.378906 144.925781 C 248.695312 144.800781 248.855469 144.441406 248.730469 144.121094 L 246.929688 139.503906 C 246.804688 139.183594 246.445312 139.027344 246.128906 139.152344 Z M 246.128906 139.152344 " fill-opacity="1" fill-rule="nonzero"/></g></g></g><g clip-path="url(#b0f5dc53f1)"><g clip-path="url(#3032c2eb04)"><g clip-path="url(#fdd17e0308)"><path fill="#ffffff" d="M 245.109375 150.1875 L 240.492188 151.992188 C 240.171875 152.113281 240.015625 152.472656 240.140625 152.792969 C 240.265625 153.113281 240.625 153.269531 240.941406 153.144531 L 245.5625 151.34375 C 245.878906 151.21875 246.039062 150.859375 245.914062 150.542969 C 245.789062 150.222656 245.429688 150.066406 245.109375 150.1875 Z M 245.109375 150.1875 " fill-opacity="1" fill-rule="nonzero"/></g></g></g><g clip-path="url(#6f68016b9f)"><g clip-path="url(#bbb0a125eb)"><g clip-path="url(#96b2b12b73)"><path fill="#ffffff" d="M 258.96875 144.785156 L 254.347656 146.585938 C 254.03125 146.710938 253.871094 147.070312 253.996094 147.390625 C 254.121094 147.707031 254.480469 147.867188 254.796875 147.742188 L 259.417969 145.941406 C 259.734375 145.816406 259.894531 145.457031 259.769531 145.136719 C 259.644531 144.820312 259.285156 144.660156 258.96875 144.785156 Z M 258.96875 144.785156 " fill-opacity="1" fill-rule="nonzero"/></g></g></g><g clip-path="url(#d8399d8558)"><g clip-path="url(#37ada86396)"><g clip-path="url(#4c8ab6b5e2)"><path fill="#ffffff" d="M 245.664062 146.40625 L 241.125 144.414062 C 240.8125 144.277344 240.445312 144.417969 240.308594 144.730469 C 240.171875 145.046875 240.3125 145.410156 240.625 145.546875 L 245.164062 147.539062 C 245.324219 147.609375 245.492188 147.605469 245.640625 147.550781 C 245.789062 147.492188 245.914062 147.378906 245.980469 147.222656 C 246.121094 146.910156 245.976562 146.542969 245.664062 146.40625 Z M 245.664062 146.40625 " fill-opacity="1" fill-rule="nonzero"/></g></g></g><g clip-path="url(#e17432f7d6)"><g clip-path="url(#98d7ebc1d3)"><g clip-path="url(#8babd74309)"><path fill="#ffffff" d="M 248.210938 152.9375 C 247.898438 152.800781 247.53125 152.945312 247.394531 153.257812 L 245.402344 157.796875 C 245.265625 158.109375 245.40625 158.476562 245.71875 158.613281 C 245.878906 158.679688 246.046875 158.679688 246.195312 158.621094 C 246.34375 158.566406 246.46875 158.449219 246.535156 158.292969 L 248.53125 153.753906 C 248.667969 153.441406 248.523438 153.078125 248.210938 152.9375 Z M 248.210938 152.9375 " fill-opacity="1" fill-rule="nonzero"/></g></g></g><g clip-path="url(#0d27f66985)"><g clip-path="url(#68da8caf0a)"><g clip-path="url(#24ac9539b5)"><path fill="#ffffff" d="M 254.1875 139.320312 C 253.875 139.183594 253.507812 139.324219 253.371094 139.636719 L 251.378906 144.175781 C 251.242188 144.492188 251.382812 144.855469 251.695312 144.992188 C 251.855469 145.0625 252.023438 145.0625 252.171875 145.003906 C 252.320312 144.945312 252.445312 144.832031 252.511719 144.675781 L 254.507812 140.136719 C 254.644531 139.824219 254.5 139.457031 254.1875 139.320312 Z M 254.1875 139.320312 " fill-opacity="1" fill-rule="nonzero"/></g></g></g></svg>