<svg xmlns="http://www.w3.org/2000/svg" xmlns:xlink="http://www.w3.org/1999/xlink" width="500" zoomAndPan="magnify" viewBox="0 0 375 374.999991" height="500" preserveAspectRatio="xMidYMid meet" version="1.0"><defs><g/><clipPath id="6112dedb1f"><path d="M 249 148 L 268 148 L 268 168 L 249 168 Z M 249 148 " clip-rule="nonzero"/></clipPath><clipPath id="50119ba469"><path d="M 236.300781 142.953125 L 259.359375 133.960938 L 270.257812 161.910156 L 247.199219 170.902344 Z M 236.300781 142.953125 " clip-rule="nonzero"/></clipPath><clipPath id="7b392297fc"><path d="M 236.300781 142.953125 L 259.359375 133.960938 L 270.257812 161.910156 L 247.199219 170.902344 Z M 236.300781 142.953125 " clip-rule="nonzero"/></clipPath><clipPath id="a21bf022b9"><path d="M 236.300781 142.953125 L 259.359375 133.960938 L 270.257812 161.910156 L 247.199219 170.902344 Z M 236.300781 142.953125 " clip-rule="nonzero"/></clipPath><clipPath id="d58852eec2"><path d="M 245 139 L 249 139 L 249 146 L 245 146 Z M 245 139 " clip-rule="nonzero"/></clipPath><clipPath id="1b3a056943"><path d="M 236.300781 142.953125 L 259.359375 133.960938 L 270.257812 161.910156 L 247.199219 170.902344 Z M 236.300781 142.953125 " clip-rule="nonzero"/></clipPath><clipPath id="5521c8769c"><path d="M 236.300781 142.953125 L 259.359375 133.960938 L 270.257812 161.910156 L 247.199219 170.902344 Z M 236.300781 142.953125 " clip-rule="nonzero"/></clipPath><clipPath id="9670c10aba"><path d="M 236.300781 142.953125 L 259.359375 133.960938 L 270.257812 161.910156 L 247.199219 170.902344 Z M 236.300781 142.953125 " clip-rule="nonzero"/></clipPath><clipPath id="490a7f8abc"><path d="M 240 150 L 246 150 L 246 154 L 240 154 Z M 240 150 " clip-rule="nonzero"/></clipPath><clipPath id="e2a116ecef"><path d="M 236.300781 142.953125 L 259.359375 133.960938 L 270.257812 161.910156 L 247.199219 170.902344 Z M 236.300781 142.953125 " clip-rule="nonzero"/></clipPath><clipPath id="18b4962065"><path d="M 236.300781 142.953125 L 259.359375 133.960938 L 270.257812 161.910156 L 247.199219 170.902344 Z M 236.300781 142.953125 " clip-rule="nonzero"/></clipPath><clipPath id="e21ab96e85"><path d="M 236.300781 142.953125 L 259.359375 133.960938 L 270.257812 161.910156 L 247.199219 170.902344 Z M 236.300781 142.953125 " clip-rule="nonzero"/></clipPath><clipPath id="de1cc59853"><path d="M 253 144 L 260 144 L 260 148 L 253 148 Z M 253 144 " clip-rule="nonzero"/></clipPath><clipPath id="e49e7632ab"><path d="M 236.300781 142.953125 L 259.359375 133.960938 L 270.257812 161.910156 L 247.199219 170.902344 Z M 236.300781 142.953125 " clip-rule="nonzero"/></clipPath><clipPath id="38b7ac9bd2"><path d="M 236.300781 142.953125 L 259.359375 133.960938 L 270.257812 161.910156 L 247.199219 170.902344 Z M 236.300781 142.953125 " clip-rule="nonzero"/></clipPath><clipPath id="6bab37fc76"><path d="M 236.300781 142.953125 L 259.359375 133.960938 L 270.257812 161.910156 L 247.199219 170.902344 Z M 236.300781 142.953125 " clip-rule="nonzero"/></clipPath><clipPath id="93decdee97"><path d="M 240 144 L 247 144 L 247 148 L 240 148 Z M 240 144 " clip-rule="nonzero"/></clipPath><clipPath id="7bd227253a"><path d="M 236.300781 142.953125 L 259.359375 133.960938 L 270.257812 161.910156 L 247.199219 170.902344 Z M 236.300781 142.953125 " clip-rule="nonzero"/></clipPath><clipPath id="809e66611a"><path d="M 236.300781 142.953125 L 259.359375 133.960938 L 270.257812 161.910156 L 247.199219 170.902344 Z M 236.300781 142.953125 " clip-rule="nonzero"/></clipPath><clipPath id="457d60784e"><path d="M 236.300781 142.953125 L 259.359375 133.960938 L 270.257812 161.910156 L 247.199219 170.902344 Z M 236.300781 142.953125 " clip-rule="nonzero"/></clipPath><clipPath id="9743897217"><path d="M 245 152 L 249 152 L 249 159 L 245 159 Z M 245 152 " clip-rule="nonzero"/></clipPath><clipPath id="5ed58c71ff"><path d="M 236.300781 142.953125 L 259.359375 133.960938 L 270.257812 161.910156 L 247.199219 170.902344 Z M 236.300781 142.953125 " clip-rule="nonzero"/></clipPath><clipPath id="56ad1ed20d"><path d="M 236.300781 142.953125 L 259.359375 133.960938 L 270.257812 161.910156 L 247.199219 170.902344 Z M 236.300781 142.953125 " clip-rule="nonzero"/></clipPath><clipPath id="80b809fd05"><path d="M 236.300781 142.953125 L 259.359375 133.960938 L 270.257812 161.910156 L 247.199219 170.902344 Z M 236.300781 142.953125 " clip-rule="nonzero"/></clipPath><clipPath id="4940eeef51"><path d="M 251 139 L 255 139 L 255 146 L 251 146 Z M 251 139 " clip-rule="nonzero"/></clipPath><clipPath id="a0fa9e4581"><path d="M 236.300781 142.953125 L 259.359375 133.960938 L 270.257812 161.910156 L 247.199219 170.902344 Z M 236.300781 142.953125 " clip-rule="nonzero"/></clipPath><clipPath id="d0d1bd1c26"><path d="M 236.300781 142.953125 L 259.359375 133.960938 L 270.257812 161.910156 L 247.199219 170.902344 Z M 236.300781 142.953125 " clip-rule="nonzero"/></clipPath><clipPath id="805777fa18"><path d="M 236.300781 142.953125 L 259.359375 133.960938 L 270.257812 161.910156 L 247.199219 170.902344 Z M 236.300781 142.953125 " clip-rule="nonzero"/></clipPath></defs><rect x="-37.5" width="450" fill="#ffffff" y="-37.499999" height="449.999989" fill-opacity="1"/><rect x="-37.5" width="450" fill="#f1efe7" y="-37.499999" height="449.999989" fill-opacity="1"/><g fill="#000000" fill-opacity="1"><g transform="translate(63.260582, 210.321234)"><g><path d="M 7.59375 -5.0625 C 3.757812 -9.25 1.84375 -14.375 1.84375 -20.4375 C 1.84375 -26.507812 3.757812 -31.648438 7.59375 -35.859375 C 11.425781 -40.066406 16.296875 -42.171875 22.203125 -42.171875 C 27.628906 -42.171875 32.101562 -40.46875 35.625 -37.0625 L 35.625 -68.671875 L 49.75 -68.671875 L 49.75 0 L 35.78125 0 L 35.78125 -4.625 L 35.625 -4.625 C 32.101562 -0.738281 27.628906 1.203125 22.203125 1.203125 C 16.296875 1.203125 11.425781 -0.882812 7.59375 -5.0625 Z M 19.59375 -27.390625 C 17.757812 -25.578125 16.84375 -23.257812 16.84375 -20.4375 C 16.84375 -17.625 17.722656 -15.320312 19.484375 -13.53125 C 21.242188 -11.75 23.5625 -10.859375 26.4375 -10.859375 C 29.207031 -10.859375 31.484375 -11.765625 33.265625 -13.578125 C 35.046875 -15.390625 35.9375 -17.675781 35.9375 -20.4375 C 35.9375 -23.257812 35.015625 -25.578125 33.171875 -27.390625 C 31.335938 -29.203125 29.09375 -30.109375 26.4375 -30.109375 C 23.71875 -30.109375 21.4375 -29.203125 19.59375 -27.390625 Z M 19.59375 -27.390625 "/></g></g></g><g fill="#000000" fill-opacity="1"><g transform="translate(110.286597, 210.321234)"><g><path d="M 26.59375 -30.59375 C 23.925781 -30.59375 21.632812 -29.601562 19.71875 -27.625 C 17.800781 -25.65625 16.84375 -23.289062 16.84375 -20.53125 C 16.84375 -17.707031 17.800781 -15.304688 19.71875 -13.328125 C 21.632812 -11.359375 23.925781 -10.375 26.59375 -10.375 C 27.875 -10.375 29.082031 -10.535156 30.21875 -10.859375 C 31.363281 -11.179688 32.207031 -11.5 32.75 -11.8125 L 33.46875 -12.296875 L 38.25 -2.46875 C 37.875 -2.207031 37.351562 -1.875 36.6875 -1.46875 C 36.03125 -1.070312 34.515625 -0.53125 32.140625 0.15625 C 29.773438 0.851562 27.234375 1.203125 24.515625 1.203125 C 18.503906 1.203125 13.222656 -0.910156 8.671875 -5.140625 C 4.117188 -9.378906 1.84375 -14.453125 1.84375 -20.359375 C 1.84375 -26.328125 4.117188 -31.453125 8.671875 -35.734375 C 13.222656 -40.023438 18.503906 -42.171875 24.515625 -42.171875 C 27.234375 -42.171875 29.734375 -41.847656 32.015625 -41.203125 C 34.304688 -40.566406 35.929688 -39.929688 36.890625 -39.296875 L 38.25 -38.328125 L 33.46875 -28.671875 C 31.707031 -29.953125 29.414062 -30.59375 26.59375 -30.59375 Z M 26.59375 -30.59375 "/></g></g></g><g fill="#000000" fill-opacity="1"><g transform="translate(141.982535, 210.321234)"><g><path d="M 7.59375 -5.0625 C 3.757812 -9.25 1.84375 -14.375 1.84375 -20.4375 C 1.84375 -26.507812 3.757812 -31.648438 7.59375 -35.859375 C 11.425781 -40.066406 16.296875 -42.171875 22.203125 -42.171875 C 27.628906 -42.171875 32.101562 -40.46875 35.625 -37.0625 L 35.625 -68.671875 L 49.75 -68.671875 L 49.75 0 L 35.78125 0 L 35.78125 -4.625 L 35.625 -4.625 C 32.101562 -0.738281 27.628906 1.203125 22.203125 1.203125 C 16.296875 1.203125 11.425781 -0.882812 7.59375 -5.0625 Z M 19.59375 -27.390625 C 17.757812 -25.578125 16.84375 -23.257812 16.84375 -20.4375 C 16.84375 -17.625 17.722656 -15.320312 19.484375 -13.53125 C 21.242188 -11.75 23.5625 -10.859375 26.4375 -10.859375 C 29.207031 -10.859375 31.484375 -11.765625 33.265625 -13.578125 C 35.046875 -15.390625 35.9375 -17.675781 35.9375 -20.4375 C 35.9375 -23.257812 35.015625 -25.578125 33.171875 -27.390625 C 31.335938 -29.203125 29.09375 -30.109375 26.4375 -30.109375 C 23.71875 -30.109375 21.4375 -29.203125 19.59375 -27.390625 Z M 19.59375 -27.390625 "/></g></g></g><g fill="#000000" fill-opacity="1"><g transform="translate(189.00855, 210.321234)"><g><path d="M 46.234375 -18.53125 L 16.53125 -18.53125 C 16.53125 -15.65625 17.460938 -13.523438 19.328125 -12.140625 C 21.191406 -10.753906 23.210938 -10.0625 25.390625 -10.0625 C 27.679688 -10.0625 29.492188 -10.367188 30.828125 -10.984375 C 32.160156 -11.597656 33.675781 -12.804688 35.375 -14.609375 L 45.59375 -9.5 C 41.332031 -2.363281 34.253906 1.203125 24.359375 1.203125 C 18.179688 1.203125 12.882812 -0.910156 8.46875 -5.140625 C 4.050781 -9.378906 1.84375 -14.476562 1.84375 -20.4375 C 1.84375 -26.40625 4.050781 -31.519531 8.46875 -35.78125 C 12.882812 -40.039062 18.179688 -42.171875 24.359375 -42.171875 C 30.847656 -42.171875 36.128906 -40.289062 40.203125 -36.53125 C 44.273438 -32.78125 46.3125 -27.414062 46.3125 -20.4375 C 46.3125 -19.476562 46.285156 -18.84375 46.234375 -18.53125 Z M 16.9375 -26.359375 L 32.5 -26.359375 C 32.1875 -28.484375 31.347656 -30.117188 29.984375 -31.265625 C 28.628906 -32.410156 26.882812 -32.984375 24.75 -32.984375 C 22.414062 -32.984375 20.554688 -32.367188 19.171875 -31.140625 C 17.785156 -29.921875 17.039062 -28.328125 16.9375 -26.359375 Z M 16.9375 -26.359375 "/></g></g></g><g fill="#000000" fill-opacity="1"><g transform="translate(229.647028, 210.321234)"><g><path d="M 15.171875 -40.96875 L 25.15625 -18.6875 L 35.140625 -40.96875 L 51.90625 -40.96875 L 29.953125 0 L 20.359375 0 L -1.59375 -40.96875 Z M 15.171875 -40.96875 "/></g></g></g><g fill="#000000" fill-opacity="1"><g transform="translate(272.441303, 210.321234)"><g><path d="M 22.59375 -42.171875 C 24.9375 -42.171875 27.253906 -41.898438 29.546875 -41.359375 C 31.835938 -40.828125 33.539062 -40.296875 34.65625 -39.765625 L 36.34375 -38.96875 L 31.703125 -29.703125 C 28.503906 -31.410156 25.46875 -32.265625 22.59375 -32.265625 C 21 -32.265625 19.867188 -32.085938 19.203125 -31.734375 C 18.535156 -31.390625 18.203125 -30.738281 18.203125 -29.78125 C 18.203125 -29.570312 18.226562 -29.359375 18.28125 -29.140625 C 18.34375 -28.929688 18.453125 -28.734375 18.609375 -28.546875 C 18.765625 -28.359375 18.910156 -28.195312 19.046875 -28.0625 C 19.179688 -27.9375 19.40625 -27.789062 19.71875 -27.625 C 20.039062 -27.46875 20.296875 -27.347656 20.484375 -27.265625 C 20.671875 -27.191406 20.976562 -27.070312 21.40625 -26.90625 C 21.832031 -26.75 22.148438 -26.628906 22.359375 -26.546875 C 22.578125 -26.472656 22.9375 -26.351562 23.4375 -26.1875 C 23.945312 -26.03125 24.332031 -25.925781 24.59375 -25.875 C 26.25 -25.394531 27.6875 -24.863281 28.90625 -24.28125 C 30.132812 -23.695312 31.425781 -22.894531 32.78125 -21.875 C 34.132812 -20.863281 35.1875 -19.585938 35.9375 -18.046875 C 36.6875 -16.503906 37.0625 -14.75 37.0625 -12.78125 C 37.0625 -3.457031 30.59375 1.203125 17.65625 1.203125 C 14.71875 1.203125 11.929688 0.75 9.296875 -0.15625 C 6.660156 -1.0625 4.757812 -1.96875 3.59375 -2.875 L 1.84375 -4.3125 L 7.59375 -13.96875 C 8.007812 -13.601562 8.5625 -13.164062 9.25 -12.65625 C 9.945312 -12.15625 11.203125 -11.460938 13.015625 -10.578125 C 14.828125 -9.703125 16.398438 -9.265625 17.734375 -9.265625 C 20.660156 -9.265625 22.125 -10.25 22.125 -12.21875 C 22.125 -13.125 21.75 -13.828125 21 -14.328125 C 20.257812 -14.835938 18.992188 -15.410156 17.203125 -16.046875 C 15.421875 -16.691406 14.023438 -17.28125 13.015625 -17.8125 C 10.460938 -19.144531 8.441406 -20.648438 6.953125 -22.328125 C 5.460938 -24.003906 4.71875 -26.222656 4.71875 -28.984375 C 4.71875 -33.140625 6.328125 -36.375 9.546875 -38.6875 C 12.765625 -41.007812 17.113281 -42.171875 22.59375 -42.171875 Z M 22.59375 -42.171875 "/></g></g></g><g clip-path="url(#6112dedb1f)"><g clip-path="url(#50119ba469)"><g clip-path="url(#7b392297fc)"><g clip-path="url(#a21bf022b9)"><path fill="#000000" d="M 266.863281 153.980469 L 250.132812 148.453125 C 249.902344 148.378906 249.65625 148.441406 249.492188 148.617188 C 249.328125 148.792969 249.28125 149.046875 249.367188 149.269531 L 256.167969 166.707031 C 256.265625 166.960938 256.523438 167.125 256.792969 167.105469 C 256.855469 167.097656 256.914062 167.085938 256.96875 167.0625 C 257.15625 166.988281 257.300781 166.824219 257.347656 166.617188 L 259.160156 158.175781 L 266.902344 155.15625 C 267.144531 155.058594 267.300781 154.820312 267.292969 154.558594 C 267.285156 154.292969 267.113281 154.0625 266.863281 153.980469 Z M 266.863281 153.980469 " fill-opacity="1" fill-rule="nonzero"/></g></g></g></g><g clip-path="url(#d58852eec2)"><g clip-path="url(#1b3a056943)"><g clip-path="url(#5521c8769c)"><g clip-path="url(#9670c10aba)"><path fill="#000000" d="M 246.089844 139.164062 C 245.773438 139.289062 245.617188 139.648438 245.742188 139.972656 L 247.554688 144.621094 C 247.679688 144.941406 248.039062 145.101562 248.355469 144.976562 C 248.675781 144.851562 248.832031 144.492188 248.707031 144.171875 L 246.890625 139.523438 C 246.765625 139.203125 246.40625 139.042969 246.089844 139.164062 Z M 246.089844 139.164062 " fill-opacity="1" fill-rule="nonzero"/></g></g></g></g><g clip-path="url(#490a7f8abc)"><g clip-path="url(#e2a116ecef)"><g clip-path="url(#18b4962065)"><g clip-path="url(#e21ab96e85)"><path fill="#000000" d="M 245.113281 150.257812 L 240.515625 152.054688 C 240.195312 152.175781 240.039062 152.539062 240.164062 152.859375 C 240.289062 153.179688 240.648438 153.339844 240.96875 153.214844 L 245.570312 151.421875 C 245.886719 151.296875 246.042969 150.9375 245.917969 150.617188 C 245.792969 150.296875 245.433594 150.136719 245.113281 150.257812 Z M 245.113281 150.257812 " fill-opacity="1" fill-rule="nonzero"/></g></g></g></g><g clip-path="url(#de1cc59853)"><g clip-path="url(#e49e7632ab)"><g clip-path="url(#38b7ac9bd2)"><g clip-path="url(#6bab37fc76)"><path fill="#000000" d="M 258.917969 144.875 L 254.316406 146.671875 C 254 146.792969 253.84375 147.15625 253.96875 147.476562 C 254.09375 147.796875 254.453125 147.957031 254.769531 147.832031 L 259.371094 146.039062 C 259.691406 145.914062 259.847656 145.554688 259.722656 145.234375 C 259.597656 144.910156 259.238281 144.753906 258.917969 144.875 Z M 258.917969 144.875 " fill-opacity="1" fill-rule="nonzero"/></g></g></g></g><g clip-path="url(#93decdee97)"><g clip-path="url(#7bd227253a)"><g clip-path="url(#809e66611a)"><g clip-path="url(#457d60784e)"><path fill="#000000" d="M 245.652344 146.457031 L 241.117188 144.4375 C 240.804688 144.300781 240.441406 144.441406 240.304688 144.757812 C 240.167969 145.070312 240.3125 145.4375 240.625 145.578125 L 245.160156 147.597656 C 245.316406 147.664062 245.488281 147.664062 245.632812 147.605469 C 245.78125 147.550781 245.90625 147.4375 245.972656 147.277344 C 246.109375 146.964844 245.964844 146.597656 245.652344 146.457031 Z M 245.652344 146.457031 " fill-opacity="1" fill-rule="nonzero"/></g></g></g></g><g clip-path="url(#9743897217)"><g clip-path="url(#5ed58c71ff)"><g clip-path="url(#56ad1ed20d)"><g clip-path="url(#80b809fd05)"><path fill="#000000" d="M 248.21875 153.035156 C 247.90625 152.894531 247.542969 153.039062 247.40625 153.351562 L 245.433594 157.90625 C 245.296875 158.222656 245.441406 158.589844 245.753906 158.730469 C 245.910156 158.796875 246.078125 158.796875 246.226562 158.742188 C 246.375 158.683594 246.5 158.570312 246.566406 158.410156 L 248.539062 153.855469 C 248.675781 153.542969 248.53125 153.171875 248.21875 153.035156 Z M 248.21875 153.035156 " fill-opacity="1" fill-rule="nonzero"/></g></g></g></g><g clip-path="url(#4940eeef51)"><g clip-path="url(#a0fa9e4581)"><g clip-path="url(#d0d1bd1c26)"><g clip-path="url(#805777fa18)"><path fill="#000000" d="M 254.132812 139.363281 C 253.820312 139.222656 253.453125 139.367188 253.320312 139.679688 L 251.347656 144.238281 C 251.210938 144.550781 251.355469 144.921875 251.667969 145.058594 C 251.824219 145.128906 251.992188 145.128906 252.140625 145.070312 C 252.289062 145.011719 252.414062 144.898438 252.480469 144.742188 L 254.453125 140.183594 C 254.589844 139.871094 254.445312 139.503906 254.132812 139.363281 Z M 254.132812 139.363281 " fill-opacity="1" fill-rule="nonzero"/></g></g></g></g></svg>