<svg xmlns="http://www.w3.org/2000/svg" xmlns:xlink="http://www.w3.org/1999/xlink" width="1920" zoomAndPan="magnify" viewBox="0 0 1440 809.999993" height="1080" preserveAspectRatio="xMidYMid meet" version="1.0"><defs><g/></defs><rect x="-144" width="1728" fill="#ffffff" y="-80.999999" height="971.999992" fill-opacity="1"/><rect x="-144" width="1728" fill="#000000" y="-80.999999" height="971.999992" fill-opacity="1"/><g fill="#f1efe7" fill-opacity="1"><g transform="translate(234.39832, 631.226824)"><g><path d="M 271.46875 -233.796875 L 323.515625 -242.421875 L 338.34375 -152.984375 L 286.296875 -144.359375 L 301.921875 -50.03125 L 206.53125 -34.21875 L 190.90625 -128.546875 L -29.171875 -92.078125 L -34.203125 -122.421875 L 127 -480.546875 L 227.8125 -497.25 Z M 154.96875 -345.359375 L 153.890625 -345.1875 L 95.3125 -204.609375 L 176.078125 -217.984375 Z M 154.96875 -345.359375 "/></g></g></g><g fill="#f1efe7" fill-opacity="1"><g transform="translate(520.443436, 576.188966)"><g><path d="M 15.390625 -226.375 C 15.390625 -301.101562 33.15625 -358.976562 68.6875 -400 C 104.21875 -441.03125 147.988281 -461.546875 200 -461.546875 C 252.019531 -461.546875 295.703125 -441.03125 331.046875 -400 C 366.398438 -358.976562 384.078125 -301.101562 384.078125 -226.375 C 384.078125 -185.71875 379.128906 -150.003906 369.234375 -119.234375 C 359.347656 -88.460938 345.703125 -64.007812 328.296875 -45.875 C 310.898438 -27.75 291.488281 -14.195312 270.0625 -5.21875 C 248.632812 3.75 225.28125 8.234375 200 8.234375 C 174.726562 8.234375 151.378906 3.75 129.953125 -5.21875 C 108.523438 -14.195312 89.019531 -27.75 71.4375 -45.875 C 53.851562 -64.007812 40.113281 -88.460938 30.21875 -119.234375 C 20.332031 -150.003906 15.390625 -185.71875 15.390625 -226.375 Z M 119.78125 -226.375 C 119.78125 -178.394531 126.738281 -142.40625 140.65625 -118.40625 C 154.582031 -94.414062 174.363281 -82.421875 200 -82.421875 C 225.28125 -82.421875 244.878906 -94.414062 258.796875 -118.40625 C 272.710938 -142.40625 279.671875 -178.394531 279.671875 -226.375 C 279.671875 -272.164062 272.617188 -307.695312 258.515625 -332.96875 C 244.421875 -358.25 224.914062 -370.890625 200 -370.890625 C 175.09375 -370.890625 155.492188 -358.160156 141.203125 -332.703125 C 126.921875 -307.242188 119.78125 -271.800781 119.78125 -226.375 Z M 119.78125 -226.375 "/></g></g></g><g fill="#f1efe7" fill-opacity="1"><g transform="translate(844.92786, 571.39877)"><g><path d="M 332.375 -133.734375 L 384.421875 -125.109375 L 369.59375 -35.671875 L 317.546875 -44.296875 L 301.921875 50.03125 L 206.53125 34.21875 L 222.15625 -60.109375 L 2.078125 -96.578125 L 7.109375 -126.921875 L 275.21875 -413.890625 L 376.03125 -397.1875 Z M 258.09375 -276.921875 L 257.015625 -277.09375 L 156.21875 -162.921875 L 236.984375 -149.546875 Z M 258.09375 -276.921875 "/></g></g></g></svg>