<svg width="200" height="200" viewBox="0 0 200 200" fill="none" xmlns="http://www.w3.org/2000/svg">
<rect width="200" height="200" fill="black"/>
<path d="M117.41 57.1277C114.865 54.9913 111.748 53.7124 108.47 53.1182C110.193 52.7652 111.866 52.1557 113.422 51.2625C117.628 48.8455 120.244 44.4155 122.033 40.0559C122.156 39.7579 121.961 39.3084 121.598 39.3056C116.318 39.2573 110.223 38.1809 105.402 40.9491C103.308 42.1518 100.621 44.2525 99.4637 46.7342C99.3432 45.8391 99.1888 45.001 99.0663 44.3084C99.0094 43.9931 98.7635 43.8445 98.4606 43.8484C97.5424 43.859 96.8075 43.9709 95.978 44.3538C95.7697 44.4493 95.6018 44.6827 95.652 44.9228C96.0368 46.7622 95.8449 48.6661 95.8468 50.5324C95.8478 51.3609 95.7658 52.7421 96.359 53.4684C90.4003 51.6117 83.2938 54.049 78.4481 57.5376C72.4788 61.8364 70.68 68.8079 70.9452 75.8468C71.2182 83.0324 73.7268 90.2122 78.016 95.978C82.4479 101.934 90.8902 106.48 97.2386 100.866C100.499 102.656 103.906 103.833 107.705 103.378C111.561 102.914 115.145 100.258 117.649 97.4238C122.592 91.8287 124.742 84.3953 124.906 77.037C125.069 69.7367 123.2 61.9878 117.41 57.1277ZM107.183 41.2809C111.356 39.512 116.262 40.2614 120.708 40.3733C118.977 44.2843 116.552 47.8684 112.865 50.1833C108.937 52.6505 103.774 52.854 99.403 51.4911C99.428 51.3947 99.4444 51.2944 99.4656 51.195C100.573 50.5835 101.54 49.7676 102.54 48.9863C104.254 47.6495 106.088 46.6667 108.074 45.8054C111.263 44.4242 114.959 43.5899 117.684 41.3378C117.778 41.2596 117.691 41.1111 117.577 41.1555C111.185 43.6015 104.738 45.9626 99.5737 50.5334C99.6306 50.0714 99.6566 49.5949 99.6499 49.1107C100.23 45.5536 104.14 42.5694 107.183 41.2809ZM99.0239 52.5434C99.4878 52.6939 99.9566 52.8231 100.427 52.9379C99.8196 53.0131 99.2168 53.1009 98.6256 53.2128C98.7808 53.0064 98.9091 52.7787 99.0239 52.5434ZM118.119 94.2622C116.089 97.2309 113.268 99.6875 109.966 101.127C105.661 103.004 101.073 101.321 97.2753 99.1088C96.5895 98.7095 95.8574 99.4223 96.031 99.9865C94.4049 100.834 92.7643 101.579 90.8883 101.747C88.6612 101.945 86.5519 101.016 84.6846 99.9151C81.7834 98.2051 79.5158 95.4061 77.7353 92.6061C74.2911 87.1875 72.5424 80.6134 72.5106 74.2188C72.4788 67.6206 74.755 61.9859 80.1967 58.0671C85.1967 54.4676 91.249 53.5812 97.2318 54.3364C97.5145 54.3721 97.6881 53.9574 97.3977 53.8387C97.2608 53.7828 97.1229 53.7326 96.9849 53.6815C96.9888 53.6738 96.9955 53.6671 96.9984 53.6584C97.365 52.5183 96.8721 50.7022 96.9107 49.4792C96.956 48.0469 97.0254 46.6011 96.793 45.1842C97.2405 45.0203 97.6312 44.9556 98.0825 44.9306C98.3758 46.6435 98.5966 48.3632 98.4568 50.1071C98.4269 50.4861 98.3314 50.8488 98.2156 51.2066C97.8781 51.3223 97.7131 51.7786 97.9224 52.064C97.8298 52.3447 97.745 52.6273 97.6938 52.9157C97.662 53.0961 97.7363 53.2571 97.8568 53.3632C97.8424 53.3671 97.8279 53.369 97.8134 53.3719C97.2955 53.4857 97.4971 54.2159 98.0015 54.1551C104.312 53.3806 110.856 53.9091 116.06 57.9012C121.507 62.0785 123.194 69.1445 123.339 75.6887C123.483 82.1981 121.814 88.8619 118.119 94.2622Z" fill="white"/>
<path d="M104.331 43.9747C103.372 44.9296 102.288 46.249 101.909 47.5704C101.873 47.6929 102.03 47.7585 102.104 47.663C102.499 47.1518 102.778 46.5461 103.115 45.9944C103.518 45.3376 103.986 44.7251 104.515 44.1647C104.632 44.0413 104.453 43.8522 104.331 43.9747Z" fill="white"/>
<path d="M109.029 41.2326C107.324 42.3418 104.993 44.2564 104.735 46.4458C104.716 46.6011 104.921 46.7419 105.034 46.5943C105.585 45.8777 105.952 45.027 106.473 44.2834C107.223 43.2118 108.167 42.2676 109.165 41.4256C109.266 41.3397 109.142 41.1593 109.029 41.2326Z" fill="white"/>
<path d="M112.547 40.2508C111.407 40.8044 110.439 41.5885 109.563 42.499C108.806 43.287 107.819 44.3721 107.624 45.4823C107.592 45.6684 107.806 45.7436 107.93 45.6327C108.674 44.9749 109.163 43.9526 109.795 43.1819C110.632 42.1586 111.636 41.2867 112.692 40.4977C112.837 40.3887 112.716 40.1698 112.547 40.2508Z" fill="white"/>
<path d="M115.147 40.0646C114.159 40.3945 113.336 41.0127 112.603 41.74C111.93 42.4103 110.893 43.5484 110.988 44.5689C110.999 44.7029 111.166 44.7917 111.279 44.7049C112.003 44.1512 112.385 43.0951 112.974 42.3881C113.636 41.5934 114.451 40.9636 115.273 40.3472C115.408 40.246 115.325 40.0048 115.147 40.0646Z" fill="white"/>
<path d="M115.913 41.5722C115.527 41.9416 115.053 42.1981 114.667 42.5695C114.615 42.6206 114.659 42.7199 114.736 42.6862C115.233 42.4692 115.69 42.1287 116.075 41.7467C116.183 41.6397 116.024 41.4661 115.913 41.5722Z" fill="white"/>
<path d="M93.0189 56.5635C90.3694 55.7813 86.5259 56.7901 84.0934 57.9157C83.9265 57.9919 84.0567 58.2272 84.2159 58.1925C84.2535 58.1838 84.2911 58.1761 84.3307 58.1674C83.643 58.5851 83.0006 59.0808 82.4074 59.6374C80.7437 60.2778 79.1976 61.1536 77.9649 62.2338C77.8241 62.3573 77.9196 62.6408 78.125 62.554C79.0972 62.1374 80.0386 61.6686 80.9886 61.2163C80.626 61.6966 80.3 62.201 80.0106 62.7276C78.071 63.8127 76.3552 65.2546 75.328 66.9628C75.2315 67.1248 75.4553 67.2936 75.5971 67.1933C76.9059 66.278 78.0421 65.1611 79.3191 64.2004C79.0413 64.9142 78.8301 65.6482 78.7008 66.3947C77.1856 67.6051 75.5662 69.403 75.2952 71.1912C75.2643 71.3995 75.517 71.4815 75.6491 71.3455C76.7525 70.2132 77.5048 68.831 78.5629 67.6437C78.5504 67.8752 78.5378 68.1057 78.5427 68.3372C78.5446 68.5311 78.8272 68.5397 78.8715 68.3613C78.9873 67.8906 79.104 67.4267 79.2236 66.9676C80.0174 66.2471 80.9076 65.6896 81.8326 65.1891C81.7323 65.843 81.7438 66.5075 81.8953 67.1595C81.8779 67.1624 81.8625 67.1634 81.8451 67.1711C78.7655 68.6111 75.6858 71.7207 75.2257 75.2286C75.192 75.488 75.6038 75.6105 75.7215 75.3781C77.4016 72.0313 78.6864 69.6615 82.0467 67.5299C82.1113 67.4894 82.1325 67.4248 82.1277 67.3611C82.1856 67.338 82.2415 67.2975 82.2599 67.2348C82.5261 66.3551 82.6736 65.4929 82.8868 64.6422C83.1269 64.5216 83.3681 64.4011 83.6082 64.2815C83.7751 64.1985 83.6439 63.9738 83.4857 64.0037C83.3334 64.0336 83.1829 64.0693 83.0334 64.1069C83.1839 63.5986 83.37 63.0932 83.6391 62.5916C83.8233 62.2512 84.0374 61.9367 84.2699 61.6387C84.947 61.3918 85.6347 61.1661 86.3253 60.9529C86.5278 60.8902 86.4555 60.5633 86.2452 60.5913C85.8459 60.6443 85.4379 60.7176 85.0222 60.8102C85.6974 60.1572 86.4738 59.6055 87.2772 59.1098C87.2965 59.0972 87.3071 59.0789 87.3148 59.0587C87.9369 58.9198 88.561 58.7867 89.1812 58.6439C89.3133 58.614 89.294 58.4124 89.158 58.4095C87.5097 58.37 85.7195 58.615 83.9873 59.1088C84.6393 58.6275 85.3299 58.1916 86.0484 57.7913C87.1991 57.5434 88.3507 57.311 89.5236 57.1431C90.6925 56.9763 91.8962 56.9994 93.0237 56.6348C93.0633 56.6223 93.0508 56.5731 93.0189 56.5635ZM81.9985 64.4406C81.1391 64.7782 80.3299 65.2382 79.5631 65.7591C79.7984 64.972 80.0743 64.2024 80.4225 63.45C81.2982 62.9061 82.2184 62.4585 83.1646 62.0669C82.6408 62.8009 82.2357 63.6063 81.9985 64.4406ZM86.3426 59.2834C85.4958 59.7184 84.6798 60.3347 83.9767 61.0774C83.0189 61.3532 82.0448 61.7168 81.1005 62.1644C81.1053 62.1605 81.1073 62.1557 81.1092 62.1509C81.4497 61.5953 81.8384 61.0918 82.2647 60.6289C82.6707 60.4495 83.0835 60.2778 83.5021 60.1215C84.4319 59.7743 85.3829 59.5139 86.3426 59.2834Z" fill="white"/>
<path d="M81.3166 70.8922C78.179 72.8308 74.8833 77.1692 75.9723 81.0735C76.0243 81.2606 76.2568 81.1989 76.3069 81.0523C76.9213 79.2139 76.9956 77.3794 77.8743 75.597C78.7298 73.8619 80.0627 72.4199 81.5645 71.2249C81.7767 71.0552 81.5404 70.7533 81.3166 70.8922Z" fill="white"/>
<path d="M80.46 75.5845C79.3142 76.8277 78.4442 78.1607 77.7719 79.7213C77.1045 81.2693 76.2876 83.8272 77.1305 85.435C77.2 85.5671 77.3697 85.5064 77.4112 85.3916C77.9407 83.8677 77.8047 82.1296 78.2928 80.5488C78.8155 78.8503 79.7376 77.255 80.814 75.8517C80.9895 75.6202 80.65 75.38 80.46 75.5845Z" fill="white"/>
<path d="M80.7571 79.9151C79.9083 80.9443 79.2698 82.0534 78.7943 83.3054C78.3121 84.5766 77.7478 86.549 78.3632 87.8366C78.4317 87.9813 78.6593 88.0179 78.7268 87.8453C79.2486 86.5249 79.1117 84.9566 79.5389 83.5687C79.9054 82.3698 80.4793 81.2433 81.1593 80.1939C81.3329 79.9257 80.9558 79.6759 80.7571 79.9151Z" fill="white"/>
<path d="M81.385 83.4462C80.2218 85.4919 78.6275 89.7348 81.2066 91.4342C81.3223 91.5114 81.4603 91.3773 81.4265 91.2558C81.2008 90.4716 80.8854 89.7299 80.7398 88.9217C80.435 87.2338 81.1256 85.1649 81.8171 83.7307C81.957 83.4404 81.5538 83.151 81.385 83.4462Z" fill="white"/>
<path d="M83.1327 91.6069C83.0614 90.3414 83.3324 89.0316 83.7606 87.8462C83.8513 87.5935 83.4559 87.3775 83.3285 87.6263C82.2734 89.6865 81.3667 93.7645 83.5832 95.4292C83.6854 95.5064 83.8542 95.4601 83.8474 95.3106C83.7847 94.0519 83.2051 92.8964 83.1327 91.6069Z" fill="white"/>
<path d="M85.6926 93.7992C85.5594 92.5965 85.8594 91.3619 86.3137 90.2566C86.4275 89.9798 86.0214 89.8418 85.8883 90.0945C85.2624 91.2838 84.9103 92.4865 84.9171 93.8455C84.9229 94.9479 85.2865 96.521 86.3503 97.0534C86.4439 97.1007 86.5847 97.039 86.5722 96.9194C86.4593 95.843 85.817 94.9074 85.6926 93.7992Z" fill="white"/>
<path d="M89.9334 97.8028C89.5399 97.1557 88.8551 96.8248 88.5108 96.115C88.1105 95.2845 88.2021 94.3277 88.4249 93.4684C88.505 93.1626 88.0633 93.0035 87.9562 93.3082C87.6379 94.2043 87.418 95.2816 87.7498 96.2104C88.0526 97.0582 88.7828 98.1501 89.8042 98.0469C89.9228 98.0343 89.998 97.9089 89.9334 97.8028Z" fill="white"/>
<path d="M92.2117 96.8663C92.0795 96.5461 91.7429 96.5085 91.5365 96.2587C91.3417 96.0214 91.3233 95.6809 91.3629 95.3896C91.4101 95.0318 90.8874 94.8698 90.8035 95.243C90.6945 95.732 90.7196 96.2104 90.9867 96.6445C91.2134 97.0119 91.7911 97.3948 92.1769 97.0389C92.2194 96.9994 92.2329 96.9203 92.2117 96.8663Z" fill="white"/>
<path d="M87.283 60.0318C85.8314 61.3841 83.5407 64.892 84.8572 66.9483C84.9238 67.0525 85.0685 67.0312 85.107 66.9165C85.4928 65.7938 85.3983 64.5563 85.7861 63.4037C86.1776 62.2376 86.8094 61.2037 87.5135 60.2054C87.6138 60.0656 87.3977 59.9248 87.283 60.0318Z" fill="white"/>
<path d="M89.1667 62.0341C89.3201 61.7998 89.0037 61.5538 88.8214 61.7699C88.1337 62.5868 87.6389 63.4626 87.3881 64.5033C87.2396 65.1186 87.176 65.9761 87.746 66.3879C87.8704 66.4786 88.0228 66.4169 88.0614 66.2693C88.1974 65.7263 88.0411 65.1534 88.1096 64.5949C88.2215 63.6796 88.669 62.7951 89.1667 62.0341Z" fill="white"/>
<path d="M89.8911 63.5253C89.5245 64.0567 89.2844 64.6287 89.3114 65.2836C89.3307 65.7369 89.6249 66.2751 90.1312 66.2548C90.2229 66.251 90.3087 66.1593 90.2942 66.0658C90.2528 65.76 90.0521 65.517 89.9856 65.216C89.8795 64.7309 90.1119 64.2207 90.3453 63.8117C90.518 63.5108 90.0888 63.2407 89.8911 63.5253Z" fill="white"/>
<path d="M91.6329 64.1657C91.2944 64.6576 91.1015 65.4591 91.4371 66.0002C91.6155 66.2896 91.9965 66.1073 92.012 65.8141C92.039 65.3193 91.8837 64.9296 92.1402 64.457C92.3225 64.1213 91.8451 63.86 91.6329 64.1657Z" fill="white"/>
<path d="M121.856 114.59H34.4551V106.768H121.856V114.59ZM35.7601 113.286H120.551V108.071H35.7601V113.286Z" fill="white"/>
<path d="M42.9349 158.054H31.412V143.928H42.9349V158.054ZM32.716 156.75H41.63V145.232H32.716V156.75Z" fill="white"/>
<path d="M46.306 107.217C43.5407 108.801 40.6848 110.804 38.4211 113.044C38.2977 113.166 38.4597 113.358 38.6044 113.276C41.3899 111.73 44.0538 109.549 46.5017 107.513C46.6744 107.369 46.5066 107.104 46.306 107.217Z" fill="white"/>
<path d="M48.5445 107.853C47.146 108.763 45.7696 109.698 44.4242 110.686C43.2311 111.563 41.8586 112.48 40.9606 113.671C40.8304 113.844 41.0204 114.039 41.2027 113.943C42.4932 113.252 43.6198 112.128 44.7617 111.212C46.0706 110.166 47.4103 109.154 48.7625 108.165C48.9612 108.019 48.75 107.719 48.5445 107.853Z" fill="white"/>
<path d="M51.7757 107.704C50.4273 108.515 49.1851 109.483 47.9785 110.492C47.0168 111.293 45.9366 112.147 45.2875 113.233C45.1959 113.386 45.3945 113.532 45.5315 113.452C46.4642 112.905 47.2155 112.078 48.0141 111.357C49.3095 110.187 50.6752 109.102 51.9927 107.961C52.1451 107.83 51.9339 107.61 51.7757 107.704Z" fill="white"/>
<path d="M54.6798 107.714C53.3903 108.511 52.1818 109.42 51.0012 110.367C49.8583 111.285 48.3556 112.385 47.6804 113.711C47.5907 113.889 47.8048 114.034 47.9553 113.944C49.241 113.193 50.2479 111.885 51.3677 110.91C52.5222 109.905 53.7221 108.959 54.8747 107.955C55.0107 107.837 54.8264 107.623 54.6798 107.714Z" fill="white"/>
<path d="M57.8424 107.353C56.4342 108.309 55.1543 109.476 53.885 110.607C52.9244 111.463 51.5779 112.374 51.086 113.597C51.0378 113.715 51.1998 113.812 51.2973 113.754C52.4479 113.065 53.3642 111.944 54.3499 111.032C55.5777 109.892 56.8596 108.815 58.1076 107.698C58.3179 107.512 58.0748 107.196 57.8424 107.353Z" fill="white"/>
<path d="M59.9614 107.857C58.7105 108.812 57.5425 109.886 56.3744 110.939C55.4302 111.791 54.3123 112.598 53.588 113.651C53.4501 113.851 53.6864 114.145 53.9092 114.016C55.1447 113.3 56.1603 112.095 57.1962 111.119C58.2234 110.15 59.2554 109.175 60.2035 108.129C60.3415 107.975 60.1273 107.73 59.9614 107.857Z" fill="white"/>
<path d="M63.4607 107.567C62.4614 108.489 61.469 109.416 60.4765 110.345C59.5448 111.22 58.2678 112.11 57.6418 113.23C57.5617 113.371 57.7325 113.555 57.88 113.488C58.8359 113.049 59.5621 112.126 60.3029 111.398C61.4863 110.237 62.6148 109.023 63.7394 107.807C63.9034 107.629 63.6304 107.411 63.4607 107.567Z" fill="white"/>
<path d="M67.4943 107.842C66.4217 108.524 65.3994 109.289 64.4561 110.142C63.7539 110.778 62.4123 111.803 62.4402 112.848C62.4431 112.967 62.5984 113.068 62.7065 113.01C63.5244 112.58 64.0963 111.459 64.7377 110.79C65.6598 109.831 66.6648 108.954 67.7421 108.174C67.9611 108.015 67.7171 107.701 67.4943 107.842Z" fill="white"/>
<path d="M72.1392 107.672C70.895 108.483 69.7424 109.41 68.6178 110.378C67.8076 111.075 66.5152 111.891 66.1689 112.954C66.1294 113.077 66.2731 113.183 66.3831 113.146C67.2733 112.853 67.9243 111.981 68.5841 111.356C69.8032 110.201 71.0474 109.002 72.418 108.024C72.6562 107.853 72.3775 107.516 72.1392 107.672Z" fill="white"/>
<path d="M76.0272 108.013C74.6971 108.82 73.4809 109.769 72.2888 110.766C71.3021 111.591 69.9315 112.527 69.3586 113.71C69.2843 113.865 69.4618 114.056 69.6219 113.98C70.6858 113.475 71.5239 112.378 72.3823 111.584C73.6169 110.441 74.8746 109.304 76.2461 108.325C76.4468 108.181 76.2355 107.887 76.0272 108.013Z" fill="white"/>
<path d="M78.8841 107.885C77.7798 108.931 76.6436 109.941 75.5537 111.002C74.7319 111.803 73.5379 112.647 73.0739 113.711C73.0132 113.852 73.1501 114.035 73.3073 113.967C74.3924 113.495 75.2585 112.276 76.0745 111.439C77.1316 110.356 78.1347 109.226 79.1744 108.13C79.3461 107.949 79.0577 107.721 78.8841 107.885Z" fill="white"/>
<path d="M82.8848 107.974C81.8788 108.143 81.032 108.94 80.2633 109.563C79.5997 110.1 78.9689 110.689 78.3516 111.277C77.9301 111.68 77.2415 112.216 77.2328 112.845C77.2309 112.942 77.3466 113.035 77.4402 113.017C77.8839 112.927 78.1385 112.552 78.4481 112.241C79.0413 111.647 79.645 111.066 80.2652 110.501C80.8439 109.971 81.4313 109.457 82.009 108.927C82.2164 108.737 82.636 108.11 82.8974 108.04C82.935 108.03 82.9224 107.968 82.8848 107.974Z" fill="white"/>
<path d="M85.8237 107.416C84.7155 108.425 83.6092 109.43 82.5193 110.458C81.6542 111.275 80.518 112.112 79.9605 113.172C79.8612 113.361 80.0203 113.649 80.2556 113.524C81.332 112.956 82.1519 111.823 82.9968 110.958C84.0481 109.881 85.0444 108.75 86.0571 107.636C86.197 107.481 85.9742 107.28 85.8237 107.416Z" fill="white"/>
<path d="M88.7105 107.413C87.7498 108.295 86.794 109.176 85.9192 110.146C85.328 110.799 84.1619 111.752 84.1532 112.68C84.1522 112.799 84.2892 112.872 84.3924 112.837C85.2257 112.546 85.8594 111.241 86.4188 110.577C87.2522 109.588 88.0865 108.598 88.9555 107.638C89.1021 107.477 88.8658 107.27 88.7105 107.413Z" fill="white"/>
<path d="M92.2493 107.255C91.1121 108.225 90.0569 109.281 89.0133 110.35C88.5205 110.856 88.0382 111.373 87.5589 111.891C87.2329 112.242 86.8799 112.499 86.9059 112.996C86.9107 113.081 86.985 113.153 87.0718 113.148C87.9399 113.094 88.7703 111.649 89.3037 111.059C90.3752 109.874 91.4555 108.696 92.4875 107.477C92.6283 107.313 92.4065 107.121 92.2493 107.255Z" fill="white"/>
<path d="M94.4763 107.83C93.5098 108.654 92.5762 109.515 91.6811 110.413C91.2509 110.844 90.1601 111.706 90.2884 112.393C90.299 112.458 90.3819 112.514 90.4475 112.505C91.0928 112.42 91.7236 111.293 92.1479 110.838C92.9957 109.93 93.8541 109.036 94.7608 108.185C94.972 107.986 94.702 107.638 94.4763 107.83Z" fill="white"/>
<path d="M98.7017 106.739C97.6022 107.585 96.5547 108.477 95.5632 109.45C94.7135 110.285 93.5638 111.28 93.1674 112.427C93.1105 112.593 93.2725 112.763 93.4365 112.657C94.4589 111.997 95.2006 110.765 96.0339 109.877C96.9656 108.885 97.9224 107.918 98.9265 106.998C99.0711 106.866 98.857 106.619 98.7017 106.739Z" fill="white"/>
<path d="M100.763 107.36C99.512 108.309 98.4057 109.389 97.3785 110.576C96.7998 111.245 95.6926 112.351 95.7582 113.311C95.7659 113.424 95.8787 113.487 95.9781 113.435C96.876 112.971 97.5502 111.508 98.1858 110.724C99.0539 109.654 100.014 108.643 101.011 107.692C101.199 107.513 100.981 107.194 100.763 107.36Z" fill="white"/>
<path d="M104.004 107.378C103.008 108.207 102.114 109.144 101.256 110.112C100.665 110.779 99.5669 111.725 99.5891 112.678C99.592 112.822 99.7492 112.866 99.8572 112.812C100.677 112.405 101.239 111.253 101.809 110.553C102.605 109.573 103.433 108.619 104.233 107.643C104.356 107.494 104.164 107.245 104.004 107.378Z" fill="white"/>
<path d="M107.504 107.676C106.44 108.479 105.487 109.404 104.598 110.396C104.007 111.056 103.13 111.892 103.151 112.83C103.153 112.929 103.281 113.023 103.372 112.953C104.15 112.351 104.667 111.374 105.299 110.614C106.061 109.698 106.878 108.81 107.769 108.019C107.978 107.835 107.73 107.505 107.504 107.676Z" fill="white"/>
<path d="M110.534 107.56C109.681 108.441 108.909 109.384 108.154 110.349C107.769 110.841 106.156 112.497 106.473 113.079C106.401 112.95 106.218 113.016 106.212 113.149C106.18 113.812 107.552 112.413 107.591 112.364C108.72 110.882 109.682 109.266 110.845 107.812C111.011 107.608 110.713 107.378 110.534 107.56Z" fill="white"/>
<path d="M113.778 107.358C112.667 108.436 111.627 109.58 110.621 110.757C110.007 111.477 108.88 112.394 108.761 113.401C108.741 113.573 108.909 113.66 109.051 113.586C109.969 113.102 110.6 111.983 111.243 111.203C112.204 110.035 113.138 108.847 114.07 107.656C114.213 107.473 113.953 107.187 113.778 107.358Z" fill="white"/>
<path d="M117.318 108.003C116.222 108.635 115.226 109.446 114.362 110.368C113.738 111.035 112.002 112.675 112.453 113.687C112.488 113.77 112.582 113.837 112.676 113.797C113.088 113.624 113.221 113.261 113.434 112.882C113.743 112.329 114.141 111.825 114.531 111.329C115.409 110.213 116.463 109.225 117.565 108.334C117.778 108.163 117.543 107.871 117.318 108.003Z" fill="white"/>
<path d="M120.245 107.432C118.981 108.39 117.894 109.521 116.847 110.709C116.127 111.523 114.824 112.636 114.688 113.76C114.673 113.888 114.796 114.021 114.932 113.964C115.984 113.519 116.732 112.024 117.432 111.152C118.397 109.949 119.411 108.781 120.423 107.62C120.534 107.492 120.377 107.332 120.245 107.432Z" fill="white"/>
<path d="M120.845 109.336C120.17 109.939 119.532 110.56 118.956 111.258C118.526 111.779 117.912 112.45 117.917 113.158C117.919 113.287 118.07 113.349 118.173 113.288C118.411 113.149 118.41 113.145 118.592 112.918C119.043 112.349 119.4 111.676 119.846 111.102C120.25 110.579 120.672 110.069 121.109 109.571C121.264 109.395 121.01 109.189 120.845 109.336Z" fill="white"/>
<path d="M42.3119 107.239C41.0397 107.863 39.8871 108.692 38.7509 109.531C37.7382 110.279 36.5441 111.057 35.8323 112.113C35.7455 112.244 35.9124 112.359 36.0291 112.308C37.1614 111.8 38.123 110.825 39.0962 110.063C40.217 109.184 41.3985 108.382 42.4893 107.468C42.6234 107.355 42.4498 107.171 42.3119 107.239Z" fill="white"/>
<path d="M39.13 107.542C38.4761 107.754 37.8607 108.007 37.2541 108.331C36.711 108.622 36.0658 108.976 35.7735 109.533C35.6848 109.703 35.8777 109.844 36.0291 109.801C36.5326 109.659 36.9551 109.254 37.3833 108.964C37.9871 108.555 38.6121 108.171 39.2477 107.814C39.3972 107.732 39.2921 107.491 39.13 107.542Z" fill="white"/>
<path d="M114.15 116.716C110.528 118.685 106.776 120.659 103.348 122.951C103.164 123.074 103.324 123.372 103.527 123.291C107.338 121.768 111.009 119.393 114.305 116.972C114.458 116.861 114.323 116.622 114.15 116.716Z" fill="white"/>
<path d="M116.029 117.639C112.937 119.587 109.373 121.243 106.581 123.608C106.446 123.722 106.532 123.991 106.726 123.912C110.126 122.55 113.34 120.126 116.283 117.975C116.506 117.813 116.256 117.496 116.029 117.639Z" fill="white"/>
<path d="M117.555 119.743C116.425 120.206 115.361 120.829 114.306 121.444C113.243 122.064 112.022 122.696 111.211 123.639C111.106 123.76 111.223 123.968 111.386 123.909C112.427 123.538 113.322 122.803 114.248 122.21C115.389 121.481 116.573 120.802 117.687 120.031C117.829 119.932 117.73 119.671 117.555 119.743Z" fill="white"/>
<path d="M120.254 120.084C119.437 120.605 118.641 121.162 117.845 121.717C117.153 122.199 116.153 122.591 115.69 123.307C115.604 123.44 115.671 123.636 115.853 123.62C116.726 123.538 117.504 122.753 118.182 122.242C118.973 121.648 119.725 121 120.448 120.325C120.579 120.203 120.4 119.989 120.254 120.084Z" fill="white"/>
<path d="M121.672 121.28C121.134 121.613 120.597 121.948 120.064 122.289C119.517 122.637 118.921 122.953 118.565 123.513C118.471 123.66 118.654 123.792 118.787 123.76C119.398 123.615 119.889 123.168 120.387 122.807C120.903 122.431 121.422 122.06 121.942 121.69C122.172 121.528 121.911 121.131 121.672 121.28Z" fill="white"/>
<path d="M75.5738 118.157C74.0162 118.938 72.5742 119.981 71.1236 120.941C69.2023 122.212 67.1585 123.407 65.4292 124.935C65.2999 125.051 65.4639 125.223 65.6028 125.161C67.4855 124.296 69.1801 123.028 70.8931 121.872C72.5347 120.764 74.2679 119.692 75.7687 118.397C75.9114 118.274 75.7214 118.083 75.5738 118.157Z" fill="white"/>
<path d="M77.5309 119.633C74.945 120.946 71.9647 122.344 69.9229 124.45C69.7994 124.578 69.9586 124.755 70.1061 124.683C72.746 123.403 75.1505 121.4 77.637 119.839C77.7624 119.76 77.665 119.565 77.5309 119.633Z" fill="white"/>
<path d="M77.4508 121.491C76.8971 121.985 76.3127 122.442 75.705 122.868C75.2112 123.214 74.6769 123.527 74.2621 123.968C74.1579 124.081 74.2669 124.251 74.4106 124.217C75.7108 123.908 76.8769 122.739 77.7565 121.795C77.9253 121.615 77.6331 121.328 77.4508 121.491Z" fill="white"/>
<path d="M72.2048 135.451C69.2399 136.775 65.9683 138.713 63.639 140.99C63.4934 141.132 63.695 141.318 63.8512 141.241C66.8142 139.811 69.6855 137.667 72.4006 135.804C72.5916 135.673 72.416 135.356 72.2048 135.451Z" fill="white"/>
<path d="M76.5471 135.034C75.1457 135.768 73.8388 136.637 72.5348 137.534C71.279 138.399 69.8582 139.281 68.9169 140.495C68.806 140.639 68.9478 140.885 69.1339 140.801C70.3897 140.226 71.4516 139.278 72.5589 138.464C73.9738 137.428 75.4042 136.419 76.7207 135.258C76.8471 135.147 76.686 134.962 76.5471 135.034Z" fill="white"/>
<path d="M78.6246 135.827C77.4055 136.411 76.2876 137.172 75.1938 137.96C74.3229 138.588 73.2639 139.245 72.7575 140.219C72.6832 140.362 72.8366 140.529 72.9842 140.472C73.9921 140.081 74.8158 139.199 75.6626 138.543C76.7207 137.722 77.825 136.962 78.8252 136.071C78.9718 135.94 78.7741 135.753 78.6246 135.827Z" fill="white"/>
<path d="M81.3118 136.433C80.7051 136.918 80.0753 137.374 79.4744 137.865C78.9217 138.316 78.1955 138.75 77.8965 139.416C77.826 139.574 77.9755 139.712 78.1299 139.67C78.8282 139.486 79.3731 138.818 79.8968 138.35C80.4688 137.838 81.008 137.293 81.5712 136.775C81.7709 136.59 81.5307 136.26 81.3118 136.433Z" fill="white"/>
<path d="M83.8156 137.204C83.4838 137.526 83.0941 137.765 82.7778 138.104C82.6919 138.194 82.7527 138.381 82.8916 138.364C83.4211 138.299 83.8387 137.974 84.2091 137.608C84.4686 137.353 84.077 136.952 83.8156 137.204Z" fill="white"/>
<path d="M53.8705 122.328C53.0536 122.995 52.2531 123.665 51.4969 124.402C50.8343 125.047 50.0231 125.715 49.6315 126.567C49.5631 126.718 49.7251 126.87 49.8698 126.783C50.6645 126.309 51.2616 125.472 51.8991 124.81C52.6205 124.062 53.3352 123.303 54.0779 122.578C54.2081 122.45 54.0152 122.212 53.8705 122.328Z" fill="white"/>
<path d="M52.9958 125.494C52.4885 125.966 51.9821 126.439 51.4757 126.913C51.0012 127.356 50.2913 127.897 50.109 128.537C50.0762 128.653 50.1997 128.751 50.3067 128.72C50.8478 128.565 51.2375 128.046 51.6223 127.659C52.201 127.077 52.7537 126.466 53.3131 125.866C53.5234 125.641 53.2321 125.274 52.9958 125.494Z" fill="white"/>
<path d="M51.5692 129.038C51.2172 129.376 50.8632 129.712 50.5025 130.039C50.1417 130.364 49.7415 130.658 49.4704 131.066C49.3913 131.187 49.5418 131.35 49.6701 131.299C50.5488 130.955 51.248 130.013 51.8885 129.348C52.064 129.165 51.7525 128.863 51.5692 129.038Z" fill="white"/>
<path d="M153.255 106.804C152.158 110.281 151.117 113.773 150.133 117.285C149.086 121.011 147.771 124.852 147.3 128.702C147.275 128.916 147.596 129.027 147.676 128.812C148.932 125.399 149.614 121.719 150.568 118.211C151.593 114.443 152.651 110.687 153.646 106.911C153.704 106.69 153.325 106.585 153.255 106.804Z" fill="white"/>
<path d="M155.063 110.824C153.768 113.936 152.81 117.204 151.868 120.437C151.017 123.364 149.887 126.479 149.744 129.543C149.737 129.705 149.988 129.755 150.051 129.61C151.283 126.811 151.812 123.627 152.652 120.69C153.579 117.447 154.638 114.225 155.373 110.934C155.414 110.753 155.136 110.647 155.063 110.824Z" fill="white"/>
<path d="M155.872 114.88C154.767 118.032 153.956 121.282 153.11 124.51C152.4 127.215 151.57 129.949 151.158 132.718C151.126 132.936 151.45 133.039 151.534 132.828C152.66 129.986 153.301 126.927 154.045 123.966C154.797 120.974 155.576 117.981 156.155 114.951C156.192 114.763 155.934 114.705 155.872 114.88Z" fill="white"/>
<path d="M156.323 121.744C154.57 125.966 152.947 131.026 152.626 135.607C152.614 135.79 152.874 135.915 152.959 135.718C153.785 133.768 154.137 131.629 154.631 129.579C155.255 126.986 155.956 124.418 156.684 121.855C156.743 121.646 156.404 121.549 156.323 121.744Z" fill="white"/>
<path d="M156.759 127.204C155.95 129.664 154.905 132.56 154.883 135.167C154.882 135.337 155.125 135.375 155.199 135.233C156.387 132.902 156.502 129.885 157.198 127.367C157.277 127.08 156.854 126.914 156.759 127.204Z" fill="white"/>
<path d="M157.212 132.509C157.026 133.12 156.834 133.728 156.665 134.343C156.533 134.819 156.375 135.326 156.471 135.817C156.506 135.998 156.734 136.05 156.827 135.88C157.055 135.454 157.105 134.957 157.215 134.492C157.36 133.878 157.543 133.274 157.709 132.667C157.8 132.342 157.309 132.184 157.212 132.509Z" fill="white"/>
<path d="M169.981 140.379C169.206 142.113 168.73 143.991 168.147 145.797C167.397 148.122 166.529 150.425 165.944 152.799C165.89 153.022 166.227 153.102 166.32 152.909C168.108 149.169 169.87 144.62 170.348 140.489C170.372 140.275 170.071 140.174 169.981 140.379Z" fill="white"/>
<path d="M171.48 143.119C169.908 146.717 168.317 150.713 167.545 154.567C167.498 154.803 167.834 154.873 167.934 154.677C169.709 151.185 170.834 147.023 171.742 143.224C171.779 143.073 171.546 142.968 171.48 143.119Z" fill="white"/>
<path d="M171.971 146.971C171.239 148.75 170.279 150.741 169.956 152.639C169.921 152.84 170.194 152.952 170.316 152.795C171.521 151.266 172.035 148.972 172.523 147.119C172.619 146.753 172.107 146.64 171.971 146.971Z" fill="white"/>
<path d="M173.184 149.054C172.842 149.719 172.594 150.452 172.455 151.188C172.435 151.29 172.565 151.409 172.649 151.31C173.158 150.714 173.249 149.914 173.558 149.215C173.666 148.972 173.304 148.821 173.184 149.054Z" fill="white"/>
<path d="M82.8154 144.351C79.8775 145.828 77.2396 148.263 74.5698 150.18C71.5943 152.319 68.5175 154.325 65.6067 156.55C65.4437 156.673 65.5912 156.918 65.7745 156.82C68.7934 155.206 71.5904 153.209 74.3711 151.22C77.2261 149.179 80.6115 147.17 82.988 144.577C83.0999 144.454 82.961 144.279 82.8154 144.351Z" fill="white"/>
<path d="M86.9512 144.315C81.5567 147.746 75.925 151.426 71.3667 155.937C71.2442 156.057 71.412 156.272 71.5567 156.173C76.8547 152.497 82.0554 148.549 87.1808 144.635C87.3852 144.48 87.1653 144.179 86.9512 144.315Z" fill="white"/>
<path d="M90.3627 145.952C86.4429 148.2 81.9821 150.989 78.9015 154.32C78.7616 154.47 78.9593 154.671 79.1252 154.58C81.0745 153.514 82.7855 152 84.5622 150.674C86.549 149.19 88.5687 147.742 90.5199 146.212C90.6713 146.094 90.5373 145.851 90.3627 145.952Z" fill="white"/>
<path d="M94.6778 145.93C92.989 147.241 91.2943 148.541 89.6286 149.88C88.1558 151.066 86.493 152.184 85.3028 153.667C85.1514 153.857 85.3877 154.059 85.5767 153.954C87.2183 153.052 88.6236 151.647 90.0559 150.449C91.7091 149.066 93.3256 147.65 94.9199 146.202C95.0742 146.062 94.8408 145.804 94.6778 145.93Z" fill="white"/>
<path d="M97.0525 147.835C95.9288 148.546 94.8611 149.317 93.8281 150.154C92.9881 150.835 91.9088 151.616 91.415 152.592C91.332 152.756 91.5162 152.882 91.658 152.812C92.6466 152.324 93.4259 151.357 94.2438 150.636C95.2276 149.767 96.2655 148.954 97.3312 148.187C97.5695 148.013 97.2907 147.682 97.0525 147.835Z" fill="white"/>
<path d="M98.0324 150.346C97.501 150.699 96.8711 151.053 96.5577 151.628C96.4699 151.788 96.6618 151.918 96.8017 151.847C97.3283 151.577 97.7855 151.144 98.2793 150.815C98.561 150.627 98.3169 150.156 98.0324 150.346Z" fill="white"/>
<path d="M138.724 145.259C137.053 145.693 135.495 147.508 134.225 148.562C131.978 150.427 129.717 152.314 127.593 154.317C127.434 154.466 127.662 154.677 127.829 154.585C129.958 153.407 131.821 151.593 133.663 150.022C135.316 148.612 137.441 146.956 138.62 145.409C138.583 145.458 138.653 145.515 138.694 145.47C138.741 145.418 138.796 145.375 138.796 145.304C138.797 145.266 138.754 145.252 138.724 145.259Z" fill="white"/>
<path d="M138.907 147.405C136.245 148.935 133.365 151.112 131.416 153.501C131.251 153.704 131.52 153.919 131.715 153.802C133.004 153.032 134.116 151.968 135.255 150.997C136.548 149.896 137.864 148.815 139.079 147.629C139.197 147.514 139.046 147.324 138.907 147.405Z" fill="white"/>
<path d="M138.382 150.259C137.692 150.781 137.013 151.311 136.343 151.857C135.855 152.256 135.325 152.659 134.969 153.186C134.869 153.333 134.996 153.588 135.191 153.495C135.851 153.184 136.394 152.643 136.933 152.16C137.518 151.635 138.082 151.092 138.648 150.544C138.811 150.387 138.555 150.127 138.382 150.259Z" fill="white"/>
<path d="M57.4151 147.076C55.3665 148.356 53.4664 149.893 51.5441 151.353C50.2208 152.357 48.4452 153.358 47.4295 154.694C47.3659 154.777 47.4614 154.901 47.5569 154.873C48.9911 154.463 50.3202 153.055 51.4882 152.176C53.5628 150.613 55.6645 149.04 57.6041 147.313C57.7363 147.196 57.5598 146.986 57.4151 147.076Z" fill="white"/>
<path d="M54.0451 147.08C52.7835 147.885 51.5499 148.733 50.326 149.593C49.563 150.129 48.4297 150.657 47.8732 151.424C47.7874 151.541 47.853 151.754 48.0275 151.727C49.0499 151.564 50.1205 150.521 50.9423 149.945C52.0871 149.14 53.2175 148.285 54.2235 147.309C54.3422 147.194 54.1859 146.992 54.0451 147.08Z" fill="white"/>
<path d="M51.1709 147.203C50.0511 147.608 49.158 148.565 48.0806 149.088C47.8163 149.216 47.9938 149.615 48.2658 149.503C49.3528 149.054 50.5594 148.369 51.3561 147.483C51.4689 147.355 51.3368 147.143 51.1709 147.203Z" fill="white"/>
<path d="M42.1287 144.488C38.7558 146.361 35.3964 148.912 32.6129 151.588C32.4643 151.73 32.6775 151.957 32.8415 151.853C36.1092 149.759 39.4416 147.313 42.3582 144.753C42.5184 144.613 42.2917 144.399 42.1287 144.488Z" fill="white"/>
<path d="M41.9686 146.417C38.9526 148.659 35.8382 150.935 33.1096 153.523C32.9736 153.653 33.1588 153.856 33.3102 153.768C36.5818 151.903 39.4512 149.235 42.1972 146.681C42.3457 146.544 42.1268 146.299 41.9686 146.417Z" fill="white"/>
<path d="M40.0222 150.581C38.5938 151.611 36.8856 152.402 35.653 153.671C35.5179 153.809 35.6925 154.039 35.8632 153.971C37.5077 153.317 38.9034 152.012 40.2517 150.901C40.4466 150.741 40.2305 150.432 40.0222 150.581Z" fill="white"/>
<path d="M64.8428 136.699C65.192 134.46 64.8245 131.98 64.756 129.751C64.6682 126.891 64.9412 123.964 64.6345 121.122C64.594 120.751 64.1426 120.721 63.9969 121.02C62.3119 120.767 60.5401 120.913 58.8436 120.946C56.7853 120.987 54.4965 120.815 52.5405 121.528C52.4817 121.549 52.4566 121.601 52.4479 121.657C52.4036 121.666 52.3611 121.687 52.3322 121.725C51.7226 122.525 51.9686 123.794 52.0014 124.736C52.065 126.571 52.147 128.407 52.2599 130.24C52.365 131.97 52.4798 133.699 52.5916 135.428C52.6418 136.208 52.5251 137.113 53.0816 137.726C53.1896 137.843 53.4385 137.846 53.5369 137.712C53.5947 137.633 53.643 137.544 53.6883 137.451C57.121 138.216 61.0417 137.871 64.5158 137.91C65.2074 137.918 65.2691 137.074 64.8428 136.699ZM53.9198 136.705C54.2265 134.976 53.5764 132.249 53.4992 130.921C53.4047 129.282 53.2986 127.646 53.2012 126.008C53.1279 124.809 53.3787 122.962 52.7219 121.895C54.4329 122.323 56.2828 122.11 58.0334 122.084C59.9094 122.058 61.8326 122.216 63.7085 122.091C63.2465 124.283 63.3999 126.63 63.4337 128.844C63.4722 131.297 63.2755 134.056 63.7047 136.522C60.516 136.512 57.067 136.233 53.9198 136.705Z" fill="white"/>
<mask id="mask0_817_1043" style="mask-type:luminance" maskUnits="userSpaceOnUse" x="131" y="83" width="47" height="78">
<path d="M131.358 83.2099H177.266V160.247H131.358V83.2099Z" fill="white" />
</mask>
<g mask="url(#mask0_817_1043)">
<path d="M177.064 153.928C173.554 142.312 168.245 131.1 163.423 119.987C160.883 114.133 158.337 108.28 155.876 102.392C153.385 96.4352 151.509 89.7888 148.379 84.1454C148.394 83.7837 148.151 83.3806 147.68 83.3729C142.02 83.2764 134.722 85.4899 131.489 90.4813C131.302 90.7697 131.715 91.115 131.98 90.923C132.036 90.8835 132.09 90.8459 132.146 90.8053C133.193 97.009 136.428 103.138 138.84 108.872C141.576 115.378 144.063 121.984 146.742 128.513C149.306 134.759 151.932 140.978 154.525 147.212C155.437 149.403 156.302 151.616 157.136 153.838C157.794 155.588 158.16 157.56 159.087 159.181C159.282 159.524 159.799 159.312 159.846 158.98C159.857 158.898 159.854 158.816 159.86 158.733C162.152 160.603 165.878 160.066 168.492 159.285C170.733 158.617 174.801 156.94 176.201 154.65C176.634 154.852 177.244 154.524 177.064 153.928ZM173.499 155.036C172.077 156.117 170.456 156.902 168.807 157.565C165.642 158.837 162.985 158.484 159.834 157.794C159.662 156.547 159.055 155.297 158.652 154.155C157.847 151.873 156.957 149.622 156.061 147.376C153.476 140.9 150.666 134.512 147.985 128.075C145.415 121.906 143.058 115.653 140.494 109.48C139.215 106.4 137.916 103.33 136.673 100.235C135.362 96.9685 134.328 93.5108 132.807 90.3347C137.476 87.0476 141.791 84.782 147.8 84.7087C147.824 84.7087 147.84 84.6971 147.862 84.6952C148.914 90.1852 151.651 95.6597 153.756 100.786C156.32 107.033 159.017 113.225 161.704 119.42C164.246 125.28 166.782 131.14 169.226 137.041C171.478 142.479 173.355 148.066 175.56 153.517C174.778 153.878 174.199 154.503 173.499 155.036Z" fill="white"/>
</g>
<path d="M151.053 100.488C151.145 100.421 151.209 100.307 151.185 100.175C150.458 96.0214 148.43 91.3166 146.154 87.7083C146.168 87.6987 146.184 87.6919 146.198 87.6813C146.386 87.5531 146.347 87.2637 146.099 87.2425C144.018 87.0679 141.851 88.1289 139.986 88.9381C138.775 89.4637 136.853 90.108 136.097 91.3021C136.097 91.3011 136.096 91.2992 136.095 91.2982C135.948 91.1053 135.622 91.2915 135.685 91.5143C136.326 93.7838 137.436 95.9076 138.42 98.045C139.42 100.221 140.283 102.537 141.626 104.531C141.451 104.78 141.568 105.195 141.915 105.216C141.983 105.22 142.053 105.211 142.122 105.211C142.195 105.277 142.293 105.263 142.362 105.204C144.037 105.115 145.878 104.029 147.335 103.389C148.407 102.919 150.824 102.268 151.336 101.115C151.44 100.882 151.276 100.59 151.053 100.488ZM145.981 102.403C144.789 102.955 143.352 103.382 142.207 104.097C141.738 102.432 140.985 100.867 140.263 99.2872C139.145 96.8393 138.111 94.2303 136.586 91.9917C137.032 91.9126 137.357 91.6956 137.831 91.4246C138.845 90.8459 139.923 90.3781 140.991 89.9084C142.432 89.2747 144.062 88.8667 145.465 88.1173C146.738 92.2406 148.551 96.6821 150.649 100.403C150.652 100.41 150.657 100.412 150.66 100.417C149.955 100.422 149.156 100.946 148.579 101.209C147.712 101.605 146.846 102.001 145.981 102.403Z" fill="white"/>
<path d="M146.713 148.355C146.593 145.6 145.425 141.785 142.537 140.994C142.573 140.857 142.611 140.72 142.645 140.584C142.778 140.412 142.817 140.17 142.78 139.946C143.411 136.616 142.883 132.747 142.919 129.45C142.964 125.446 143.016 121.149 142.138 117.222C142.1 117.049 141.977 116.937 141.836 116.886C141.777 116.726 141.648 116.596 141.422 116.563C138.184 116.099 134.773 116.332 131.507 116.341C129.169 116.346 126.744 116.25 124.397 116.518C124.359 116.49 124.314 116.466 124.261 116.453C124.22 116.441 124.177 116.436 124.136 116.426C124.548 115.013 124.332 113.35 124.348 111.894C124.373 109.683 124.678 107.088 124.133 104.891C124.173 104.721 124.136 104.542 124.014 104.425C124.012 104.419 124.011 104.414 124.01 104.407C123.922 104.131 123.592 104.119 123.43 104.301C108.627 104.035 47.6515 104.689 31.9744 104.447C31.8615 104.445 31.7824 104.498 31.7304 104.571C31.5519 104.351 31.1468 104.383 31.0813 104.724C30.6193 107.109 30.7755 109.687 30.7282 112.111C30.7003 113.503 30.0608 116.067 30.9713 117.214C31.0224 117.281 31.1073 117.302 31.1902 117.294C31.1806 117.489 31.2886 117.683 31.5249 117.693C33.3469 117.763 39.5043 117.812 47.8347 117.836C47.6206 121.688 47.8386 125.601 47.7595 129.459C47.6814 133.296 47.5434 137.133 47.4808 140.971C46.9252 141.002 46.3696 141.038 45.8179 141.042C43.2948 141.063 40.7726 141.201 38.2514 141.307C33.6295 141.502 29.0404 141.247 24.4271 141.312C24.0732 141.318 24.0452 141.808 24.3635 141.905C27.8183 142.949 31.5596 142.852 35.1312 142.794C37.6794 142.751 40.2277 142.624 42.7759 142.54C45.0772 142.463 47.6206 142.738 49.9152 142.3C52.3679 142.802 55.0531 142.741 57.4663 142.764C61.1825 142.798 64.9007 142.578 68.6092 142.363C76.3455 141.912 84.0288 141.789 91.7776 141.751C108.508 141.667 125.228 141.264 141.949 140.814C141.953 140.834 141.954 140.856 141.957 140.876C141.742 140.851 141.52 140.837 141.29 140.844C141.075 140.851 140.974 141.119 141.16 141.246C146.938 145.226 145.735 153.566 143.295 159.315C123.967 158.729 104.622 159.056 85.2875 158.996C75.2672 158.964 65.2759 159.058 55.2624 159.44C45.1881 159.824 35.219 159.563 25.1553 159.444C25.1891 159.383 25.2122 159.313 25.2142 159.229C25.2826 156.686 24.6557 154.041 24.6306 151.46C24.6027 148.424 24.7522 145.322 24.8602 142.299C24.8612 142.289 24.8438 142.28 24.8361 142.291C23.2765 144.454 23.3662 147.283 23.2678 149.867C23.1627 152.653 22.8309 156.922 24.2554 159.426C24.3008 159.504 24.3644 159.559 24.4348 159.604C24.2574 159.822 24.2998 160.187 24.6731 160.253C33.6131 161.814 122.913 160.083 143.347 160.758C143.633 160.769 143.851 160.636 143.986 160.448C144.212 160.429 144.43 160.305 144.551 160.035C146.186 156.39 146.886 152.334 146.713 148.355ZM31.6059 116.886C32.2898 115.68 31.8509 113.346 31.8654 112.111C31.8934 109.808 32.0988 107.392 31.848 105.094C31.8731 105.104 31.8972 105.12 31.9271 105.123C39.1899 106.374 116.232 105.058 123.187 105.263C122.89 107.214 123.126 109.381 123.117 111.308C123.111 112.844 122.822 114.673 123.177 116.206C123.168 116.209 123.159 116.216 123.149 116.219C120.25 115.709 117.077 115.965 114.176 115.945C110.05 115.916 105.925 115.893 101.799 115.83C93.8407 115.709 85.8835 115.559 77.9244 115.576C69.9933 115.591 62.0651 115.839 54.1378 116.042C46.6638 116.232 39.0461 116.13 31.6059 116.886ZM141.807 139.393C134.17 139.235 126.482 139.755 118.848 139.963C110.522 140.191 102.192 140.271 93.8648 140.319C86.0697 140.365 78.3218 140.397 70.5402 140.913C66.8239 141.16 63.1096 141.399 59.3866 141.493C56.551 141.565 53.696 141.257 50.8633 141.168C50.8189 141.14 50.7697 141.116 50.7099 141.103C50.0589 140.958 49.3934 140.921 48.725 140.927C48.9786 133.375 49.9923 125.329 48.9478 117.839C72.9215 117.902 113.394 117.774 122.467 117.434C122.515 117.478 122.575 117.513 122.659 117.527C125.615 118.001 128.708 117.765 131.695 117.765C134.846 117.765 138.078 118.062 141.216 117.77C141.015 121.272 141.429 124.946 141.748 128.422C142.076 132.001 141.57 135.798 141.807 139.393Z" fill="white"/>
<path d="M42.8752 151.806C42.7228 149.471 43.1086 147.01 42.8356 144.708C42.9475 144.577 42.9581 144.348 42.7729 144.27C41.3349 143.657 39.6769 143.825 38.1356 143.827C36.2654 143.831 34.2052 143.704 32.3621 144.129C32.2145 143.962 31.9203 144.039 31.8547 144.266C31.6425 144.356 31.63 144.647 31.8268 144.753C31.7573 147.134 32.0515 149.555 32.0901 151.938C32.1171 153.619 31.5972 155.895 32.2232 157.473C32.2193 157.542 32.256 157.614 32.3283 157.65C33.5744 158.269 35.1533 157.992 36.5143 157.964C38.4471 157.924 40.3781 157.879 42.31 157.912C42.5145 157.916 42.6543 157.821 42.743 157.691C42.8617 157.699 42.9822 157.639 43.0199 157.497C43.4867 155.721 42.9948 153.619 42.8752 151.806ZM37.282 156.906C35.8391 156.953 34.0625 156.719 32.6688 157.203C33.3989 155.548 33.0092 152.935 33.0073 151.225C33.0035 149.181 33.0469 146.957 32.5964 144.933C34.156 145.176 35.7928 144.995 37.3601 144.97C38.9718 144.945 40.7504 145.215 42.3399 144.878C41.4969 146.431 41.6946 148.499 41.7699 150.194C41.8615 152.276 41.8422 154.735 42.3187 156.818C40.6385 156.807 38.9612 156.852 37.282 156.906Z" fill="white"/>
<path d="M139.876 151.909C139.892 149.433 140.153 146.841 139.748 144.39C139.721 144.229 139.585 144.166 139.448 144.177C139.368 143.981 139.187 143.821 138.92 143.848C131.709 144.625 124.348 144.062 117.106 144.098C109.416 144.138 101.727 144.37 94.0383 144.527C86.3261 144.686 78.6226 144.697 70.9124 144.509C63.2783 144.324 55.434 143.678 47.8173 144.392C47.7469 144.034 47.1942 144.002 47.1238 144.39C46.764 146.408 46.9357 148.475 47.0765 150.508C47.2444 152.952 47.0621 155.558 47.4025 157.961C47.4083 157.995 47.4276 158.016 47.4459 158.039C47.362 158.274 47.5202 158.577 47.825 158.567C63.3873 158.016 76.9849 157.824 91.5634 157.571C107.273 157.299 122.981 157.431 138.687 157.217C138.745 157.216 138.794 157.2 138.843 157.185C138.879 157.32 138.911 157.459 138.958 157.586C139.064 157.868 139.519 157.935 139.64 157.621C140.271 155.988 139.866 153.64 139.876 151.909ZM90.4648 156.525C83.0883 156.653 56.7418 157.529 47.8395 157.794C48.2841 156.287 48.152 154.57 48.1201 153.014C48.0661 150.399 48.068 147.753 47.8761 145.14C55.5169 145.537 63.231 145.381 70.8844 145.589C78.5908 145.799 86.2934 145.743 94.0007 145.585C101.687 145.426 109.371 145.196 117.059 145.132C124.384 145.07 131.777 145.565 139.075 144.818C138.628 147.116 138.785 149.569 138.768 151.894C138.758 153.187 138.525 154.821 138.667 156.247C122.588 155.971 106.543 156.246 90.4648 156.525Z" fill="white"/>
<path d="M138.019 124.577C137.887 123.939 137.113 124.068 136.867 124.542C133.387 123.73 129.266 124.219 125.75 124.145C119.212 124.011 112.674 123.943 106.134 123.898C99.5988 123.851 93.0623 123.835 86.5268 123.833C80.407 123.831 74.1763 123.528 68.0749 124.057C67.7469 124.087 67.7209 124.478 67.9668 124.6C67.5753 126.042 67.4614 127.544 67.1335 129.001C67.0399 129.413 67.3428 129.689 67.7624 129.678C81.2153 129.306 126.165 129.761 137.747 129.369C138.132 129.356 138.33 129.018 138.349 128.676C138.424 127.292 138.299 125.933 138.019 124.577ZM68.2871 128.524C68.4944 127.252 68.6063 125.972 68.723 124.687C74.6133 125.225 80.6424 124.985 86.5481 125.012C93.0864 125.041 99.6248 125.052 106.163 125.091C112.316 125.125 118.466 125.192 124.618 125.302C128.665 125.374 132.84 125.724 136.888 125.514C137.026 126.367 137.085 127.227 137.072 128.089C125.698 128.439 81.0697 128.138 68.2871 128.524Z" fill="white"/>
<path d="M138.826 133C138.818 132.379 138.846 131.669 138.66 131.051C138.857 130.768 138.66 130.25 138.207 130.306C132.109 131.055 125.891 130.742 119.763 130.614C113.29 130.481 106.816 130.351 100.342 130.339C94.6441 130.326 88.9545 130.357 83.2562 130.242C78.2986 130.142 73.0083 129.703 68.0961 130.499H68.0942C68.0845 130.501 68.0749 130.501 68.0662 130.503C68.0633 130.503 68.0623 130.504 68.0604 130.505C67.8762 130.528 67.6891 130.649 67.6418 130.849C67.3843 131.953 67.3746 133.277 67.5589 134.416C67.3177 134.606 67.4335 135.065 67.8193 135.071C80.4804 135.301 93.1771 135.034 105.845 135.124C111.852 135.168 117.859 135.248 123.865 135.332C128.388 135.395 133.111 135.873 137.619 135.574C137.806 135.561 137.909 135.465 137.953 135.343C138.207 135.561 138.668 135.545 138.758 135.154C138.915 134.455 138.835 133.71 138.826 133ZM137.605 134.706C134.048 133.808 129.779 134.324 126.129 134.27C119.752 134.174 113.375 134.091 106.997 134.05C100.519 134.008 94.0413 134.019 87.5637 133.974C81.2481 133.929 74.8322 133.71 68.5292 134.271C68.5022 133.129 68.4761 131.994 68.4751 130.85C68.4751 130.821 68.4655 130.801 68.4607 130.775C73.3054 131.345 78.3498 131.194 83.2186 131.296C88.9179 131.417 94.6084 131.4 100.309 131.403C106.774 131.407 113.238 131.528 119.703 131.611C125.735 131.69 131.844 131.97 137.851 131.276C137.732 131.828 137.752 132.435 137.744 132.973C137.736 133.56 137.68 134.181 137.752 134.772C137.708 134.743 137.658 134.72 137.605 134.706Z" fill="white"/>
</svg>
