<svg xmlns="http://www.w3.org/2000/svg" xmlns:xlink="http://www.w3.org/1999/xlink" width="1080" zoomAndPan="magnify" viewBox="0 0 810 809.999993" height="1080" preserveAspectRatio="xMidYMid meet" version="1.0"><defs><clipPath id="fc9f422bca"><path d="M 121 699 L 150 699 L 150 723.792969 L 121 723.792969 Z M 121 699 " clip-rule="nonzero"/></clipPath></defs><rect x="-81" width="972" fill="#ffffff" y="-80.999999" height="971.999992" fill-opacity="1"/><rect x="-81" width="972" fill="#ffffff" y="-80.999999" height="971.999992" fill-opacity="1"/><path fill="#000000" d="M 88.589844 696.375 C 86.1875 697.222656 84 697.703125 82.015625 697.683594 C 80.03125 697.660156 78.292969 697.289062 76.835938 696.65625 C 73.910156 695.394531 72.101562 693.082031 71.484375 690.464844 C 70.867188 687.855469 71.410156 684.9375 73.199219 682.472656 C 74.089844 681.234375 75.296875 680.109375 76.851562 679.1875 C 78.398438 678.261719 80.253906 677.382812 82.515625 676.855469 C 85.734375 676.167969 89.753906 674.820312 90.644531 677.3125 C 93.433594 685.246094 95.363281 689.046875 95.390625 691.367188 C 95.402344 692.523438 94.933594 693.316406 93.851562 694.066406 C 92.777344 694.84375 91.066406 695.492188 88.589844 696.375 " fill-opacity="1" fill-rule="nonzero"/><path fill="#000000" d="M 121.800781 687.039062 C 117.382812 687.621094 113.980469 688.050781 111.414062 688.578125 C 108.828125 689.0625 106.96875 689.394531 105.65625 689.6875 C 103.015625 690.234375 102.425781 690.289062 101.835938 688.777344 C 96.308594 674.496094 95.785156 674.347656 97.117188 673.070312 C 98.589844 671.671875 100.003906 670.371094 101.382812 669.175781 C 102.746094 667.941406 104.050781 666.742188 105.355469 665.679688 C 106.648438 664.597656 107.957031 663.675781 109.222656 662.75 C 110.484375 661.816406 111.753906 660.984375 113.050781 660.25 C 115.664062 658.835938 118.277344 657.617188 121.164062 656.804688 C 124.082031 656.050781 127.136719 655.460938 130.632812 655.257812 C 134.769531 655.0625 138.042969 655.285156 140.679688 656.15625 C 143.304688 657 145.226562 658.378906 146.425781 660.128906 C 147.769531 662.089844 148.210938 664.511719 147.769531 667.164062 C 147.320312 669.792969 146.054688 672.753906 143.832031 675.40625 C 141.636719 678.101562 138.671875 680.78125 134.898438 682.777344 C 133.015625 683.785156 131.019531 684.777344 128.804688 685.460938 C 126.597656 686.152344 124.25 686.691406 121.800781 687.039062 " fill-opacity="1" fill-rule="nonzero"/><g clip-path="url(#fc9f422bca)"><path fill="#000000" d="M 132.882812 701.710938 C 127.832031 704.058594 124.5 706.789062 122.71875 709.769531 C 120.945312 712.742188 120.652344 715.777344 121.691406 718.242188 C 122.738281 720.730469 125.128906 722.640625 128.628906 723.167969 C 132.121094 723.691406 136.828125 723.003906 142.078125 719.96875 C 143.933594 718.90625 146.097656 717.761719 147.578125 716.492188 C 149.058594 715.222656 149.921875 713.945312 149.285156 712.792969 C 145.253906 705.417969 143.753906 701.410156 141.96875 699.894531 C 140.179688 698.367188 138.164062 699.402344 132.882812 701.710938 " fill-opacity="1" fill-rule="nonzero"/></g><path fill="#000000" d="M 162.832031 679.734375 C 159.933594 683.425781 157.457031 686.140625 155.46875 688.207031 C 153.421875 690.183594 151.851562 691.507812 150.734375 692.472656 C 148.492188 694.398438 148.03125 694.878906 148.851562 696.277344 C 156.597656 709.484375 156.277344 710.070312 158.5 709.519531 C 163.386719 708.296875 167.910156 707.011719 171.921875 705.308594 C 173.953125 704.484375 175.886719 703.613281 177.738281 702.6875 C 179.566406 701.730469 181.28125 700.671875 182.925781 699.570312 C 184.570312 698.464844 186.140625 697.292969 187.628906 696.042969 C 189.074219 694.742188 190.441406 693.355469 191.738281 691.890625 C 193.035156 690.421875 194.257812 688.867188 195.40625 687.210938 C 196.511719 685.503906 197.546875 683.699219 198.511719 681.785156 C 199.640625 679.53125 200.484375 677.5 201.019531 675.621094 C 201.535156 673.722656 201.792969 672.019531 201.820312 670.515625 C 201.878906 667.507812 201.03125 665.265625 199.574219 663.726562 C 197.941406 662.003906 195.539062 661.152344 192.734375 661.085938 C 191.332031 661.054688 189.828125 661.222656 188.261719 661.582031 C 186.679688 661.917969 184.996094 662.410156 183.304688 663.109375 C 181.609375 663.800781 179.882812 664.675781 178.164062 665.746094 C 176.414062 666.777344 174.632812 667.953125 172.898438 669.34375 C 169.476562 672.183594 165.949219 675.476562 162.832031 679.734375 " fill-opacity="1" fill-rule="nonzero"/><path fill="#000000" d="M 190.425781 631.78125 C 188.835938 633.785156 187.039062 635.167969 185.332031 636.171875 C 183.621094 637.171875 181.941406 637.738281 180.371094 637.9375 C 177.1875 638.304688 174.40625 637.160156 172.566406 635.214844 C 170.714844 633.253906 169.785156 630.511719 170.125 627.480469 C 170.277344 625.941406 170.753906 624.335938 171.625 622.730469 C 172.492188 621.113281 173.804688 619.546875 175.445312 617.875 C 177.808594 615.558594 180.828125 612.542969 182.773438 614.210938 C 195.449219 625.183594 197.144531 623.640625 190.425781 631.78125 " fill-opacity="1" fill-rule="nonzero"/><path fill="#000000" d="M 214.65625 607.164062 C 207.539062 612.523438 203.921875 615.636719 201.957031 617.488281 C 199.964844 619.300781 199.402344 619.582031 198.164062 618.574219 C 186.285156 608.914062 185.746094 609.039062 186.3125 607.292969 C 187.453125 603.363281 188.625 599.917969 189.832031 596.757812 C 190.96875 593.542969 192.375 590.796875 193.855469 588.195312 C 195.316406 585.574219 197.183594 583.335938 199.246094 581.152344 C 201.289062 578.960938 203.867188 577.050781 206.757812 575.101562 C 210.148438 572.8125 213.300781 571.488281 216 570.929688 C 218.675781 570.355469 221.007812 570.613281 222.910156 571.554688 C 225.039062 572.605469 226.628906 574.515625 227.570312 577.0625 C 228.476562 579.589844 228.660156 582.707031 228.132812 586.175781 C 228 587.039062 227.828125 587.925781 227.59375 588.824219 C 227.335938 589.707031 227.035156 590.605469 226.683594 591.511719 C 225.976562 593.324219 225.082031 595.171875 223.992188 597.007812 C 222.90625 598.84375 221.492188 600.589844 219.960938 602.316406 C 218.40625 604.03125 216.699219 605.707031 214.65625 607.164062 " fill-opacity="1" fill-rule="nonzero"/><path fill="#000000" d="M 231.574219 614.472656 C 228.21875 618.917969 226.824219 623.042969 226.71875 626.488281 C 226.582031 629.894531 227.839844 632.683594 229.976562 634.320312 C 232.101562 635.953125 235.117188 636.425781 238.484375 635.203125 C 241.808594 633.964844 245.394531 630.945312 248.582031 625.8125 C 250.71875 622.125 253.535156 617.417969 251.296875 616.046875 C 237.011719 607.171875 238.226562 605.113281 231.574219 614.472656 " fill-opacity="1" fill-rule="nonzero"/><path fill="#000000" d="M 246.777344 580.625 C 246.4375 582.949219 246.085938 585.015625 245.722656 586.847656 C 245.304688 588.652344 244.890625 590.222656 244.507812 591.597656 C 243.722656 594.335938 243.066406 596.285156 242.554688 597.667969 C 241.496094 600.414062 241.324219 601.050781 242.722656 601.867188 C 255.960938 609.554688 255.957031 610.21875 257.660156 608.675781 C 259.554688 606.992188 261.222656 605.265625 262.816406 603.566406 C 264.40625 601.867188 265.902344 600.179688 267.296875 598.496094 C 269.988281 595.085938 272.214844 591.660156 274.070312 588.179688 C 275.796875 584.640625 277.109375 581.023438 278 577.25 C 278.773438 573.425781 279.109375 569.433594 279 565.195312 C 278.453125 555.136719 275.253906 550.234375 271.171875 548.925781 C 266.703125 547.511719 261.113281 550.484375 256.648438 556.207031 C 254.316406 559.039062 252.230469 562.578125 250.570312 566.6875 C 248.777344 570.75 247.609375 575.480469 246.777344 580.625 " fill-opacity="1" fill-rule="nonzero"/><path fill="#000000" d="M 247.808594 525.273438 C 247.273438 527.78125 246.46875 529.890625 245.480469 531.605469 C 244.421875 533.296875 243.191406 534.597656 241.882812 535.527344 C 239.269531 537.386719 236.339844 537.75 233.78125 536.925781 C 231.230469 536.105469 229.035156 534.117188 227.875 531.273438 C 227.296875 529.847656 226.976562 528.207031 227.011719 526.371094 C 226.972656 524.511719 227.269531 522.457031 228.007812 520.203125 C 229.132812 517.042969 230.09375 512.851562 232.699219 513.417969 C 240.90625 515.238281 245.15625 515.601562 247.132812 516.808594 C 248.125 517.414062 248.542969 518.230469 248.605469 519.550781 C 248.636719 520.210938 248.578125 520.996094 248.457031 521.945312 C 248.316406 522.886719 248.074219 523.980469 247.808594 525.273438 " fill-opacity="1" fill-rule="nonzero"/><path fill="#000000" d="M 257.558594 492.039062 C 255.660156 496.085938 254.226562 499.207031 253.292969 501.667969 C 252.320312 504.125 251.613281 505.882812 251.160156 507.15625 C 250.21875 509.695312 249.945312 510.226562 248.355469 509.921875 C 233.324219 507.035156 232.917969 507.40625 232.546875 505.578125 C 232.148438 503.5625 231.808594 501.648438 231.535156 499.820312 C 231.222656 497.984375 230.90625 496.226562 230.707031 494.535156 C 230.492188 492.84375 230.394531 491.222656 230.316406 489.644531 C 230.203125 488.0625 230.179688 486.53125 230.257812 485.027344 C 230.324219 483.527344 230.53125 482.0625 230.761719 480.605469 C 230.976562 479.148438 231.292969 477.707031 231.722656 476.261719 C 232.152344 474.816406 232.71875 473.375 233.363281 471.894531 C 233.976562 470.40625 234.710938 468.890625 235.578125 467.339844 C 239.539062 459.960938 244.011719 456.503906 248.269531 456.457031 C 253.015625 456.375 257.414062 460.496094 259.664062 467.160156 C 260.199219 468.8125 260.613281 470.632812 260.871094 472.566406 C 261.113281 474.5 261.121094 476.546875 261 478.683594 C 260.8125 482.953125 259.589844 487.519531 257.558594 492.039062 " fill-opacity="1" fill-rule="nonzero"/><path fill="#000000" d="M 275.878906 490.554688 C 275.160156 496.070312 275.664062 500.328125 277.246094 503.417969 C 278.8125 506.496094 281.226562 508.351562 283.867188 508.785156 C 286.523438 509.222656 289.417969 508.230469 291.726562 505.570312 C 294.023438 502.917969 295.96875 498.621094 296.210938 492.59375 C 296.320312 490.476562 296.472656 488.050781 296.25 486.132812 C 295.96875 484.210938 295.351562 482.800781 294.042969 482.714844 C 285.65625 482.144531 281.46875 481.253906 279.234375 481.9375 C 278.113281 482.28125 277.484375 483.015625 277.058594 484.375 C 276.605469 485.730469 276.285156 487.710938 275.878906 490.554688 " fill-opacity="1" fill-rule="nonzero"/><path fill="#000000" d="M 273.664062 453.652344 C 276.675781 462.472656 277.339844 467.683594 277.734375 470.585938 C 278.132812 473.5 278.292969 474.140625 279.902344 474.207031 C 295.195312 474.804688 295.527344 475.382812 296.265625 473.246094 C 299.582031 463.78125 301.316406 455.683594 301.386719 448.28125 C 301.449219 440.871094 299.84375 434.066406 296.171875 427.15625 C 291.871094 419.03125 287.101562 415.925781 282.863281 416.136719 C 278.121094 416.378906 274.054688 420.90625 272.101562 427.796875 C 270.140625 434.703125 270.289062 443.871094 273.664062 453.652344 " fill-opacity="1" fill-rule="nonzero"/><path fill="#000000" d="M 253.175781 401.441406 C 254.078125 412.273438 249.039062 417.910156 243.652344 418.207031 C 238.308594 418.476562 232.625 413.460938 232.75 402.136719 C 232.832031 398.121094 232.871094 392.910156 235.519531 392.851562 C 252.359375 392.550781 252.324219 390.21875 253.175781 401.441406 " fill-opacity="1" fill-rule="nonzero"/><path fill="#000000" d="M 257.238281 364.804688 C 253.722656 373.617188 252.914062 378.8125 252.375 381.683594 C 251.875 384.5625 251.703125 385.191406 250.078125 385.1875 C 234.773438 385.136719 234.433594 385.695312 233.761719 383.554688 C 230.855469 374.09375 229.394531 365.703125 229.925781 357.316406 C 230.527344 349.0625 233.054688 341.347656 238.0625 333.867188 C 241.109375 329.472656 243.96875 326.679688 246.722656 325.148438 C 249.421875 323.621094 251.8125 323.339844 253.839844 323.964844 C 258.402344 325.410156 261.011719 331.160156 261.703125 338.507812 C 262.402344 345.925781 261.171875 355.015625 257.238281 364.804688 " fill-opacity="1" fill-rule="nonzero"/><path fill="#000000" d="M 275.542969 363.027344 C 274.8125 367.996094 275.878906 371.945312 277.695312 374.539062 C 279.578125 377.164062 282.238281 378.484375 284.925781 378.554688 C 290.320312 378.730469 295.617188 373.8125 295.882812 365.003906 C 296.007812 361.863281 296.335938 357.839844 293.773438 357.457031 C 277.191406 355.054688 277.226562 352.777344 275.542969 363.027344 " fill-opacity="1" fill-rule="nonzero"/><path fill="#000000" d="M 278.8125 329.320312 C 278.9375 333.707031 278.898438 337 278.9375 339.597656 C 278.917969 342.171875 278.804688 343.988281 278.8125 345.320312 C 278.765625 347.957031 278.820312 348.539062 280.414062 348.839844 C 295.453125 351.695312 295.703125 352.152344 296.695312 350.714844 C 301.03125 344.402344 304.316406 339.523438 306.378906 334.851562 C 308.453125 330.175781 309.078125 325.5625 308.683594 319.609375 C 308.296875 312.71875 306.371094 307.917969 302.945312 305.3125 C 301.050781 303.886719 298.726562 303.25 296.128906 303.492188 C 293.46875 303.675781 290.835938 305 288.128906 307.0625 C 282.945312 311.3125 278.648438 319.539062 278.8125 329.320312 " fill-opacity="1" fill-rule="nonzero"/><path fill="#000000" d="M 291.902344 274.535156 C 287.597656 278.796875 283.746094 281.347656 280.277344 282.519531 C 276.738281 283.625 273.695312 283.367188 271.53125 281.75 C 269.394531 280.148438 268.140625 277.167969 268.964844 273.222656 C 269.386719 271.261719 270.132812 268.972656 271.679688 266.636719 C 272.453125 265.46875 273.367188 264.261719 274.429688 263.035156 C 274.960938 262.417969 275.527344 261.800781 276.132812 261.175781 C 276.75 260.5625 277.464844 259.976562 278.183594 259.378906 C 279.210938 258.539062 280.316406 257.636719 281.421875 256.800781 C 282.519531 255.953125 283.617188 255.167969 284.71875 254.632812 C 286.871094 253.519531 288.660156 253.082031 289.425781 254.15625 C 294.351562 260.964844 297.355469 264.003906 297.878906 266.339844 C 298.441406 268.710938 296.375 270.121094 291.902344 274.535156 " fill-opacity="1" fill-rule="nonzero"/><path fill="#000000" d="M 328.003906 258.398438 C 326.777344 258.402344 325.59375 258.351562 324.5 258.445312 C 323.402344 258.539062 322.363281 258.648438 321.382812 258.761719 C 319.425781 259.011719 317.671875 259.195312 316.183594 259.550781 C 313.207031 260.296875 311.074219 260.980469 309.535156 261.464844 C 306.507812 262.5625 305.851562 262.871094 305.023438 261.445312 C 297.292969 248.230469 296.496094 248.3125 298.488281 246.328125 C 307.449219 237.933594 316.824219 232.699219 325.859375 230.035156 C 328.097656 229.445312 330.324219 229.003906 332.5625 228.664062 C 333.675781 228.503906 334.808594 228.335938 335.910156 228.273438 C 337 228.222656 338.097656 228.207031 339.191406 228.21875 C 341.375 228.257812 343.605469 228.351562 345.777344 228.703125 C 347.929688 229.074219 350.097656 229.574219 352.285156 230.207031 C 353.578125 230.558594 354.746094 230.972656 355.796875 231.441406 C 356.859375 231.894531 357.828125 232.363281 358.710938 232.84375 C 360.476562 233.800781 361.894531 234.808594 363 235.847656 C 365.164062 237.988281 366.125 240.191406 366.152344 242.3125 C 366.179688 244.6875 365.046875 246.949219 363.066406 248.945312 C 361.066406 251.015625 358.242188 252.746094 354.816406 254.148438 C 353.097656 254.890625 351.234375 255.519531 349.242188 256.019531 C 347.25 256.507812 345.128906 257.066406 342.886719 257.363281 C 340.636719 257.621094 338.292969 258.027344 335.808594 258.152344 C 333.316406 258.222656 330.746094 258.429688 328.003906 258.398438 " fill-opacity="1" fill-rule="nonzero"/><path fill="#000000" d="M 336.125 274.875 C 333.839844 275.449219 331.855469 276.15625 330.402344 277.265625 C 328.949219 278.382812 327.890625 279.632812 327.210938 280.933594 C 326.511719 282.195312 326.28125 283.671875 326.324219 285.035156 C 326.371094 286.410156 326.71875 287.734375 327.289062 288.953125 C 327.859375 290.167969 328.652344 291.273438 329.578125 292.207031 C 330.515625 293.148438 331.539062 293.851562 332.773438 294.480469 C 333.984375 295.066406 335.285156 295.421875 336.648438 295.425781 C 338.019531 295.429688 339.660156 295.328125 341.316406 294.644531 C 341.886719 294.386719 342.589844 294.207031 343.257812 293.988281 C 343.929688 293.765625 344.570312 293.503906 345.121094 293.179688 C 346.222656 292.542969 346.949219 291.640625 346.742188 290.371094 C 343.820312 273.871094 345.867188 273.160156 336.125 274.875 " fill-opacity="1" fill-rule="nonzero"/><path fill="#000000" d="M 368.773438 267.726562 C 366.671875 268.46875 364.800781 269.027344 363.164062 269.570312 C 361.53125 270.128906 360.113281 270.574219 358.867188 270.9375 C 356.359375 271.617188 354.640625 272.1875 353.371094 272.519531 C 350.859375 273.230469 350.332031 273.445312 350.519531 275.058594 C 352.289062 290.265625 351.941406 290.632812 353.5625 291.179688 C 360.535156 293.398438 366.660156 295.277344 372.675781 295.617188 C 374.203125 295.726562 375.707031 295.734375 377.207031 295.636719 C 378.75 295.5625 380.320312 295.40625 381.878906 295.128906 C 384.964844 294.542969 388.351562 293.648438 391.785156 292.1875 C 400.101562 288.878906 403.984375 284.535156 404.25 280.296875 C 404.554688 275.558594 400.507812 270.96875 393.957031 268.199219 C 387.449219 265.464844 378.226562 264.554688 368.773438 267.726562 " fill-opacity="1" fill-rule="nonzero"/><path fill="#000000" d="M 421.9375 252.28125 C 411.503906 252.289062 406.488281 246.453125 406.851562 241.105469 C 407.1875 235.730469 412.988281 230.84375 422.835938 231.855469 C 423.703125 231.953125 424.632812 232.058594 425.542969 232.160156 C 426.417969 232.257812 427.269531 232.394531 428.019531 232.601562 C 429.511719 233.023438 430.589844 233.742188 430.570312 235.054688 C 430.285156 251.835938 432.613281 252.085938 421.9375 252.28125 " fill-opacity="1" fill-rule="nonzero"/><path fill="#000000" d="M 456.546875 255.214844 C 452.195312 254.066406 448.851562 253.371094 446.25 252.925781 C 443.640625 252.382812 441.773438 252.105469 440.429688 251.902344 C 437.75 251.488281 437.171875 251.328125 437.152344 249.707031 C 436.984375 234.398438 436.539062 234.074219 438.269531 233.34375 C 442.089844 231.753906 445.554688 230.511719 448.824219 229.355469 C 452.097656 228.261719 455.171875 227.582031 458.1875 227.054688 C 464.226562 226.207031 470.027344 226.664062 476.792969 228.898438 C 480.757812 230.128906 483.777344 231.730469 485.917969 233.542969 C 488.046875 235.308594 489.292969 237.277344 489.734375 239.355469 C 490.21875 241.667969 489.695312 244.140625 488.261719 246.421875 C 486.824219 248.671875 484.484375 250.785156 481.433594 252.527344 C 480.671875 252.960938 479.867188 253.378906 479.015625 253.753906 C 478.164062 254.105469 477.269531 254.429688 476.339844 254.714844 C 474.480469 255.296875 472.472656 255.746094 470.351562 256.046875 C 468.234375 256.378906 465.984375 256.375 463.671875 256.25 C 461.355469 256.101562 458.96875 255.8125 456.546875 255.214844 " fill-opacity="1" fill-rule="nonzero"/><path fill="#000000" d="M 461.550781 272.910156 C 450.53125 273.363281 445.164062 278.917969 445.308594 284.277344 C 445.402344 286.933594 446.949219 289.65625 449.984375 291.375 C 451.5 292.253906 453.390625 292.917969 455.648438 293.28125 C 457.902344 293.640625 460.527344 293.742188 463.464844 293.261719 C 467.621094 292.625 472.984375 291.902344 472.648438 289.28125 C 470.59375 272.566406 472.960938 272.269531 461.550781 272.910156 " fill-opacity="1" fill-rule="nonzero"/><path fill="#000000" d="M 497.335938 263.726562 C 493.292969 266.132812 489.976562 267.625 487.359375 268.722656 C 484.742188 269.8125 482.8125 270.511719 481.421875 270.96875 C 478.632812 271.851562 478.027344 272.109375 478.265625 273.714844 C 480.527344 288.859375 480.015625 289.273438 482.257812 289.640625 C 484.726562 290.078125 487.085938 290.316406 489.375 290.511719 C 491.664062 290.703125 493.882812 290.828125 496.035156 290.878906 C 500.335938 290.957031 504.328125 290.542969 508.152344 289.867188 C 515.753906 288.347656 522.570312 285.25 529.007812 279.796875 C 532.820312 276.691406 535.15625 273.59375 536.40625 270.894531 C 537.652344 268.1875 537.792969 265.804688 537.097656 263.800781 C 536.3125 261.558594 534.492188 259.789062 531.972656 258.574219 C 529.449219 257.355469 526.253906 256.746094 522.589844 256.585938 C 518.929688 256.4375 514.90625 257.074219 510.613281 258.140625 C 508.472656 258.707031 506.285156 259.464844 504.078125 260.425781 C 501.859375 261.355469 499.59375 262.402344 497.335938 263.726562 " fill-opacity="1" fill-rule="nonzero"/><path fill="#000000" d="M 542.058594 230.972656 C 537.363281 233.121094 533.273438 233.304688 530.222656 232.390625 C 527.144531 231.402344 525.058594 229.242188 524.179688 226.707031 C 523.296875 224.167969 523.59375 221.257812 525.222656 218.628906 C 526.832031 215.917969 529.789062 213.566406 534.375 212.03125 C 537.589844 210.890625 541.710938 209.332031 542.777344 211.738281 C 549.515625 227.144531 551.664062 226.34375 542.058594 230.972656 " fill-opacity="1" fill-rule="nonzero"/><path fill="#000000" d="M 574.914062 219.332031 C 572.710938 219.75 570.757812 220.117188 569.035156 220.445312 C 567.3125 220.78125 565.820312 221.113281 564.527344 221.429688 C 561.949219 222.074219 560.136719 222.621094 558.804688 222.949219 C 556.160156 223.652344 555.5625 223.742188 554.878906 222.269531 C 548.414062 208.394531 547.859375 208.28125 549.175781 206.914062 C 552.101562 203.972656 554.714844 201.179688 557.335938 198.882812 C 559.976562 196.621094 562.457031 194.519531 565.105469 192.910156 C 567.765625 191.324219 570.449219 189.964844 573.402344 188.992188 C 574.882812 188.507812 576.425781 188.121094 578.054688 187.816406 C 579.652344 187.46875 581.332031 187.203125 583.117188 187.023438 C 587.3125 186.609375 590.753906 186.898438 593.394531 187.640625 C 596.058594 188.417969 597.992188 189.757812 599.207031 191.5 C 601.914062 195.351562 601.058594 201.394531 596.71875 206.898438 C 595.648438 208.289062 594.378906 209.660156 592.925781 210.976562 C 591.445312 212.253906 589.757812 213.433594 587.921875 214.539062 C 586.066406 215.617188 584.089844 216.671875 581.894531 217.449219 C 579.703125 218.234375 577.367188 218.875 574.914062 219.332031 " fill-opacity="1" fill-rule="nonzero"/><path fill="#000000" d="M 586.632812 233.519531 C 584.152344 234.734375 582.175781 236.148438 580.582031 237.574219 C 578.972656 238.976562 577.796875 240.46875 576.996094 241.976562 C 575.398438 244.988281 575.324219 248.050781 576.511719 250.464844 C 577.699219 252.871094 580.15625 254.625 583.628906 255.035156 C 585.363281 255.238281 587.351562 255.105469 589.546875 254.550781 C 591.730469 253.984375 594.074219 252.910156 596.582031 251.371094 C 598.339844 250.265625 600.386719 249.066406 601.78125 247.777344 C 603.175781 246.484375 603.960938 245.199219 603.289062 244.066406 C 599.011719 236.828125 597.375 232.875 595.550781 231.417969 C 593.722656 229.945312 591.757812 231.023438 586.632812 233.519531 " fill-opacity="1" fill-rule="nonzero"/><path fill="#000000" d="M 615.757812 210.960938 C 610.136719 218.476562 606.132812 221.839844 603.996094 223.828125 C 601.835938 225.808594 601.382812 226.277344 602.234375 227.648438 C 610.316406 240.636719 610.035156 241.246094 612.199219 240.675781 C 616.921875 239.371094 621.308594 238.0625 625.226562 236.429688 C 629.128906 234.757812 632.707031 232.972656 635.898438 230.828125 C 639.058594 228.644531 641.902344 226.195312 644.464844 223.398438 C 646.957031 220.515625 649.160156 217.257812 651.105469 213.574219 C 655.554688 204.757812 655.199219 198.878906 652.390625 195.726562 C 649.207031 192.1875 642.96875 191.949219 636.246094 194.628906 C 632.808594 195.894531 629.277344 197.945312 625.804688 200.683594 C 624.042969 202.019531 622.3125 203.546875 620.640625 205.273438 C 619.804688 206.136719 618.984375 207.046875 618.179688 208.011719 C 617.355469 208.953125 616.542969 209.925781 615.757812 210.960938 " fill-opacity="1" fill-rule="nonzero"/><path fill="#000000" d="M 644.382812 163.464844 C 643.511719 164.421875 642.640625 165.261719 641.753906 165.96875 C 640.851562 166.660156 639.949219 167.238281 639.066406 167.703125 C 637.289062 168.644531 635.570312 169.15625 633.972656 169.304688 C 630.78125 169.621094 628.039062 168.4375 626.242188 166.421875 C 624.464844 164.429688 623.617188 161.613281 624.082031 158.503906 C 624.324219 156.957031 624.902344 155.347656 625.886719 153.742188 C 626.378906 152.9375 626.972656 152.132812 627.679688 151.339844 C 628.363281 150.519531 629.144531 149.695312 630.050781 148.890625 C 632.605469 146.609375 635.882812 143.644531 637.742188 145.425781 C 649.820312 157.074219 651.570312 155.585938 644.382812 163.464844 " fill-opacity="1" fill-rule="nonzero"/><path fill="#000000" d="M 670.335938 140.1875 C 666.59375 142.636719 663.710938 144.53125 661.539062 146.085938 C 659.371094 147.640625 657.914062 148.847656 656.851562 149.695312 C 654.664062 151.339844 654.136719 151.648438 652.945312 150.546875 C 641.683594 140.179688 641.125 140.28125 641.832031 138.523438 C 643.390625 134.660156 644.746094 131.089844 646.324219 127.996094 C 647.851562 124.859375 649.367188 122.003906 651.214844 119.527344 C 654.773438 114.464844 659.285156 110.636719 665.550781 107.246094 C 669.304688 105.300781 672.496094 104.199219 675.246094 103.894531 C 678.003906 103.597656 680.308594 104.09375 682.101562 105.234375 C 684.105469 106.507812 685.464844 108.578125 686.105469 111.210938 C 686.757812 113.84375 686.695312 117.03125 685.738281 120.386719 C 684.796875 123.746094 683.175781 127.421875 680.535156 130.804688 C 679.242188 132.515625 677.761719 134.195312 676.089844 135.800781 C 674.382812 137.378906 672.429688 138.835938 670.335938 140.1875 " fill-opacity="1" fill-rule="nonzero"/><path fill="#000000" d="M 686.59375 148.847656 C 682.941406 152.988281 681.289062 156.988281 680.902344 160.34375 C 680.558594 163.726562 681.648438 166.582031 683.664062 168.359375 C 685.675781 170.132812 688.625 170.824219 692.003906 169.886719 C 695.421875 168.988281 699.125 166.320312 702.597656 161.554688 C 705.105469 158.238281 708.085938 153.761719 706.007812 152.210938 C 699.292969 147.160156 696.273438 144.132812 694.023438 143.480469 C 692.902344 143.152344 691.96875 143.410156 690.871094 144.304688 C 689.777344 145.203125 688.503906 146.730469 686.59375 148.847656 " fill-opacity="1" fill-rule="nonzero"/><path fill="#000000" d="M 704.878906 116.820312 C 703.667969 121.324219 702.558594 124.820312 701.515625 127.453125 C 700.445312 130.070312 699.558594 131.898438 698.929688 133.222656 C 697.675781 135.867188 697.453125 136.488281 698.769531 137.433594 C 711.21875 146.347656 711.167969 147.003906 712.953125 145.640625 C 720.839844 139.679688 726.847656 133.792969 731.113281 127.332031 C 733.1875 124.070312 734.945312 120.730469 736.167969 117.101562 C 737.359375 113.449219 738.152344 109.582031 738.527344 105.410156 C 739.148438 95.460938 736.582031 90.21875 732.742188 88.421875 C 728.4375 86.425781 722.550781 88.652344 717.433594 93.769531 C 714.792969 96.300781 712.257812 99.527344 710.175781 103.433594 C 709.085938 105.355469 708.054688 107.425781 707.175781 109.664062 C 706.269531 111.886719 705.589844 114.332031 704.878906 116.820312 " fill-opacity="1" fill-rule="nonzero"/></svg>