<svg width="28" height="20" viewBox="0 0 28 20" fill="none" xmlns="http://www.w3.org/2000/svg">
<path d="M23.7038 1.65906C21.8882 0.878258 19.9724 0.320987 18.0041 0.00113909C17.9863 -0.00167518 17.968 0.00075541 17.9517 0.00809674C17.9354 0.0154381 17.9219 0.0273296 17.9131 0.0421361C17.6664 0.452106 17.3934 0.988347 17.2026 1.40816C15.081 1.10643 12.9228 1.10643 10.8012 1.40816C10.5884 0.940495 10.3477 0.484433 10.0802 0.0421361C10.0712 0.0274917 10.0577 0.0157372 10.0415 0.00841949C10.0252 0.00110175 10.007 -0.00143631 9.98919 0.00113909C8.02046 0.319276 6.10423 0.876835 4.2895 1.65906C4.27397 1.66461 4.26098 1.67504 4.25275 1.68858C0.623289 6.77057 -0.372451 11.7279 0.115794 16.623C0.117544 16.6459 0.133294 16.6689 0.152544 16.6836C2.26604 18.1507 4.63003 19.2708 7.14372 19.9962C7.16147 20.0014 7.18054 20.0013 7.19816 19.9957C7.21579 19.99 7.23104 19.9793 7.24172 19.965C7.78071 19.2763 8.26021 18.5498 8.6732 17.7856C8.68181 17.7699 8.68476 17.752 8.68161 17.7345C8.67845 17.7171 8.66937 17.7011 8.6557 17.6889C8.64666 17.6809 8.63593 17.6747 8.6242 17.6708C7.87024 17.3993 7.14004 17.0731 6.44023 16.6951C6.42068 16.6847 6.40614 16.6677 6.39963 16.6476C6.39311 16.6274 6.39512 16.6057 6.40523 16.5869C6.41118 16.5747 6.42019 16.564 6.43148 16.5557C6.57848 16.4524 6.72548 16.3442 6.86547 16.236C6.87784 16.2266 6.89268 16.2206 6.9084 16.2186C6.92412 16.2166 6.94013 16.2186 6.95472 16.2245C11.5379 18.1858 16.4991 18.1858 21.0263 16.2245C21.0414 16.2183 21.0581 16.2162 21.0744 16.2182C21.0907 16.2202 21.1062 16.2264 21.1191 16.236C21.2591 16.3442 21.4061 16.4524 21.5531 16.5557C21.565 16.5639 21.5746 16.5747 21.5809 16.5872C21.5873 16.5996 21.5903 16.6134 21.5896 16.6272C21.5889 16.641 21.5845 16.6544 21.5769 16.6663C21.5694 16.6781 21.5587 16.688 21.5461 16.6951C20.8479 17.0765 20.1167 17.4024 19.3603 17.6692C19.3483 17.6733 19.3373 17.6798 19.3282 17.6883C19.3192 17.6968 19.3122 17.7071 19.3078 17.7184C19.3038 17.7294 19.3022 17.741 19.3031 17.7525C19.304 17.7641 19.3074 17.7754 19.3131 17.7856C19.7331 18.5482 20.2143 19.2763 20.7428 19.965C20.7535 19.9793 20.7688 19.99 20.7864 19.9957C20.804 20.0013 20.8231 20.0014 20.8408 19.9962C23.3587 19.2731 25.7266 18.1528 27.8425 16.6836C27.8531 16.6768 27.8619 16.6677 27.8683 16.6572C27.8746 16.6467 27.8784 16.635 27.8793 16.623C28.4637 10.9637 26.901 6.04738 23.7388 1.69022C23.7356 1.68302 23.7309 1.67653 23.7248 1.67116C23.7188 1.66579 23.7116 1.66167 23.7038 1.65906ZM9.35745 13.6417C7.97671 13.6417 6.84097 12.4544 6.84097 10.9982C6.84097 9.54032 7.95571 8.35305 9.35745 8.35305C10.7697 8.35305 11.8949 9.55016 11.8739 10.9982C11.8739 12.4544 10.7592 13.6417 9.35745 13.6417ZM18.6603 13.6417C17.2814 13.6417 16.1439 12.4544 16.1439 10.9982C16.1439 9.54032 17.2586 8.35305 18.6603 8.35305C20.0726 8.35305 21.1996 9.55016 21.1768 10.9982C21.1768 12.4544 20.0726 13.6417 18.6603 13.6417Z" fill="#161616" fill-opacity="0.35"/>
</svg>
