<svg width="20" height="15" viewBox="0 0 30 21" fill="none" xmlns="http://www.w3.org/2000/svg">
<path d="M0.09375 2.72125C0.282784 1.94818 0.747479 1.25792 1.41173 0.76354C2.07598 0.269156 2.90041 -5.33653e-05 3.75 7.93474e-09H26.25C27.0996 -5.33653e-05 27.924 0.269156 28.5883 0.76354C29.2525 1.25792 29.7172 1.94818 29.9062 2.72125L15 11.2245L0.09375 2.72125ZM0 4.71975V17.1517L10.8806 10.9252L0 4.71975ZM12.6769 11.9525L0.358125 18.9998C0.662487 19.5987 1.14286 20.1047 1.74334 20.4589C2.34382 20.813 3.0397 21.0006 3.75 21H26.25C26.9602 21.0001 27.6558 20.8121 28.2559 20.4577C28.8561 20.1032 29.336 19.5971 29.64 18.998L17.3212 11.9508L15 13.2755L12.6769 11.9508V11.9525ZM19.1194 10.927L30 17.1517V4.71975L19.1194 10.9252V10.927Z" fill="#161616" fill-opacity="0.35"/>
</svg>
