<svg width="22" height="16" viewBox="0 0 32 21" fill="none" xmlns="http://www.w3.org/2000/svg">
<path d="M16.103 0H16.281C17.9251 0.00560548 26.2556 0.0616606 28.5018 0.625946C29.1808 0.798162 29.7996 1.13384 30.2962 1.59945C30.7929 2.06505 31.15 2.64426 31.332 3.27921C31.534 3.98923 31.676 4.92909 31.772 5.89883L31.792 6.09316L31.836 6.57897L31.852 6.77329C31.982 8.48109 31.998 10.0805 32 10.4299V10.5701C31.998 10.9326 31.98 12.6404 31.836 14.4192L31.82 14.6154L31.802 14.8097C31.702 15.8785 31.554 16.9398 31.332 17.7208C31.1506 18.356 30.7936 18.9355 30.2969 19.4012C29.8001 19.8668 29.1811 20.2024 28.5018 20.3741C26.1816 20.957 17.3631 20.9981 16.141 21H15.857C15.239 21 12.6828 20.9888 10.0026 20.9028L9.6626 20.8916L9.48859 20.8842L9.14657 20.8711L8.80455 20.858C6.58441 20.7664 4.47028 20.6188 3.49622 20.3722C2.81716 20.2006 2.19827 19.8654 1.70156 19.4001C1.20484 18.9347 0.847747 18.3556 0.666042 17.7208C0.444028 16.9416 0.296019 15.8785 0.196012 14.8097L0.180011 14.6135L0.16401 14.4192C0.0652993 13.1531 0.0106004 11.8843 0 10.6149L0 10.3851C0.00400025 9.98336 0.0200013 8.59507 0.128008 7.06291L0.142009 6.87045L0.148009 6.77329L0.16401 6.57897L0.208013 6.09316L0.228014 5.89883C0.32402 4.92909 0.466029 3.98737 0.668042 3.27921C0.84944 2.64401 1.2064 2.06452 1.70313 1.59884C2.19987 1.13316 2.81892 0.797646 3.49822 0.625946C4.47228 0.383041 6.58641 0.233562 8.80655 0.140137L9.14657 0.127057L9.49059 0.115847L9.6626 0.110241L10.0046 0.097162C11.9082 0.0399385 13.8125 0.00817067 15.717 0.00186858H16.103V0ZM12.8008 5.99786V15.0003L21.1153 10.5009L12.8008 5.99786Z" fill="#161616" fill-opacity="0.35"/>
</svg>
