<svg xmlns="http://www.w3.org/2000/svg" xmlns:xlink="http://www.w3.org/1999/xlink" width="500" zoomAndPan="magnify" viewBox="0 0 375 374.999991" height="500" preserveAspectRatio="xMidYMid meet" version="1.0"><defs><g/><clipPath id="799bc2e84e"><path d="M 232 105 L 269 105 L 269 142 L 232 142 Z M 232 105 " clip-rule="nonzero"/></clipPath><clipPath id="1a8ac8f74c"><path d="M 207.191406 94.484375 L 252.609375 76.773438 L 273.863281 131.273438 L 228.445312 148.984375 Z M 207.191406 94.484375 " clip-rule="nonzero"/></clipPath><clipPath id="488a36735a"><path d="M 207.191406 94.484375 L 252.609375 76.773438 L 273.863281 131.273438 L 228.445312 148.984375 Z M 207.191406 94.484375 " clip-rule="nonzero"/></clipPath><clipPath id="d07c9f2857"><path d="M 207.191406 94.484375 L 252.609375 76.773438 L 273.863281 131.273438 L 228.445312 148.984375 Z M 207.191406 94.484375 " clip-rule="nonzero"/></clipPath><clipPath id="d4da46c140"><path d="M 225 86 L 232 86 L 232 99 L 225 99 Z M 225 86 " clip-rule="nonzero"/></clipPath><clipPath id="d172dbf693"><path d="M 207.191406 94.484375 L 252.609375 76.773438 L 273.863281 131.273438 L 228.445312 148.984375 Z M 207.191406 94.484375 " clip-rule="nonzero"/></clipPath><clipPath id="4173eaec01"><path d="M 207.191406 94.484375 L 252.609375 76.773438 L 273.863281 131.273438 L 228.445312 148.984375 Z M 207.191406 94.484375 " clip-rule="nonzero"/></clipPath><clipPath id="aaffaea48d"><path d="M 207.191406 94.484375 L 252.609375 76.773438 L 273.863281 131.273438 L 228.445312 148.984375 Z M 207.191406 94.484375 " clip-rule="nonzero"/></clipPath><clipPath id="32876bcc64"><path d="M 214 108 L 227 108 L 227 115 L 214 115 Z M 214 108 " clip-rule="nonzero"/></clipPath><clipPath id="2d30f15c36"><path d="M 207.191406 94.484375 L 252.609375 76.773438 L 273.863281 131.273438 L 228.445312 148.984375 Z M 207.191406 94.484375 " clip-rule="nonzero"/></clipPath><clipPath id="531e7a0951"><path d="M 207.191406 94.484375 L 252.609375 76.773438 L 273.863281 131.273438 L 228.445312 148.984375 Z M 207.191406 94.484375 " clip-rule="nonzero"/></clipPath><clipPath id="26788affaf"><path d="M 207.191406 94.484375 L 252.609375 76.773438 L 273.863281 131.273438 L 228.445312 148.984375 Z M 207.191406 94.484375 " clip-rule="nonzero"/></clipPath><clipPath id="5926ed7a76"><path d="M 241 98 L 254 98 L 254 104 L 241 104 Z M 241 98 " clip-rule="nonzero"/></clipPath><clipPath id="b43c02ed83"><path d="M 207.191406 94.484375 L 252.609375 76.773438 L 273.863281 131.273438 L 228.445312 148.984375 Z M 207.191406 94.484375 " clip-rule="nonzero"/></clipPath><clipPath id="216fa2a103"><path d="M 207.191406 94.484375 L 252.609375 76.773438 L 273.863281 131.273438 L 228.445312 148.984375 Z M 207.191406 94.484375 " clip-rule="nonzero"/></clipPath><clipPath id="82f2caed07"><path d="M 207.191406 94.484375 L 252.609375 76.773438 L 273.863281 131.273438 L 228.445312 148.984375 Z M 207.191406 94.484375 " clip-rule="nonzero"/></clipPath><clipPath id="efa0b590f1"><path d="M 214 97 L 227 97 L 227 104 L 214 104 Z M 214 97 " clip-rule="nonzero"/></clipPath><clipPath id="c3aa71b2f6"><path d="M 207.191406 94.484375 L 252.609375 76.773438 L 273.863281 131.273438 L 228.445312 148.984375 Z M 207.191406 94.484375 " clip-rule="nonzero"/></clipPath><clipPath id="1059d4cde0"><path d="M 207.191406 94.484375 L 252.609375 76.773438 L 273.863281 131.273438 L 228.445312 148.984375 Z M 207.191406 94.484375 " clip-rule="nonzero"/></clipPath><clipPath id="2402b7095b"><path d="M 207.191406 94.484375 L 252.609375 76.773438 L 273.863281 131.273438 L 228.445312 148.984375 Z M 207.191406 94.484375 " clip-rule="nonzero"/></clipPath><clipPath id="8706b5271c"><path d="M 224 113 L 232 113 L 232 126 L 224 126 Z M 224 113 " clip-rule="nonzero"/></clipPath><clipPath id="fdf0cec55f"><path d="M 207.191406 94.484375 L 252.609375 76.773438 L 273.863281 131.273438 L 228.445312 148.984375 Z M 207.191406 94.484375 " clip-rule="nonzero"/></clipPath><clipPath id="a5b858ccd2"><path d="M 207.191406 94.484375 L 252.609375 76.773438 L 273.863281 131.273438 L 228.445312 148.984375 Z M 207.191406 94.484375 " clip-rule="nonzero"/></clipPath><clipPath id="79c8cd5400"><path d="M 207.191406 94.484375 L 252.609375 76.773438 L 273.863281 131.273438 L 228.445312 148.984375 Z M 207.191406 94.484375 " clip-rule="nonzero"/></clipPath><clipPath id="73a2cc9dfe"><path d="M 236 87 L 244 87 L 244 99 L 236 99 Z M 236 87 " clip-rule="nonzero"/></clipPath><clipPath id="69052ac3bf"><path d="M 207.191406 94.484375 L 252.609375 76.773438 L 273.863281 131.273438 L 228.445312 148.984375 Z M 207.191406 94.484375 " clip-rule="nonzero"/></clipPath><clipPath id="a946eca726"><path d="M 207.191406 94.484375 L 252.609375 76.773438 L 273.863281 131.273438 L 228.445312 148.984375 Z M 207.191406 94.484375 " clip-rule="nonzero"/></clipPath><clipPath id="9c9ffe4c05"><path d="M 207.191406 94.484375 L 252.609375 76.773438 L 273.863281 131.273438 L 228.445312 148.984375 Z M 207.191406 94.484375 " clip-rule="nonzero"/></clipPath></defs><rect x="-37.5" width="450" fill="#ffffff" y="-37.499999" height="449.999989" fill-opacity="1"/><rect x="-37.5" width="450" fill="#ffffff" y="-37.499999" height="449.999989" fill-opacity="1"/><g fill="#000000" fill-opacity="1"><g transform="translate(63.265685, 280.825364)"><g><path d="M 20.09375 -16.921875 C 7.800781 -27.671875 0.691406 -41.734375 -1.234375 -59.109375 C -3.171875 -76.484375 0.671875 -91.796875 10.296875 -105.046875 C 19.921875 -118.304688 33.191406 -125.878906 50.109375 -127.765625 C 65.660156 -129.492188 79.003906 -126.039062 90.140625 -117.40625 L 80.078125 -207.921875 L 120.546875 -212.4375 L 142.421875 -15.859375 L 102.40625 -11.40625 L 100.9375 -24.671875 L 100.484375 -24.609375 C 91.660156 -12.359375 79.472656 -5.367188 63.921875 -3.640625 C 47.003906 -1.753906 32.394531 -6.179688 20.09375 -16.921875 Z M 47.390625 -84.640625 C 42.710938 -78.878906 40.820312 -71.960938 41.71875 -63.890625 C 42.613281 -55.816406 45.859375 -49.503906 51.453125 -44.953125 C 57.054688 -40.410156 63.972656 -38.597656 72.203125 -39.515625 C 80.128906 -40.398438 86.351562 -43.71875 90.875 -49.46875 C 95.40625 -55.21875 97.226562 -62.050781 96.34375 -69.96875 C 95.445312 -78.039062 92.082031 -84.375 86.25 -88.96875 C 80.414062 -93.5625 73.6875 -95.4375 66.0625 -94.59375 C 58.300781 -93.726562 52.078125 -90.410156 47.390625 -84.640625 Z M 47.390625 -84.640625 "/></g></g></g><g fill="#000000" fill-opacity="1"><g transform="translate(181.534065, 265.461776)"><g><path d="M 89.984375 -74.359375 C 82.421875 -75.617188 75.453125 -73.898438 69.078125 -69.203125 C 62.703125 -64.503906 58.859375 -58.222656 57.546875 -50.359375 C 56.222656 -42.335938 57.816406 -35.078125 62.328125 -28.578125 C 66.847656 -22.085938 72.890625 -18.210938 80.453125 -16.953125 C 84.078125 -16.359375 87.585938 -16.242188 90.984375 -16.609375 C 94.390625 -16.972656 96.929688 -17.488281 98.609375 -18.15625 L 100.875 -19.15625 L 109.859375 11 C 108.671875 11.582031 107.035156 12.28125 104.953125 13.09375 C 102.878906 13.914062 98.3125 14.753906 91.25 15.609375 C 84.195312 16.460938 76.8125 16.25 69.09375 14.96875 C 52 12.132812 37.984375 3.632812 27.046875 -10.53125 C 16.109375 -24.707031 12.035156 -40.191406 14.828125 -56.984375 C 17.628906 -73.921875 26.503906 -87.40625 41.453125 -97.4375 C 56.410156 -107.46875 72.4375 -111.066406 89.53125 -108.234375 C 97.25 -106.953125 104.210938 -104.863281 110.421875 -101.96875 C 116.628906 -99.082031 120.941406 -96.5 123.359375 -94.21875 L 126.765625 -90.890625 L 108.59375 -65.671875 C 104.195312 -70.140625 97.992188 -73.035156 89.984375 -74.359375 Z M 89.984375 -74.359375 "/></g></g></g><g clip-path="url(#799bc2e84e)"><g clip-path="url(#1a8ac8f74c)"><g clip-path="url(#488a36735a)"><g clip-path="url(#d07c9f2857)"><path fill="#000000" d="M 267.242188 115.8125 L 234.363281 105.132812 C 233.914062 104.988281 233.425781 105.113281 233.105469 105.457031 C 232.78125 105.796875 232.683594 106.292969 232.855469 106.730469 L 246.113281 140.730469 C 246.308594 141.230469 246.808594 141.542969 247.339844 141.503906 C 247.460938 141.492188 247.578125 141.464844 247.6875 141.421875 C 248.058594 141.277344 248.34375 140.953125 248.433594 140.546875 L 252.054688 124.050781 L 267.308594 118.101562 C 267.789062 117.914062 268.097656 117.449219 268.082031 116.933594 C 268.070312 116.421875 267.730469 115.972656 267.242188 115.8125 Z M 267.242188 115.8125 " fill-opacity="1" fill-rule="nonzero"/></g></g></g></g><g clip-path="url(#d4da46c140)"><g clip-path="url(#d172dbf693)"><g clip-path="url(#4173eaec01)"><g clip-path="url(#aaffaea48d)"><path fill="#000000" d="M 226.476562 87.023438 C 225.851562 87.265625 225.539062 87.972656 225.785156 88.597656 L 229.320312 97.664062 C 229.5625 98.289062 230.269531 98.597656 230.894531 98.355469 C 231.519531 98.109375 231.828125 97.40625 231.585938 96.78125 L 228.050781 87.714844 C 227.804688 87.085938 227.101562 86.777344 226.476562 87.023438 Z M 226.476562 87.023438 " fill-opacity="1" fill-rule="nonzero"/></g></g></g></g><g clip-path="url(#32876bcc64)"><g clip-path="url(#2d30f15c36)"><g clip-path="url(#531e7a0951)"><g clip-path="url(#26788affaf)"><path fill="#000000" d="M 224.484375 108.691406 L 215.417969 112.222656 C 214.792969 112.46875 214.484375 113.171875 214.726562 113.796875 C 214.972656 114.425781 215.679688 114.734375 216.304688 114.492188 L 225.367188 110.957031 C 225.992188 110.710938 226.300781 110.007812 226.058594 109.382812 C 225.8125 108.753906 225.109375 108.445312 224.484375 108.691406 Z M 224.484375 108.691406 " fill-opacity="1" fill-rule="nonzero"/></g></g></g></g><g clip-path="url(#5926ed7a76)"><g clip-path="url(#b43c02ed83)"><g clip-path="url(#216fa2a103)"><g clip-path="url(#82f2caed07)"><path fill="#000000" d="M 251.671875 98.085938 L 242.609375 101.621094 C 241.984375 101.863281 241.675781 102.570312 241.917969 103.195312 C 242.164062 103.820312 242.867188 104.132812 243.492188 103.886719 L 252.558594 100.355469 C 253.183594 100.109375 253.492188 99.402344 253.246094 98.777344 C 253.003906 98.152344 252.296875 97.84375 251.671875 98.085938 Z M 251.671875 98.085938 " fill-opacity="1" fill-rule="nonzero"/></g></g></g></g><g clip-path="url(#efa0b590f1)"><g clip-path="url(#c3aa71b2f6)"><g clip-path="url(#1059d4cde0)"><g clip-path="url(#2402b7095b)"><path fill="#000000" d="M 225.566406 101.261719 L 216.65625 97.351562 C 216.042969 97.082031 215.324219 97.363281 215.054688 97.976562 C 214.785156 98.589844 215.066406 99.308594 215.679688 99.578125 L 224.589844 103.488281 C 224.898438 103.621094 225.230469 103.621094 225.523438 103.507812 C 225.8125 103.394531 226.058594 103.171875 226.191406 102.867188 C 226.460938 102.25 226.183594 101.53125 225.566406 101.261719 Z M 225.566406 101.261719 " fill-opacity="1" fill-rule="nonzero"/></g></g></g></g><g clip-path="url(#8706b5271c)"><g clip-path="url(#fdf0cec55f)"><g clip-path="url(#a5b858ccd2)"><g clip-path="url(#79c8cd5400)"><path fill="#000000" d="M 230.570312 114.085938 C 229.953125 113.816406 229.238281 114.097656 228.96875 114.710938 L 225.054688 123.621094 C 224.785156 124.238281 225.066406 124.957031 225.679688 125.226562 C 225.988281 125.359375 226.324219 125.355469 226.613281 125.242188 C 226.902344 125.128906 227.148438 124.90625 227.28125 124.597656 L 231.195312 115.691406 C 231.464844 115.074219 231.183594 114.355469 230.570312 114.085938 Z M 230.570312 114.085938 " fill-opacity="1" fill-rule="nonzero"/></g></g></g></g><g clip-path="url(#73a2cc9dfe)"><g clip-path="url(#69052ac3bf)"><g clip-path="url(#a946eca726)"><g clip-path="url(#9c9ffe4c05)"><path fill="#000000" d="M 242.292969 87.355469 C 241.679688 87.085938 240.960938 87.367188 240.691406 87.980469 L 236.78125 96.890625 C 236.511719 97.503906 236.792969 98.222656 237.40625 98.492188 C 237.714844 98.625 238.046875 98.625 238.335938 98.511719 C 238.628906 98.398438 238.875 98.175781 239.007812 97.867188 L 242.917969 88.957031 C 243.1875 88.34375 242.90625 87.625 242.292969 87.355469 Z M 242.292969 87.355469 " fill-opacity="1" fill-rule="nonzero"/></g></g></g></g></svg>