<svg xmlns="http://www.w3.org/2000/svg" xmlns:xlink="http://www.w3.org/1999/xlink" width="2000" zoomAndPan="magnify" viewBox="0 0 1500 519.750007" height="693" preserveAspectRatio="xMidYMid meet" version="1.0"><defs><g/><clipPath id="064e254aed"><path d="M 1062 104 L 1154 104 L 1154 199 L 1062 199 Z M 1062 104 " clip-rule="nonzero"/></clipPath><clipPath id="eea59f4ccd"><path d="M 996.441406 77.546875 L 1112.886719 32.140625 L 1167.925781 173.285156 L 1051.480469 218.695312 Z M 996.441406 77.546875 " clip-rule="nonzero"/></clipPath><clipPath id="a0c0b5c269"><path d="M 996.441406 77.546875 L 1112.886719 32.140625 L 1167.925781 173.285156 L 1051.480469 218.695312 Z M 996.441406 77.546875 " clip-rule="nonzero"/></clipPath><clipPath id="8d86baa7cc"><path d="M 1044 58 L 1060 58 L 1060 88 L 1044 88 Z M 1044 58 " clip-rule="nonzero"/></clipPath><clipPath id="80d4567ce2"><path d="M 996.441406 77.546875 L 1112.886719 32.140625 L 1167.925781 173.285156 L 1051.480469 218.695312 Z M 996.441406 77.546875 " clip-rule="nonzero"/></clipPath><clipPath id="bf3846db4e"><path d="M 996.441406 77.546875 L 1112.886719 32.140625 L 1167.925781 173.285156 L 1051.480469 218.695312 Z M 996.441406 77.546875 " clip-rule="nonzero"/></clipPath><clipPath id="5b2511efad"><path d="M 1015 113 L 1046 113 L 1046 130 L 1015 130 Z M 1015 113 " clip-rule="nonzero"/></clipPath><clipPath id="36662ad71e"><path d="M 996.441406 77.546875 L 1112.886719 32.140625 L 1167.925781 173.285156 L 1051.480469 218.695312 Z M 996.441406 77.546875 " clip-rule="nonzero"/></clipPath><clipPath id="f59ac3c328"><path d="M 996.441406 77.546875 L 1112.886719 32.140625 L 1167.925781 173.285156 L 1051.480469 218.695312 Z M 996.441406 77.546875 " clip-rule="nonzero"/></clipPath><clipPath id="cce320f0ea"><path d="M 1085 86 L 1116 86 L 1116 102 L 1085 102 Z M 1085 86 " clip-rule="nonzero"/></clipPath><clipPath id="765b199b3a"><path d="M 996.441406 77.546875 L 1112.886719 32.140625 L 1167.925781 173.285156 L 1051.480469 218.695312 Z M 996.441406 77.546875 " clip-rule="nonzero"/></clipPath><clipPath id="06f5147c58"><path d="M 996.441406 77.546875 L 1112.886719 32.140625 L 1167.925781 173.285156 L 1051.480469 218.695312 Z M 996.441406 77.546875 " clip-rule="nonzero"/></clipPath><clipPath id="f5485816f8"><path d="M 1016 84 L 1046 84 L 1046 101 L 1016 101 Z M 1016 84 " clip-rule="nonzero"/></clipPath><clipPath id="5d0915bf31"><path d="M 996.441406 77.546875 L 1112.886719 32.140625 L 1167.925781 173.285156 L 1051.480469 218.695312 Z M 996.441406 77.546875 " clip-rule="nonzero"/></clipPath><clipPath id="7cd36878ac"><path d="M 996.441406 77.546875 L 1112.886719 32.140625 L 1167.925781 173.285156 L 1051.480469 218.695312 Z M 996.441406 77.546875 " clip-rule="nonzero"/></clipPath><clipPath id="7f28d85e68"><path d="M 1042 127 L 1059 127 L 1059 157 L 1042 157 Z M 1042 127 " clip-rule="nonzero"/></clipPath><clipPath id="56073af513"><path d="M 996.441406 77.546875 L 1112.886719 32.140625 L 1167.925781 173.285156 L 1051.480469 218.695312 Z M 996.441406 77.546875 " clip-rule="nonzero"/></clipPath><clipPath id="455b4d8b1a"><path d="M 996.441406 77.546875 L 1112.886719 32.140625 L 1167.925781 173.285156 L 1051.480469 218.695312 Z M 996.441406 77.546875 " clip-rule="nonzero"/></clipPath><clipPath id="6531dbea35"><path d="M 1072 58 L 1089 58 L 1089 89 L 1072 89 Z M 1072 58 " clip-rule="nonzero"/></clipPath><clipPath id="1f941aa0d9"><path d="M 996.441406 77.546875 L 1112.886719 32.140625 L 1167.925781 173.285156 L 1051.480469 218.695312 Z M 996.441406 77.546875 " clip-rule="nonzero"/></clipPath><clipPath id="2b60e03d6a"><path d="M 996.441406 77.546875 L 1112.886719 32.140625 L 1167.925781 173.285156 L 1051.480469 218.695312 Z M 996.441406 77.546875 " clip-rule="nonzero"/></clipPath></defs><g fill="#8b8b8b" fill-opacity="1"><g transform="translate(122.438637, 412.061443)"><g><path d="M 38.3125 -25.609375 C 18.957031 -46.710938 9.28125 -72.59375 9.28125 -103.25 C 9.28125 -133.90625 18.957031 -159.851562 38.3125 -181.09375 C 57.675781 -202.332031 82.28125 -212.953125 112.125 -212.953125 C 139.550781 -212.953125 162.140625 -204.347656 179.890625 -187.140625 L 179.890625 -346.859375 L 251.28125 -346.859375 L 251.28125 0 L 180.6875 0 L 180.6875 -23.390625 L 179.890625 -23.390625 C 162.140625 -3.765625 139.550781 6.046875 112.125 6.046875 C 82.28125 6.046875 57.675781 -4.503906 38.3125 -25.609375 Z M 99.015625 -138.34375 C 89.742188 -129.195312 85.109375 -117.5 85.109375 -103.25 C 85.109375 -89 89.539062 -77.367188 98.40625 -68.359375 C 107.28125 -59.359375 118.976562 -54.859375 133.5 -54.859375 C 147.476562 -54.859375 158.972656 -59.425781 167.984375 -68.5625 C 176.992188 -77.707031 181.5 -89.269531 181.5 -103.25 C 181.5 -117.5 176.859375 -129.195312 167.578125 -138.34375 C 158.304688 -147.488281 146.945312 -152.0625 133.5 -152.0625 C 119.789062 -152.0625 108.296875 -147.488281 99.015625 -138.34375 Z M 99.015625 -138.34375 "/></g></g></g><g fill="#8b8b8b" fill-opacity="1"><g transform="translate(359.986393, 412.061443)"><g><path d="M 134.3125 -154.46875 C 120.863281 -154.46875 109.300781 -149.492188 99.625 -139.546875 C 89.945312 -129.597656 85.109375 -117.632812 85.109375 -103.65625 C 85.109375 -89.40625 89.945312 -77.304688 99.625 -67.359375 C 109.300781 -57.410156 120.863281 -52.4375 134.3125 -52.4375 C 140.757812 -52.4375 146.875 -53.238281 152.65625 -54.84375 C 158.4375 -56.457031 162.671875 -58.070312 165.359375 -59.6875 L 169 -62.109375 L 193.1875 -12.5 C 191.3125 -11.15625 188.691406 -9.472656 185.328125 -7.453125 C 181.960938 -5.441406 174.296875 -2.691406 162.328125 0.796875 C 150.367188 4.296875 137.535156 6.046875 123.828125 6.046875 C 93.441406 6.046875 66.753906 -4.640625 43.765625 -26.015625 C 20.773438 -47.390625 9.28125 -73 9.28125 -102.84375 C 9.28125 -132.957031 20.773438 -158.835938 43.765625 -180.484375 C 66.753906 -202.128906 93.441406 -212.953125 123.828125 -212.953125 C 137.535156 -212.953125 150.171875 -211.335938 161.734375 -208.109375 C 173.296875 -204.890625 181.5 -201.664062 186.34375 -198.4375 L 193.1875 -193.59375 L 169 -144.796875 C 160.125 -151.242188 148.5625 -154.46875 134.3125 -154.46875 Z M 134.3125 -154.46875 "/></g></g></g><g fill="#f1efe7" fill-opacity="1"><g transform="translate(520.126691, 412.061443)"><g><path d="M 38.3125 -25.609375 C 18.957031 -46.710938 9.28125 -72.59375 9.28125 -103.25 C 9.28125 -133.90625 18.957031 -159.851562 38.3125 -181.09375 C 57.675781 -202.332031 82.28125 -212.953125 112.125 -212.953125 C 139.550781 -212.953125 162.140625 -204.347656 179.890625 -187.140625 L 179.890625 -346.859375 L 251.28125 -346.859375 L 251.28125 0 L 180.6875 0 L 180.6875 -23.390625 L 179.890625 -23.390625 C 162.140625 -3.765625 139.550781 6.046875 112.125 6.046875 C 82.28125 6.046875 57.675781 -4.503906 38.3125 -25.609375 Z M 99.015625 -138.34375 C 89.742188 -129.195312 85.109375 -117.5 85.109375 -103.25 C 85.109375 -89 89.539062 -77.367188 98.40625 -68.359375 C 107.28125 -59.359375 118.976562 -54.859375 133.5 -54.859375 C 147.476562 -54.859375 158.972656 -59.425781 167.984375 -68.5625 C 176.992188 -77.707031 181.5 -89.269531 181.5 -103.25 C 181.5 -117.5 176.859375 -129.195312 167.578125 -138.34375 C 158.304688 -147.488281 146.945312 -152.0625 133.5 -152.0625 C 119.789062 -152.0625 108.296875 -147.488281 99.015625 -138.34375 Z M 99.015625 -138.34375 "/></g></g></g><g fill="#f1efe7" fill-opacity="1"><g transform="translate(757.674446, 412.061443)"><g><path d="M 233.53125 -93.578125 L 83.484375 -93.578125 C 83.484375 -79.054688 88.1875 -68.296875 97.59375 -61.296875 C 107.007812 -54.304688 117.234375 -50.8125 128.265625 -50.8125 C 139.816406 -50.8125 148.953125 -52.359375 155.671875 -55.453125 C 162.398438 -58.546875 170.066406 -64.664062 178.671875 -73.8125 L 230.296875 -48 C 208.785156 -11.96875 173.023438 6.046875 123.015625 6.046875 C 91.828125 6.046875 65.070312 -4.640625 42.75 -26.015625 C 20.4375 -47.390625 9.28125 -73.132812 9.28125 -103.25 C 9.28125 -133.363281 20.4375 -159.175781 42.75 -180.6875 C 65.070312 -202.195312 91.828125 -212.953125 123.015625 -212.953125 C 155.816406 -212.953125 182.503906 -203.472656 203.078125 -184.515625 C 223.648438 -165.566406 233.9375 -138.476562 233.9375 -103.25 C 233.9375 -98.40625 233.800781 -95.179688 233.53125 -93.578125 Z M 85.5 -133.09375 L 164.15625 -133.09375 C 162.539062 -143.851562 158.304688 -152.125 151.453125 -157.90625 C 144.597656 -163.6875 135.789062 -166.578125 125.03125 -166.578125 C 113.195312 -166.578125 103.785156 -163.484375 96.796875 -157.296875 C 89.804688 -151.109375 86.039062 -143.039062 85.5 -133.09375 Z M 85.5 -133.09375 "/></g></g></g><g fill="#f1efe7" fill-opacity="1"><g transform="translate(962.957379, 412.061443)"><g><path d="M 76.625 -206.90625 L 127.046875 -94.375 L 177.46875 -206.90625 L 262.15625 -206.90625 L 151.25 0 L 102.84375 0 L -8.0625 -206.90625 Z M 76.625 -206.90625 "/></g></g></g><g fill="#f1efe7" fill-opacity="1"><g transform="translate(1179.129662, 412.061443)"><g><path d="M 114.140625 -212.953125 C 125.972656 -212.953125 137.671875 -211.609375 149.234375 -208.921875 C 160.796875 -206.234375 169.398438 -203.546875 175.046875 -200.859375 L 183.515625 -196.828125 L 160.125 -150.03125 C 143.988281 -158.632812 128.660156 -162.9375 114.140625 -162.9375 C 106.078125 -162.9375 100.363281 -162.0625 97 -160.3125 C 93.632812 -158.570312 91.953125 -155.28125 91.953125 -150.4375 C 91.953125 -149.363281 92.085938 -148.285156 92.359375 -147.203125 C 92.628906 -146.128906 93.164062 -145.125 93.96875 -144.1875 C 94.78125 -143.25 95.519531 -142.441406 96.1875 -141.765625 C 96.863281 -141.097656 98.007812 -140.359375 99.625 -139.546875 C 101.238281 -138.742188 102.515625 -138.140625 103.453125 -137.734375 C 104.390625 -137.328125 105.929688 -136.722656 108.078125 -135.921875 C 110.234375 -135.117188 111.847656 -134.515625 112.921875 -134.109375 C 114.003906 -133.703125 115.820312 -133.09375 118.375 -132.28125 C 120.925781 -131.476562 122.875 -130.941406 124.21875 -130.671875 C 132.5625 -128.253906 139.820312 -125.566406 146 -122.609375 C 152.1875 -119.648438 158.707031 -115.613281 165.5625 -110.5 C 172.414062 -105.394531 177.722656 -98.941406 181.484375 -91.140625 C 185.253906 -83.347656 187.140625 -74.476562 187.140625 -64.53125 C 187.140625 -17.476562 154.472656 6.046875 89.140625 6.046875 C 74.347656 6.046875 60.296875 3.765625 46.984375 -0.796875 C 33.671875 -5.367188 24.0625 -9.941406 18.15625 -14.515625 L 9.28125 -21.78125 L 38.3125 -70.578125 C 40.46875 -68.703125 43.289062 -66.484375 46.78125 -63.921875 C 50.28125 -61.367188 56.597656 -57.875 65.734375 -53.4375 C 74.878906 -49 82.8125 -46.78125 89.53125 -46.78125 C 104.320312 -46.78125 111.71875 -51.753906 111.71875 -61.703125 C 111.71875 -66.273438 109.832031 -69.835938 106.0625 -72.390625 C 102.300781 -74.953125 95.914062 -77.84375 86.90625 -81.0625 C 77.90625 -84.289062 70.851562 -87.25 65.75 -89.9375 C 52.832031 -96.664062 42.609375 -104.265625 35.078125 -112.734375 C 27.554688 -121.203125 23.796875 -132.425781 23.796875 -146.40625 C 23.796875 -167.382812 31.925781 -183.71875 48.1875 -195.40625 C 64.457031 -207.101562 86.441406 -212.953125 114.140625 -212.953125 Z M 114.140625 -212.953125 "/></g></g></g><g clip-path="url(#064e254aed)"><g clip-path="url(#eea59f4ccd)"><g clip-path="url(#a0c0b5c269)"><path fill="#ffffff" d="M 1150.96875 132.402344 L 1066.359375 104.933594 C 1065.207031 104.5625 1063.945312 104.882812 1063.121094 105.765625 C 1062.289062 106.644531 1062.042969 107.921875 1062.480469 109.046875 L 1096.589844 196.515625 C 1097.089844 197.800781 1098.378906 198.605469 1099.75 198.503906 C 1100.058594 198.476562 1100.359375 198.40625 1100.640625 198.296875 C 1101.597656 197.921875 1102.328125 197.09375 1102.558594 196.046875 L 1111.886719 153.601562 L 1151.140625 138.292969 C 1152.371094 137.8125 1153.167969 136.613281 1153.132812 135.289062 C 1153.09375 133.964844 1152.230469 132.8125 1150.96875 132.402344 Z M 1150.96875 132.402344 " fill-opacity="1" fill-rule="nonzero"/></g></g></g><g clip-path="url(#8d86baa7cc)"><g clip-path="url(#80d4567ce2)"><g clip-path="url(#bf3846db4e)"><path fill="#ffffff" d="M 1046.066406 58.34375 C 1044.457031 58.972656 1043.660156 60.789062 1044.289062 62.398438 L 1053.382812 85.722656 C 1054.011719 87.332031 1055.828125 88.128906 1057.4375 87.5 C 1059.046875 86.871094 1059.84375 85.058594 1059.214844 83.449219 L 1050.121094 60.121094 C 1049.492188 58.511719 1047.675781 57.714844 1046.066406 58.34375 Z M 1046.066406 58.34375 " fill-opacity="1" fill-rule="nonzero"/></g></g></g><g clip-path="url(#5b2511efad)"><g clip-path="url(#36662ad71e)"><g clip-path="url(#f59ac3c328)"><path fill="#ffffff" d="M 1040.933594 114.089844 L 1017.609375 123.1875 C 1016 123.8125 1015.203125 125.628906 1015.828125 127.238281 C 1016.457031 128.847656 1018.273438 129.644531 1019.882812 129.019531 L 1043.207031 119.921875 C 1044.816406 119.296875 1045.613281 117.476562 1044.984375 115.867188 C 1044.359375 114.257812 1042.542969 113.460938 1040.933594 114.089844 Z M 1040.933594 114.089844 " fill-opacity="1" fill-rule="nonzero"/></g></g></g><g clip-path="url(#cce320f0ea)"><g clip-path="url(#765b199b3a)"><g clip-path="url(#06f5147c58)"><path fill="#ffffff" d="M 1110.910156 86.804688 L 1087.582031 95.898438 C 1085.976562 96.527344 1085.175781 98.339844 1085.804688 99.949219 C 1086.433594 101.5625 1088.25 102.359375 1089.859375 101.730469 L 1113.183594 92.636719 C 1114.792969 92.007812 1115.589844 90.191406 1114.960938 88.582031 C 1114.332031 86.972656 1112.519531 86.175781 1110.910156 86.804688 Z M 1110.910156 86.804688 " fill-opacity="1" fill-rule="nonzero"/></g></g></g><g clip-path="url(#f5485816f8)"><g clip-path="url(#5d0915bf31)"><g clip-path="url(#7cd36878ac)"><path fill="#ffffff" d="M 1043.726562 94.984375 L 1020.800781 84.925781 C 1019.21875 84.230469 1017.371094 84.953125 1016.675781 86.53125 C 1015.984375 88.113281 1016.703125 89.960938 1018.285156 90.65625 L 1041.210938 100.714844 C 1042.003906 101.054688 1042.863281 101.050781 1043.609375 100.761719 C 1044.355469 100.46875 1044.992188 99.898438 1045.335938 99.105469 C 1046.03125 97.523438 1045.308594 95.675781 1043.726562 94.984375 Z M 1043.726562 94.984375 " fill-opacity="1" fill-rule="nonzero"/></g></g></g><g clip-path="url(#7f28d85e68)"><g clip-path="url(#56073af513)"><g clip-path="url(#455b4d8b1a)"><path fill="#ffffff" d="M 1056.59375 127.976562 C 1055.011719 127.28125 1053.164062 128.003906 1052.472656 129.582031 L 1042.402344 152.507812 C 1041.710938 154.089844 1042.429688 155.9375 1044.011719 156.632812 C 1044.804688 156.972656 1045.660156 156.96875 1046.40625 156.679688 C 1047.152344 156.386719 1047.789062 155.808594 1048.132812 155.015625 L 1058.203125 132.097656 C 1058.894531 130.519531 1058.175781 128.671875 1056.59375 127.976562 Z M 1056.59375 127.976562 " fill-opacity="1" fill-rule="nonzero"/></g></g></g><g clip-path="url(#6531dbea35)"><g clip-path="url(#1f941aa0d9)"><g clip-path="url(#2b60e03d6a)"><path fill="#ffffff" d="M 1086.773438 59.199219 C 1085.195312 58.503906 1083.347656 59.226562 1082.652344 60.804688 L 1072.585938 83.730469 C 1071.894531 85.308594 1072.613281 87.160156 1074.195312 87.851562 C 1074.984375 88.195312 1075.84375 88.191406 1076.589844 87.898438 C 1077.335938 87.609375 1077.972656 87.035156 1078.316406 86.246094 L 1088.382812 63.320312 C 1089.078125 61.738281 1088.355469 59.890625 1086.773438 59.199219 Z M 1086.773438 59.199219 " fill-opacity="1" fill-rule="nonzero"/></g></g></g></svg>