<svg xmlns="http://www.w3.org/2000/svg" xmlns:xlink="http://www.w3.org/1999/xlink" width="500" zoomAndPan="magnify" viewBox="0 0 375 374.999991" height="500" preserveAspectRatio="xMidYMid meet" version="1.0"><defs><g/><clipPath id="4a0d8f9cfe"><path d="M 232 97 L 268 97 L 268 134 L 232 134 Z M 232 97 " clip-rule="nonzero"/></clipPath><clipPath id="d78f23e191"><path d="M 207.195312 86.847656 L 252.613281 69.136719 L 273.867188 123.636719 L 228.449219 141.351562 Z M 207.195312 86.847656 " clip-rule="nonzero"/></clipPath><clipPath id="c903c74261"><path d="M 207.195312 86.847656 L 252.613281 69.136719 L 273.867188 123.636719 L 228.449219 141.351562 Z M 207.195312 86.847656 " clip-rule="nonzero"/></clipPath><clipPath id="aeee70be02"><path d="M 225 79 L 232 79 L 232 91 L 225 91 Z M 225 79 " clip-rule="nonzero"/></clipPath><clipPath id="4f1f676a9f"><path d="M 207.195312 86.847656 L 252.613281 69.136719 L 273.867188 123.636719 L 228.449219 141.351562 Z M 207.195312 86.847656 " clip-rule="nonzero"/></clipPath><clipPath id="7c3cb0bb6d"><path d="M 207.195312 86.847656 L 252.613281 69.136719 L 273.867188 123.636719 L 228.449219 141.351562 Z M 207.195312 86.847656 " clip-rule="nonzero"/></clipPath><clipPath id="a2860df9a0"><path d="M 214 100 L 227 100 L 227 107 L 214 107 Z M 214 100 " clip-rule="nonzero"/></clipPath><clipPath id="9eac7fd013"><path d="M 207.195312 86.847656 L 252.613281 69.136719 L 273.867188 123.636719 L 228.449219 141.351562 Z M 207.195312 86.847656 " clip-rule="nonzero"/></clipPath><clipPath id="462c8e51a6"><path d="M 207.195312 86.847656 L 252.613281 69.136719 L 273.867188 123.636719 L 228.449219 141.351562 Z M 207.195312 86.847656 " clip-rule="nonzero"/></clipPath><clipPath id="81020a34ac"><path d="M 241 90 L 254 90 L 254 97 L 241 97 Z M 241 90 " clip-rule="nonzero"/></clipPath><clipPath id="de35dd4f6a"><path d="M 207.195312 86.847656 L 252.613281 69.136719 L 273.867188 123.636719 L 228.449219 141.351562 Z M 207.195312 86.847656 " clip-rule="nonzero"/></clipPath><clipPath id="63129cfbce"><path d="M 207.195312 86.847656 L 252.613281 69.136719 L 273.867188 123.636719 L 228.449219 141.351562 Z M 207.195312 86.847656 " clip-rule="nonzero"/></clipPath><clipPath id="9ad895a375"><path d="M 214 89 L 227 89 L 227 96 L 214 96 Z M 214 89 " clip-rule="nonzero"/></clipPath><clipPath id="0430ca69db"><path d="M 207.195312 86.847656 L 252.613281 69.136719 L 273.867188 123.636719 L 228.449219 141.351562 Z M 207.195312 86.847656 " clip-rule="nonzero"/></clipPath><clipPath id="82cd712690"><path d="M 207.195312 86.847656 L 252.613281 69.136719 L 273.867188 123.636719 L 228.449219 141.351562 Z M 207.195312 86.847656 " clip-rule="nonzero"/></clipPath><clipPath id="d68f4695c5"><path d="M 224 106 L 232 106 L 232 118 L 224 118 Z M 224 106 " clip-rule="nonzero"/></clipPath><clipPath id="3ab607350d"><path d="M 207.195312 86.847656 L 252.613281 69.136719 L 273.867188 123.636719 L 228.449219 141.351562 Z M 207.195312 86.847656 " clip-rule="nonzero"/></clipPath><clipPath id="52b227ebec"><path d="M 207.195312 86.847656 L 252.613281 69.136719 L 273.867188 123.636719 L 228.449219 141.351562 Z M 207.195312 86.847656 " clip-rule="nonzero"/></clipPath><clipPath id="f58b308070"><path d="M 236 79 L 243 79 L 243 91 L 236 91 Z M 236 79 " clip-rule="nonzero"/></clipPath><clipPath id="751b1d55e6"><path d="M 207.195312 86.847656 L 252.613281 69.136719 L 273.867188 123.636719 L 228.449219 141.351562 Z M 207.195312 86.847656 " clip-rule="nonzero"/></clipPath><clipPath id="3584adefbe"><path d="M 207.195312 86.847656 L 252.613281 69.136719 L 273.867188 123.636719 L 228.449219 141.351562 Z M 207.195312 86.847656 " clip-rule="nonzero"/></clipPath></defs><rect x="-37.5" width="450" fill="#ffffff" y="-37.499999" height="449.999989" fill-opacity="1"/><rect x="-37.5" width="450" fill="#000000" y="-37.499999" height="449.999989" fill-opacity="1"/><g fill="#ffffff" fill-opacity="1"><g transform="translate(63.313047, 280.201377)"><g><path d="M 20.09375 -16.921875 C 7.800781 -27.660156 0.691406 -41.71875 -1.234375 -59.09375 C -3.171875 -76.46875 0.671875 -91.785156 10.296875 -105.046875 C 19.921875 -118.304688 33.191406 -125.878906 50.109375 -127.765625 C 65.648438 -129.492188 79 -126.039062 90.15625 -117.40625 L 80.078125 -207.90625 L 120.53125 -212.40625 L 142.40625 -15.84375 L 102.390625 -11.390625 L 100.921875 -24.65625 L 100.484375 -24.609375 C 91.648438 -12.359375 79.460938 -5.367188 63.921875 -3.640625 C 47.003906 -1.753906 32.394531 -6.179688 20.09375 -16.921875 Z M 47.390625 -84.640625 C 42.710938 -78.878906 40.820312 -71.960938 41.71875 -63.890625 C 42.613281 -55.816406 45.859375 -49.503906 51.453125 -44.953125 C 57.054688 -40.410156 63.972656 -38.597656 72.203125 -39.515625 C 80.117188 -40.398438 86.34375 -43.71875 90.875 -49.46875 C 95.40625 -55.21875 97.226562 -62.050781 96.34375 -69.96875 C 95.445312 -78.039062 92.082031 -84.375 86.25 -88.96875 C 80.414062 -93.5625 73.6875 -95.4375 66.0625 -94.59375 C 58.289062 -93.726562 52.066406 -90.410156 47.390625 -84.640625 Z M 47.390625 -84.640625 "/></g></g></g><g fill="#ffffff" fill-opacity="1"><g transform="translate(181.597484, 264.839676)"><g><path d="M 89.96875 -74.359375 C 82.40625 -75.609375 75.4375 -73.890625 69.0625 -69.203125 C 62.695312 -64.515625 58.859375 -58.238281 57.546875 -50.375 C 56.222656 -42.351562 57.816406 -35.085938 62.328125 -28.578125 C 66.835938 -22.078125 72.875 -18.203125 80.4375 -16.953125 C 84.070312 -16.347656 87.585938 -16.226562 90.984375 -16.59375 C 94.390625 -16.96875 96.929688 -17.484375 98.609375 -18.140625 L 100.859375 -19.15625 L 109.84375 11 C 108.65625 11.570312 107.019531 12.269531 104.9375 13.09375 C 102.863281 13.914062 98.296875 14.753906 91.234375 15.609375 C 84.179688 16.460938 76.800781 16.25 69.09375 14.96875 C 51.988281 12.125 37.96875 3.617188 27.03125 -10.546875 C 16.101562 -24.722656 12.03125 -40.203125 14.8125 -56.984375 C 17.625 -73.929688 26.503906 -87.421875 41.453125 -97.453125 C 56.398438 -107.484375 72.425781 -111.078125 89.53125 -108.234375 C 97.238281 -106.953125 104.191406 -104.863281 110.390625 -101.96875 C 116.597656 -99.070312 120.914062 -96.492188 123.34375 -94.234375 L 126.75 -90.875 L 108.578125 -65.671875 C 104.191406 -70.128906 97.988281 -73.023438 89.96875 -74.359375 Z M 89.96875 -74.359375 "/></g></g></g><g clip-path="url(#4a0d8f9cfe)"><g clip-path="url(#d78f23e191)"><g clip-path="url(#c903c74261)"><path fill="#ffffff" d="M 266.9375 108.054688 L 234.226562 97.4375 C 233.78125 97.292969 233.292969 97.414062 232.972656 97.757812 C 232.652344 98.097656 232.558594 98.589844 232.726562 99.027344 L 245.914062 132.84375 C 246.105469 133.335938 246.605469 133.648438 247.132812 133.609375 C 247.253906 133.597656 247.371094 133.570312 247.480469 133.53125 C 247.851562 133.386719 248.132812 133.066406 248.222656 132.660156 L 251.828125 116.25 L 267.003906 110.332031 C 267.480469 110.148438 267.785156 109.683594 267.773438 109.171875 C 267.757812 108.660156 267.421875 108.214844 266.9375 108.054688 Z M 266.9375 108.054688 " fill-opacity="1" fill-rule="nonzero"/></g></g></g><g clip-path="url(#aeee70be02)"><g clip-path="url(#4f1f676a9f)"><g clip-path="url(#7c3cb0bb6d)"><path fill="#ffffff" d="M 226.382812 79.421875 C 225.757812 79.667969 225.449219 80.367188 225.691406 80.992188 L 229.210938 90.007812 C 229.453125 90.628906 230.152344 90.9375 230.777344 90.695312 C 231.398438 90.453125 231.707031 89.75 231.464844 89.128906 L 227.949219 80.113281 C 227.707031 79.488281 227.003906 79.179688 226.382812 79.421875 Z M 226.382812 79.421875 " fill-opacity="1" fill-rule="nonzero"/></g></g></g><g clip-path="url(#a2860df9a0)"><g clip-path="url(#9eac7fd013)"><g clip-path="url(#462c8e51a6)"><path fill="#ffffff" d="M 224.394531 100.976562 L 215.378906 104.492188 C 214.757812 104.734375 214.449219 105.4375 214.691406 106.058594 C 214.933594 106.679688 215.636719 106.988281 216.257812 106.746094 L 225.277344 103.230469 C 225.898438 102.988281 226.207031 102.285156 225.960938 101.664062 C 225.71875 101.039062 225.019531 100.734375 224.394531 100.976562 Z M 224.394531 100.976562 " fill-opacity="1" fill-rule="nonzero"/></g></g></g><g clip-path="url(#81020a34ac)"><g clip-path="url(#de35dd4f6a)"><g clip-path="url(#63129cfbce)"><path fill="#ffffff" d="M 251.449219 90.425781 L 242.429688 93.941406 C 241.808594 94.183594 241.5 94.886719 241.742188 95.507812 C 241.988281 96.132812 242.6875 96.441406 243.3125 96.199219 L 252.328125 92.679688 C 252.949219 92.4375 253.257812 91.734375 253.015625 91.113281 C 252.773438 90.492188 252.070312 90.183594 251.449219 90.425781 Z M 251.449219 90.425781 " fill-opacity="1" fill-rule="nonzero"/></g></g></g><g clip-path="url(#9ad895a375)"><g clip-path="url(#0430ca69db)"><g clip-path="url(#82cd712690)"><path fill="#ffffff" d="M 225.476562 93.589844 L 216.613281 89.699219 C 216 89.429688 215.285156 89.710938 215.019531 90.320312 C 214.75 90.933594 215.03125 91.648438 215.640625 91.914062 L 224.503906 95.804688 C 224.808594 95.9375 225.140625 95.933594 225.429688 95.820312 C 225.71875 95.710938 225.964844 95.488281 226.097656 95.183594 C 226.367188 94.570312 226.085938 93.855469 225.476562 93.589844 Z M 225.476562 93.589844 " fill-opacity="1" fill-rule="nonzero"/></g></g></g><g clip-path="url(#d68f4695c5)"><g clip-path="url(#3ab607350d)"><g clip-path="url(#52b227ebec)"><path fill="#ffffff" d="M 230.449219 106.34375 C 229.839844 106.074219 229.125 106.355469 228.855469 106.964844 L 224.964844 115.828125 C 224.695312 116.4375 224.976562 117.152344 225.585938 117.421875 C 225.894531 117.554688 226.222656 117.550781 226.511719 117.441406 C 226.800781 117.328125 227.046875 117.105469 227.179688 116.796875 L 231.070312 107.9375 C 231.339844 107.328125 231.0625 106.613281 230.449219 106.34375 Z M 230.449219 106.34375 " fill-opacity="1" fill-rule="nonzero"/></g></g></g><g clip-path="url(#f58b308070)"><g clip-path="url(#751b1d55e6)"><g clip-path="url(#3584adefbe)"><path fill="#ffffff" d="M 242.117188 79.753906 C 241.507812 79.484375 240.792969 79.765625 240.523438 80.375 L 236.632812 89.238281 C 236.367188 89.847656 236.644531 90.5625 237.253906 90.832031 C 237.5625 90.964844 237.894531 90.960938 238.183594 90.851562 C 238.46875 90.738281 238.714844 90.515625 238.847656 90.210938 L 242.742188 81.347656 C 243.007812 80.738281 242.730469 80.023438 242.117188 79.753906 Z M 242.117188 79.753906 " fill-opacity="1" fill-rule="nonzero"/></g></g></g></svg>